<svg xmlns="http://www.w3.org/2000/svg" viewBox="0 0 1945 1137.71"><defs><style>.cls-1,.cls-12,.cls-13,.cls-15,.cls-16,.cls-17,.cls-25,.cls-7{isolation:isolate;}.cls-2{fill:#f0f0f0;}.cls-3{fill:#ececec;}.cls-4{fill:#e1e1e1;}.cls-5{fill:#f5f5f5;}.cls-6{fill:#007cff;}.cls-16,.cls-7{opacity:0.6;}.cls-13,.cls-16,.cls-17,.cls-18,.cls-21,.cls-22,.cls-26,.cls-8{fill:#fff;}.cls-15,.cls-17,.cls-20,.cls-26,.cls-9{opacity:0.2;}.cls-10{opacity:0.1;}.cls-11{fill:#1a2e35;}.cls-12,.cls-13,.cls-18{opacity:0.8;}.cls-14,.cls-25{opacity:0.4;}.cls-19{fill:#ff8b7b;}.cls-21{opacity:0.3;}.cls-22{opacity:0.7;}.cls-23{fill:#fcb373;}.cls-24{fill:#ec873e;}.cls-27{fill:#6c7474;}.cls-28{fill:#e8eae9;}.cls-29{fill:#4e5759;}.cls-30{fill:#303235;}.cls-31{fill:#ebc7af;}.cls-32{fill:#4e848d;}.cls-33{fill:#095d67;}.cls-34{fill:#c9ac95;}.cls-35{fill:#f4d7d4;mix-blend-mode:multiply;}</style></defs><g class="cls-1"><g id="Lager_1" data-name="Lager 1"><polygon class="cls-2" points="1286.97 923.38 1471.97 923.38 1434.58 274.4 1324.36 274.4 1286.97 923.38"/><rect class="cls-3" x="1316.62" y="258.69" width="125.71" height="33.52"/><polygon class="cls-2" points="1062.67 923.38 1247.66 923.38 1210.28 274.4 1100.06 274.4 1062.67 923.38"/><rect class="cls-3" x="1092.31" y="258.69" width="125.71" height="33.52"/><polygon class="cls-4" points="650.47 626.48 650.47 580.81 534.18 626.48 534.18 580.81 417.88 626.48 417.88 580.81 301.59 626.48 301.59 580.81 161.28 635.91 159.87 635.91 159.87 316.95 87.68 316.95 87.68 923.38 114.92 923.38 159.87 923.38 766.77 923.38 766.77 669.18 766.77 635.91 766.77 580.81 650.47 626.48"/><rect class="cls-2" x="510.34" y="758.62" width="353.09" height="164.76"/><path class="cls-2" d="M435.12,698.11H376.63a15.11,15.11,0,0,0-15.12,15.11V828.58A15.09,15.09,0,0,0,373,843.21v23h9.65V843.7h18.39v22.53h9.65V843.7h18.39v22.53h9.65v-23a15.09,15.09,0,0,0,11.5-14.63V713.22A15.11,15.11,0,0,0,435.12,698.11Z" transform="translate(25 57.14)"/><path class="cls-2" d="M327.14,698.11H268.65a15.11,15.11,0,0,0-15.12,15.11V828.58A15.09,15.09,0,0,0,265,843.21v23h9.65V843.7h18.39v22.53h9.65V843.7h18.39v22.53h9.65v-23a15.09,15.09,0,0,0,11.5-14.63V713.22A15.11,15.11,0,0,0,327.14,698.11Z" transform="translate(25 57.14)"/><path class="cls-2" d="M219.16,698.11H160.67a15.11,15.11,0,0,0-15.12,15.11V828.58a15.09,15.09,0,0,0,11.5,14.63v23h9.65V843.7h18.39v22.53h9.65V843.7h18.39v22.53h9.65v-23a15.09,15.09,0,0,0,11.5-14.63V713.22A15.11,15.11,0,0,0,219.16,698.11Z" transform="translate(25 57.14)"/><rect class="cls-4" x="1107.62" y="821.28" width="201.13" height="102.09"/><rect class="cls-4" x="888.09" y="821.28" width="201.13" height="102.09"/><rect class="cls-4" x="1333.73" y="821.28" width="611.27" height="102.09"/><path class="cls-4" d="M130.14,159.78c-.74-14.23,30.32-20.14,36.23-8.31s-5.91,20.7-5.91,20.7,17.75,7.11,3,18-20.71,0-20.71,0-17,15.3-21.44,9.38S125.7,189,125.7,189s-14.29.91-12.32-13.14S130.14,159.78,130.14,159.78Z" transform="translate(25 57.14)"/><path class="cls-4" d="M85.18,226.07c-.37-7.12,15.16-10.08,18.12-4.16s-3,10.35-3,10.35,8.88,3.55,1.48,9-10.35,0-10.35,0S83,248.9,80.75,245.94,83,240.68,83,240.68s-7.14.45-6.16-6.57S85.18,226.07,85.18,226.07Z" transform="translate(25 57.14)"/><path class="cls-4" d="M79.16,77.9C78.1,57.48,122.68,49,131.18,66s-8.5,29.72-8.5,29.72,25.48,10.2,4.25,25.8-29.72,0-29.72,0S72.8,143.46,66.43,135s6.37-15.11,6.37-15.11S52.27,121.17,55.1,101,79.16,77.9,79.16,77.9Z" transform="translate(25 57.14)"/><path class="cls-4" d="M1144.58,89.57c-.74-14.22,30.32-20.14,36.24-8.31S1174.9,102,1174.9,102s17.75,7.1,3,18-20.71,0-20.71,0-17,15.3-21.44,9.39,4.44-10.53,4.44-10.53-14.3.91-12.33-13.14S1144.58,89.57,1144.58,89.57Z" transform="translate(25 57.14)"/><path class="cls-4" d="M1099.63,155.86c-.37-7.12,15.15-10.08,18.11-4.16s-3,10.35-3,10.35,8.88,3.55,1.48,9-10.35,0-10.35,0-8.5,7.65-10.72,4.69,2.22-5.26,2.22-5.26-7.15.46-6.17-6.57S1099.63,155.86,1099.63,155.86Z" transform="translate(25 57.14)"/><path class="cls-4" d="M1093.61,7.69c-1.07-20.42,43.52-28.91,52-11.93s-8.49,29.72-8.49,29.72,25.47,10.2,4.24,25.8-29.72,0-29.72,0-24.41,22-30.78,13.48,6.37-15.1,6.37-15.1-20.52,1.3-17.69-18.87S1093.61,7.69,1093.61,7.69Z" transform="translate(25 57.14)"/><path class="cls-4" d="M1367.4,90.55c-.74-14.22,30.32-20.14,36.23-8.31s-5.91,20.71-5.91,20.71,17.74,7.1,3,18-20.7,0-20.7,0-17,15.3-21.44,9.39,4.43-10.53,4.43-10.53-14.29.91-12.32-13.14S1367.4,90.55,1367.4,90.55Z" transform="translate(25 57.14)"/><path class="cls-4" d="M1322.44,156.84c-.37-7.12,15.16-10.08,18.12-4.16s-3,10.35-3,10.35,8.87,3.55,1.48,9-10.35,0-10.35,0-8.51,7.65-10.73,4.69,2.22-5.26,2.22-5.26-7.15.46-6.16-6.57S1322.44,156.84,1322.44,156.84Z" transform="translate(25 57.14)"/><path class="cls-4" d="M1316.42,8.68c-1.06-20.43,43.52-28.92,52-11.94s-8.49,29.72-8.49,29.72,25.48,10.2,4.25,25.8-29.72,0-29.72,0-24.42,22-30.79,13.48,6.37-15.1,6.37-15.1-20.52,1.3-17.69-18.87S1316.42,8.68,1316.42,8.68Z" transform="translate(25 57.14)"/><path class="cls-5" d="M1438.24,365a21,21,0,0,1,27.07-20.14,44.54,44.54,0,0,1,44.06-51,45.23,45.23,0,0,1,8.2.77,38.92,38.92,0,0,1,72.17,19.68c.22,0,.43,0,.65,0a35.88,35.88,0,1,1,0,71.75H1458.65l0,0A21,21,0,0,1,1438.24,365Z" transform="translate(25 57.14)"/><path class="cls-5" d="M722.51,31.92a21,21,0,0,1,27.07-20.14,44.31,44.31,0,0,1-.48-6.45,44.54,44.54,0,0,1,44.54-44.54,45.23,45.23,0,0,1,8.2.77,38.9,38.9,0,0,1,33.24-18.7A39,39,0,0,1,874-18.76c.22,0,.43,0,.65,0a35.88,35.88,0,0,1,0,71.75H742.92l0,0A21,21,0,0,1,722.51,31.92Z" transform="translate(25 57.14)"/><path class="cls-5" d="M334.79,221.6a21,21,0,0,1,27.06-20.14,45.65,45.65,0,0,1-.47-6.45,44.53,44.53,0,0,1,44.53-44.53,45.25,45.25,0,0,1,8.21.76,38.92,38.92,0,0,1,72.17,19.68c.22,0,.43,0,.65,0a35.87,35.87,0,0,1,0,71.74H355.2l0,0A21,21,0,0,1,334.79,221.6Z" transform="translate(25 57.14)"/><path class="cls-5" d="M1667.89,73.29a12.71,12.71,0,0,1,12.71-12.71,12.54,12.54,0,0,1,3.65.54,28,28,0,0,1-.28-3.9,26.92,26.92,0,0,1,31.87-26.46,23.52,23.52,0,0,1,43.62,11.9l.39,0a21.68,21.68,0,1,1,0,43.36h-79.62v0A12.7,12.7,0,0,1,1667.89,73.29Z" transform="translate(25 57.14)"/><path class="cls-5" d="M1475.89,533.29a12.71,12.71,0,0,1,12.71-12.71,12.54,12.54,0,0,1,3.65.54,28,28,0,0,1-.28-3.9,26.92,26.92,0,0,1,31.87-26.46,23.52,23.52,0,0,1,43.62,11.9l.39,0a21.68,21.68,0,1,1,0,43.36h-79.62v0A12.7,12.7,0,0,1,1475.89,533.29Z" transform="translate(25 57.14)"/><path class="cls-5" d="M1798.89,408.29a12.71,12.71,0,0,1,12.71-12.71,12.54,12.54,0,0,1,3.65.54,28,28,0,0,1-.28-3.9,26.92,26.92,0,0,1,31.87-26.46,23.52,23.52,0,0,1,43.62,11.9l.39,0a21.68,21.68,0,1,1,0,43.36h-79.62v0A12.7,12.7,0,0,1,1798.89,408.29Z" transform="translate(25 57.14)"/><path class="cls-5" d="M1742.19,254.29a12.7,12.7,0,0,1,16.36-12.17,26.53,26.53,0,0,1-.29-3.9,26.92,26.92,0,0,1,31.88-26.46,23.52,23.52,0,0,1,43.62,11.9l.39,0a21.68,21.68,0,0,1,0,43.36h-79.63l0,0A12.7,12.7,0,0,1,1742.19,254.29Z" transform="translate(25 57.14)"/><path class="cls-5" d="M1453.34,63.29a12.7,12.7,0,0,1,16.36-12.17,26.53,26.53,0,0,1-.29-3.9,26.92,26.92,0,0,1,31.88-26.46,23.52,23.52,0,0,1,43.62,11.9l.39,0a21.68,21.68,0,1,1,0,43.36h-79.63l0,0A12.7,12.7,0,0,1,1453.34,63.29Z" transform="translate(25 57.14)"/><path class="cls-6" d="M1438,650.75V809.86a31.33,31.33,0,0,1-31.33,31.33H561.23A142.27,142.27,0,0,1,516.87,834L363.27,783.1V433.24a44.48,44.48,0,0,1,44.49-44.46H1245.4c7.9,0,28.4,17.8,53.26,44.46,45.15,48.45,104.6,126.1,128.56,179.4C1434,627.7,1438,640.79,1438,650.75Z" transform="translate(25 57.14)"/><g class="cls-7"><path class="cls-8" d="M1438,650.75V809.86a31.33,31.33,0,0,1-31.33,31.33H561.23A142.27,142.27,0,0,1,516.87,834L363.27,783.1V433.24a44.48,44.48,0,0,1,44.49-44.46H1245.4c7.9,0,28.4,17.8,53.26,44.46,45.15,48.45,104.6,126.1,128.56,179.4C1434,627.7,1438,640.79,1438,650.75Z" transform="translate(25 57.14)"/></g><g class="cls-9"><rect x="869.45" y="490.39" width="246.4" height="143.99"/><path d="M1371.39,579.46a239.21,239.21,0,0,0,55.83,33.18c-24-53.3-83.41-130.95-128.56-179.4H1271.9C1302,468.43,1348.26,527.13,1371.39,579.46Z" transform="translate(25 57.14)"/><rect x="639.12" y="490.39" width="217.88" height="143.99"/><rect x="388.27" y="490.39" width="238.41" height="143.99"/><path d="M1255.37,433.24h-121v144h222.23C1331.35,524.43,1283,465,1255.37,433.24Z" transform="translate(25 57.14)"/></g><g class="cls-10"><path d="M1201.18,827.73h-80.25V420.06h137.26l.46.58c.8,1,79.94,99.7,111.32,166.7l.14.66V719.5l-.71.46ZM1124,824.62h76.23L1367,717.8V588.34c-30.06-64-103.73-156.94-110.31-165.17H1124Z" transform="translate(25 57.14)"/></g><rect class="cls-11" x="1425.1" y="825.85" width="49.35" height="81.31" rx="2.19"/><rect class="cls-11" x="367.69" y="772.26" width="49.35" height="81.31" rx="2.19"/><path class="cls-11" d="M721.53,823.83a88.79,88.79,0,0,1-1.68,17.36H561.23a140.32,140.32,0,0,1-21.4-1.65,90.43,90.43,0,0,1-1.37-15.71,91.54,91.54,0,0,1,183.07,0Z" transform="translate(25 57.14)"/><path class="cls-11" d="M1377,823.83a88.79,88.79,0,0,1-1.68,17.36h-179.7a88.79,88.79,0,0,1-1.68-17.36,91.53,91.53,0,0,1,183.06,0Z" transform="translate(25 57.14)"/><path class="cls-6" d="M1395.32,651.34h0a8,8,0,0,1,7.09,4.27l25,46.95a52,52,0,0,1,6.08,24.4V754.7a8,8,0,0,1-8,8h-1.2a36.93,36.93,0,0,1-36.93-36.93V659.37A8,8,0,0,1,1395.32,651.34Z" transform="translate(25 57.14)"/><path class="cls-4" d="M1175.47,623.89h-25.36a10.64,10.64,0,0,1-10.64-10.64h0a10.65,10.65,0,0,1,10.64-10.64h25.36a10.64,10.64,0,0,1,10.64,10.64h0A10.64,10.64,0,0,1,1175.47,623.89Z" transform="translate(25 57.14)"/><g class="cls-10"><path d="M1101.61,825.38H835.35V420.06h266.26Zm-263.15-3.11h260V423.17h-260Z" transform="translate(25 57.14)"/></g><path class="cls-3" d="M572.12,689.17c-5.66,7.91-145.32-44-208.85-56.18V605.76c31,5.42,91.68,18.61,145.73,45.58,76.41,38.15-.47-39.2,17-41.75S708.8,686.16,708.8,686.16L714.18,707s-122-54.44-150.92-62.66S578.5,680.25,572.12,689.17Z" transform="translate(25 57.14)"/><rect class="cls-6" x="388.28" y="652.79" width="27.59" height="111.38" rx="1.84"/><g class="cls-12"><path class="cls-8" d="M1395.32,651.34h0a8,8,0,0,1,7.09,4.27l25,46.95a52,52,0,0,1,6.08,24.4V754.7a8,8,0,0,1-8,8h-1.2a36.93,36.93,0,0,1-36.93-36.93V659.37A8,8,0,0,1,1395.32,651.34Z" transform="translate(25 57.14)"/></g><g class="cls-12"><rect class="cls-8" x="388.28" y="652.79" width="27.59" height="111.38" rx="1.84"/></g><g class="cls-9"><path class="cls-8" d="M721.53,823.83a88.79,88.79,0,0,1-1.68,17.36H561.23a140.32,140.32,0,0,1-21.4-1.65,90.43,90.43,0,0,1-1.37-15.71,91.54,91.54,0,0,1,183.07,0Z" transform="translate(25 57.14)"/></g><g class="cls-9"><path class="cls-8" d="M1377,823.83a88.79,88.79,0,0,1-1.68,17.36h-179.7a88.79,88.79,0,0,1-1.68-17.36,91.53,91.53,0,0,1,183.06,0Z" transform="translate(25 57.14)"/></g><circle class="cls-11" cx="1310.46" cy="878.72" r="77.29"/><g class="cls-9"><circle class="cls-8" cx="1285.46" cy="821.58" r="51.73" transform="translate(-129.37 374.46) rotate(-13.28)"/></g><circle class="cls-11" cx="656.51" cy="878.72" r="77.29"/><g class="cls-9"><circle class="cls-8" cx="631.51" cy="821.58" r="51.73" transform="translate(-370.98 744.32) rotate(-45)"/></g><path class="cls-11" d="M167.19,372a35.32,35.32,0,0,0-46.63,36.18,23.44,23.44,0,0,0-9-5.62,23.73,23.73,0,1,0-15.34,44.92c.19.07.39.11.58.17a36,36,0,0,0-2.65,5.88,35.41,35.41,0,0,0,55.51,39.21,32.49,32.49,0,0,0,51.87-36.67,32.52,32.52,0,0,0-11.84-60.52A35.24,35.24,0,0,0,167.19,372Z" transform="translate(25 57.14)"/><path class="cls-11" d="M15.1,749.06a35.32,35.32,0,0,0,58.49-7.92,23.44,23.44,0,0,0,5,9.4,23.74,23.74,0,1,0,35.8-31.18c-.13-.15-.28-.28-.42-.44a35.4,35.4,0,0,0-23.12-65.51,32.14,32.14,0,0,0-6.49-11.61,32.49,32.49,0,0,0-56.78,17.32A32.49,32.49,0,0,0,2.75,713a32.88,32.88,0,0,0,4.72,4.44A35.22,35.22,0,0,0,15.1,749.06Z" transform="translate(25 57.14)"/><path class="cls-11" d="M337.51,623.29a21.13,21.13,0,0,0-23.12-26.69,14,14,0,0,0,3.07-5.57,14.2,14.2,0,1,0-27.33-7.72c0,.12-.05.24-.08.35a22.44,22.44,0,0,0-3.59-1.39,21.19,21.19,0,0,0-21.64,34.42,19.44,19.44,0,0,0,23.58,29.8,19.44,19.44,0,0,0,35.09-5.2,19.79,19.79,0,0,0,.68-3.82A21.09,21.09,0,0,0,337.51,623.29Z" transform="translate(25 57.14)"/><path class="cls-13" d="M167.19,372a35.32,35.32,0,0,0-46.63,36.18,23.44,23.44,0,0,0-9-5.62,23.73,23.73,0,1,0-15.34,44.92c.19.07.39.11.58.17a36,36,0,0,0-2.65,5.88,35.41,35.41,0,0,0,55.51,39.21,32.49,32.49,0,0,0,51.87-36.67,32.52,32.52,0,0,0-11.84-60.52A35.24,35.24,0,0,0,167.19,372Z" transform="translate(25 57.14)"/><path class="cls-13" d="M15.1,749.06a35.32,35.32,0,0,0,58.49-7.92,23.44,23.44,0,0,0,5,9.4,23.74,23.74,0,1,0,35.8-31.18c-.13-.15-.28-.28-.42-.44a35.4,35.4,0,0,0-23.12-65.51,32.14,32.14,0,0,0-6.49-11.61,32.49,32.49,0,0,0-56.78,17.32A32.49,32.49,0,0,0,2.75,713a32.88,32.88,0,0,0,4.72,4.44A35.22,35.22,0,0,0,15.1,749.06Z" transform="translate(25 57.14)"/><path class="cls-13" d="M337.51,623.29a21.13,21.13,0,0,0-23.12-26.69,14,14,0,0,0,3.07-5.57,14.2,14.2,0,1,0-27.33-7.72c0,.12-.05.24-.08.35a22.44,22.44,0,0,0-3.59-1.39,21.19,21.19,0,0,0-21.64,34.42,19.44,19.44,0,0,0,23.58,29.8,19.44,19.44,0,0,0,35.09-5.2,19.79,19.79,0,0,0,.68-3.82A21.09,21.09,0,0,0,337.51,623.29Z" transform="translate(25 57.14)"/><g class="cls-14"><rect class="cls-8" x="1425.1" y="825.85" width="49.35" height="81.31" rx="2.19"/></g><g class="cls-14"><rect class="cls-8" x="367.69" y="772.26" width="49.35" height="81.31" rx="2.19"/></g><path class="cls-11" d="M853.79,807.77s18.07-18.9,35,6.61c0,0,14.12-45.08,65.14-30.57,0,0-28.23-76.51,43-96.19s104.35,16,104.35,16-7.69-60.67,55.68-68,74.17,52,74.17,52,48.93-33.26,72.92,8-3.42,63.92-3.42,63.92,36,25.55,13.26,66.17-82.76,23.8-82.76,23.8-.12,22.64-28.61,34.38-80.91-46.84-80.91-46.84-15.58,30.92-69.45,34.54-66.74-37.37-66.74-37.37-10.91,29.11-35.39,32S917,839,917,839s-.71,26.28-23.47,27.31-30.13-32-30.13-32-8.69-.35-15.3-4.43S853.79,807.77,853.79,807.77Z" transform="translate(25 57.14)"/><path class="cls-13" d="M853.79,807.77s18.07-18.9,35,6.61c0,0,14.12-45.08,65.14-30.57,0,0-28.23-76.51,43-96.19s104.35,16,104.35,16-7.69-60.67,55.68-68,74.17,52,74.17,52,48.93-33.26,72.92,8-3.42,63.92-3.42,63.92,36,25.55,13.26,66.17-82.76,23.8-82.76,23.8-.12,22.64-28.61,34.38-80.91-46.84-80.91-46.84-15.58,30.92-69.45,34.54-66.74-37.37-66.74-37.37-10.91,29.11-35.39,32S917,839,917,839s-.71,26.28-23.47,27.31-30.13-32-30.13-32-8.69-.35-15.3-4.43S853.79,807.77,853.79,807.77Z" transform="translate(25 57.14)"/><polygon class="cls-11" points="153.35 906.66 841.44 906.66 827.68 783.4 629.44 740.98 445.22 773.08 223.29 794.87 168.26 857.93 153.35 906.66"/><polygon class="cls-15" points="153.35 906.66 841.44 906.66 827.68 783.4 629.44 740.98 445.22 773.08 223.29 794.87 168.26 857.93 153.35 906.66"/><path class="cls-11" d="M319.83,849.52A72.81,72.81,0,1,1,247,776.71,72.81,72.81,0,0,1,319.83,849.52Z" transform="translate(25 57.14)"/><circle class="cls-15" cx="247.02" cy="849.52" r="48.73" transform="translate(-281.29 216.34) rotate(-22.5)"/><path class="cls-11" d="M795.16,849.52a72.81,72.81,0,1,1-72.81-72.81A72.81,72.81,0,0,1,795.16,849.52Z" transform="translate(25 57.14)"/><circle class="cls-15" cx="722.35" cy="849.52" r="48.73" transform="translate(-364.13 816.74) rotate(-45)"/><path class="cls-6" d="M863.42,784.71l-8,56.92-44.75,14.15s-1.16-96.23-98.55-96.23-84.86,114.66-84.86,114.66h-17l-32.12-13.79H367.81l-18.32,13.79h-12.4S347.4,759.55,247,759.55s-87.64,114.66-87.64,114.66L102,849.52l-5.68-57.85,24-15,5.8-35.13c2.55-2,5.21-3.82,7.88-5.56,67.13-45,158.94-51,158.94-51,79-80.34,111-91.71,111-91.71,181.21-12.63,354.07,6.84,354.07,6.84l52.75,67.59,12.4,10.09L836,688.37c8,36.75,5.68,71.18,5.68,71.18Z" transform="translate(25 57.14)"/><path class="cls-16" d="M183.82,740l-40.23,36.75h-23.3l5.8-35.13c2.55-2,5.21-3.82,7.88-5.56l29.21-4.41Z" transform="translate(25 57.14)"/><path class="cls-16" d="M841.63,759.55,827,754.11c0-30.5-18.31-61.1-18.31-61.1l14.37-15.19L836,688.37C844,725.12,841.63,759.55,841.63,759.55Z" transform="translate(25 57.14)"/><path class="cls-11" d="M810.68,667.73C715.26,690.57,292.91,685,292.91,685c2.44-2.44,4.76-4.87,7.19-7.19,43.48-43.59,71.77-65.15,87.65-75.47,11-7.31,16.11-9.05,16.11-9.05,181.21-12.63,354.07,6.84,354.07,6.84Z" transform="translate(25 57.14)"/><path class="cls-16" d="M407.46,602.35l-68.87,75.47H300.1c43.48-43.59,71.77-65.15,87.65-75.47Z" transform="translate(25 57.14)"/><polygon class="cls-16" points="383.05 734.96 443.82 659.46 534.4 659.46 527.52 734.96 383.05 734.96"/><path class="cls-16" d="M524.31,677.82l8-75.51h125l21.79,68.47S603.42,677.82,524.31,677.82Z" transform="translate(25 57.14)"/><path class="cls-16" d="M672,602.31l23.16,66.62s73.38-4.59,83.7-9.18L748.1,618.29c-5.26-7.1-13.67-9.95-22.4-11.28A396.44,396.44,0,0,0,672,602.31Z" transform="translate(25 57.14)"/><path class="cls-15" d="M863.42,784.71l-8,56.92-44.75,14.15s-1.16-96.23-98.55-96.23-84.86,114.66-84.86,114.66h-17l-32.12-13.79H367.81l-18.32,13.79h-12.4S347.4,759.55,247,759.55s-87.64,114.66-87.64,114.66L102,849.52l-5.68-57.85h47.3S178,735.44,253.73,735.44s100,56.23,100,56.23H596.54s41.28-57,102-60.06,96.57,22.5,96.57,22.5H827l14.61,5.44Z" transform="translate(25 57.14)"/><path class="cls-11" d="M1920,937.23v43H-25v-43c0-7.47,8.37-13.5,20.36-13.5H1899.64C1911.64,923.73,1920,929.76,1920,937.23Z" transform="translate(25 57.14)"/><rect class="cls-6" x="110.85" y="980.88" width="120.93" height="56.52"/><rect class="cls-6" x="342.64" y="980.88" width="115.89" height="56.52"/><rect class="cls-6" x="569.39" y="980.88" width="120.93" height="56.52"/><rect class="cls-6" x="801.18" y="980.88" width="115.89" height="56.52"/><rect class="cls-6" x="1027.93" y="980.88" width="115.89" height="56.52"/><rect class="cls-6" x="1254.68" y="980.88" width="120.93" height="56.52"/><rect class="cls-6" x="1486.46" y="980.88" width="115.89" height="56.52"/><rect class="cls-6" x="1713.21" y="980.88" width="120.93" height="56.52"/><g class="cls-7"><rect class="cls-8" x="110.85" y="980.88" width="120.93" height="56.52"/><rect class="cls-8" x="342.64" y="980.88" width="115.89" height="56.52"/><rect class="cls-8" x="569.39" y="980.88" width="120.93" height="56.52"/><rect class="cls-8" x="801.18" y="980.88" width="115.89" height="56.52"/><rect class="cls-8" x="1027.93" y="980.88" width="115.89" height="56.52"/><rect class="cls-8" x="1254.68" y="980.88" width="120.93" height="56.52"/><rect class="cls-8" x="1486.46" y="980.88" width="115.89" height="56.52"/><rect class="cls-8" x="1713.21" y="980.88" width="120.93" height="56.52"/></g><path class="cls-17" d="M1920,937.23v43H-25v-43c0-7.47,8.37-13.5,20.36-13.5H1899.64C1911.64,923.73,1920,929.76,1920,937.23Z" transform="translate(25 57.14)"/><path class="cls-6" d="M1085.22,289.81c-62.83-.7-130.79,16-130.79,16C939.78,410.72,966.8,523.05,966.8,523.05l155.91-23.43c-14.92-89-14.65-151.49-12.77-183.54A24.88,24.88,0,0,0,1085.22,289.81Z" transform="translate(25 57.14)"/><path class="cls-18" d="M1122.7,499.64,966.79,523.06s-27-112.34-12.36-217.27c0,0,68-16.69,130.8-16A24.89,24.89,0,0,1,1110,316.07c-.18,2.94-.33,6.13-.47,9.57-.39,9.63-.57,21.24-.32,34.78C1109.73,394.81,1113,441.6,1122.7,499.64Z" transform="translate(25 57.14)"/><path class="cls-15" d="M1109.16,360.42c-15.05-10.31-19.63-29.3-19.63-29.3,5.76-4.59,12.79-6.09,20-5.48C1109.09,335.27,1108.91,346.88,1109.16,360.42Z" transform="translate(25 57.14)"/><path class="cls-19" d="M1116.33,974.29c3.44,17,17,65.31,17.14,78.09,10.76,10.51,21,10.28,24.74,1s-4.85-77.14-4.85-77.14Z" transform="translate(25 57.14)"/><path class="cls-11" d="M1116.83,787c-19-124.63-12.17-194-20.33-252.62l-127.21-.75c0,22.17,16.5,112.38,71.5,252,31.69,80.41,76.62,218.17,76.62,218.17l39.6-10.72S1148.26,884.08,1116.83,787Z" transform="translate(25 57.14)"/><path class="cls-20" d="M1030.7,605.07s-7,56.84-12.07,121.24q6.92,19.66,15.07,41.06c35.69-53,53.21-127.55,56.24-157.2Z" transform="translate(25 57.14)"/><path class="cls-11" d="M1082,1072.49s41.92-12.36,45-28.86a2.86,2.86,0,0,1,3.38-2.41l30.45,5.09a4,4,0,0,1,3.1,2.72l9.29,29.62-8.61.26-3.19-4.24-3.61,4.46c-46.73,1.46-66.94,1.59-76.28-1C1080,1074,1082,1072.49,1082,1072.49Z" transform="translate(25 57.14)"/><path class="cls-6" d="M1160.21,1014.84c-7.24,2.92-33.57,6.16-39.29,4.74s-8.82-21.66-8.82-21.66,41.58-13.67,45.87-11.09S1160.21,1014.84,1160.21,1014.84Z" transform="translate(25 57.14)"/><path class="cls-21" d="M1160.21,1014.84c-7.24,2.92-33.57,6.16-39.29,4.74s-8.82-21.66-8.82-21.66,41.58-13.67,45.87-11.09S1160.21,1014.84,1160.21,1014.84Z" transform="translate(25 57.14)"/><path class="cls-19" d="M912.81,964.26c-4.4,16.82-18.48,63.63-24,75.15,5.05,14.17,18.49,14.41,25.94,7.69s30.49-64.83,30.49-64.83Z" transform="translate(25 57.14)"/><path class="cls-11" d="M1023.51,772.12c38.85-119.41,99.8-171.27,98.12-237.5l-114.61-1S962.46,702,948.44,780.87C934.36,860.05,904,988.38,904,988.38L936.26,1004S1010.85,864.49,1023.51,772.12Z" transform="translate(25 57.14)"/><path class="cls-11" d="M830.75,1033.41s44.73,8.15,57-4.24a3.4,3.4,0,0,1,4.43-.51l24.41,17.62a3.32,3.32,0,0,1,1.23,3.63l-8.66,28.74-7.89-3.57-.42-4.93-5.8,2.12c-42.81-19.34-61-28.11-67.92-34.41C828.12,1033.82,830.75,1033.41,830.75,1033.41Z" transform="translate(25 57.14)"/><path class="cls-6" d="M935.89,1022.76c-7.59-1.82-33.33-15.91-37.17-20.38s5.37-22.76,5.37-22.76,37.74,12.48,40.67,16.53S935.89,1022.76,935.89,1022.76Z" transform="translate(25 57.14)"/><path class="cls-21" d="M935.89,1022.76c-7.59-1.82-33.33-15.91-37.17-20.38s5.37-22.76,5.37-22.76,37.74,12.48,40.67,16.53S935.89,1022.76,935.89,1022.76Z" transform="translate(25 57.14)"/><path class="cls-6" d="M893.55,509.46" transform="translate(25 57.14)"/><path class="cls-11" d="M971.3,550.13c-3.56-13.49-3.83-28.48-3.83-28.48-.4-3,142.7-26.83,154.26-27.93,0,0,10.3,50.36-11.76,95.43C1010.63,609.2,976.77,567,971.3,550.13Z" transform="translate(25 57.14)"/><path d="M971.41,524c15.36-4.58,117.07-24.67,145-26.49a2,2,0,0,1,1.88,1.08,24.1,24.1,0,0,1,2.19,8.77,2,2,0,0,1-1.68,2.08c-9.71,1.5-60.26,9.53-145.37,27a2,2,0,0,1-2.4-1.61c-.47-2.71-.85-6.56-1-8.68A2,2,0,0,1,971.41,524Z" transform="translate(25 57.14)"/><path class="cls-11" d="M1054.88,504.57c1.47,1.94,3.84,18.62,3.84,18.62l7.22-1.81s-.74-14.24-2.61-17.95A41,41,0,0,0,1054.88,504.57Z" transform="translate(25 57.14)"/><path class="cls-11" d="M982.86,518.61c-.68,5.77,2.61,17.19,2.61,17.19L979,537.25s-3.92-13.15-3.38-16.94C980.41,518.21,982.86,518.61,982.86,518.61Z" transform="translate(25 57.14)"/><path class="cls-8" d="M1001,533.44a3.82,3.82,0,0,1-3.73-3.08l-1.9-10a3.81,3.81,0,0,1,3-4.43l18.2-3.65a3.84,3.84,0,0,1,3,.63,3.79,3.79,0,0,1,1.55,2.58l1.42,10.51a3.78,3.78,0,0,1-3.11,4.24l-17.71,3.09A3.49,3.49,0,0,1,1001,533.44Zm16.22-17.76L999,519.34a.36.36,0,0,0-.29.43h0l1.91,9.94a.36.36,0,0,0,.42.3l17.71-3.09a.37.37,0,0,0,.3-.41L1017.63,516Z" transform="translate(25 57.14)"/><path class="cls-6" d="M992.41,315.6l21.22,26.22,13.54,16.29s37.45,28.57,75.85,28.26c26-.21,36.57-11.44,36.57-11.44l.92-14.42-14.24-6.67S1114,369.06,1095.07,370c-34.66,1.64-63.13-14.86-63.13-14.86l.52-17.23,20-34.86-6,.8-17.52,28.86-16,4-17.37-26Z" transform="translate(25 57.14)"/><path class="cls-6" d="M1009.19,288.21s-20.6,11.32-21.09,15.62-.1,35.72.19,34.25,10.47-21.43,10.47-21.43l20,17.38,16.14-17.45L1050,329.83l14.67-39.67S1048,276,1043,277.82,1009.19,288.21,1009.19,288.21Z" transform="translate(25 57.14)"/><path class="cls-22" d="M1009.19,288.21s-20.6,11.32-21.09,15.62-.1,35.72.19,34.25,10.47-21.43,10.47-21.43l20,17.38,16.14-17.45L1050,329.83l14.67-39.67S1048,276,1043,277.82,1009.19,288.21,1009.19,288.21Z" transform="translate(25 57.14)"/><path class="cls-23" d="M1011.26,228.89c6.78,20.37,22.22,56,42,61l-34.41,41.26-22-27.1c13.78-3.31,7.94-13.23-3.68-25.45Z" transform="translate(25 57.14)"/><path class="cls-15" d="M1003.89,249.14l-10.68,29.4a68.86,68.86,0,0,1,7.48,9.12c13.72.32,22.42-21.84,18.63-30.48C1017.93,253.61,1006.49,252,1003.89,249.14Z" transform="translate(25 57.14)"/><path class="cls-11" d="M962.34,198.35c13.32,4.72,11.56,19.07-8.72,46.1-13.91-10.77-22.46-36.49-15.91-45.23S950.75,194.28,962.34,198.35Z" transform="translate(25 57.14)"/><path class="cls-23" d="M1016.48,206.74c6,28,10.88,44,1,62-15,27-52.41,23.94-66.63-1.68-12.75-23-20.42-64.9,3.43-83.33a39,39,0,0,1,62.23,23Z" transform="translate(25 57.14)"/><path class="cls-11" d="M977.54,225.73c.62,2.23-.07,4.38-1.53,4.78s-3.13-1.06-3.75-3.3,0-4.37,1.48-4.8S976.77,223.57,977.54,225.73Z" transform="translate(25 57.14)"/><path class="cls-11" d="M952.11,232.86c.62,2.24-.06,4.39-1.53,4.79s-3.15-1.05-3.79-3.32.06-4.38,1.53-4.78S951.49,230.62,952.11,232.86Z" transform="translate(25 57.14)"/><path class="cls-24" d="M960.7,231.6a83.06,83.06,0,0,1-5.35,22.12c5.07,2.57,11.26-1,11.26-1Z" transform="translate(25 57.14)"/><path class="cls-11" d="M977.88,214.48a1.34,1.34,0,0,0,.34-.81,1.37,1.37,0,0,0-1.4-1.34,13.45,13.45,0,0,0-11,5.84,1.31,1.31,0,0,0,.38,1.82l.08,0a1.42,1.42,0,0,0,1.87-.46h0a10.77,10.77,0,0,1,8.73-4.52A1.41,1.41,0,0,0,977.88,214.48Z" transform="translate(25 57.14)"/><path class="cls-11" d="M938.62,223a1.42,1.42,0,0,0,1.43.31,10.88,10.88,0,0,1,9.81.91,1.37,1.37,0,0,0,1.67-2.17,13.63,13.63,0,0,0-12.41-1.3,1.36,1.36,0,0,0-.82,1.73h0A1.66,1.66,0,0,0,938.62,223Z" transform="translate(25 57.14)"/><path class="cls-11" d="M998.73,185.43c-11.62,8-.58,35.06,26,55.87,13.15-1,12.12-33.81,12.12-33.81s-9.63-24.15-14.12-27.64C1014.13,173.17,1008.89,178.47,998.73,185.43Z" transform="translate(25 57.14)"/><path class="cls-23" d="M1035.72,225.07a27.23,27.23,0,0,1-8.09,19.14c-6.84,6.62-14.78,1.59-16.68-7.23-1.7-7.95-.18-21,8.5-24.26S1035.74,216.24,1035.72,225.07Z" transform="translate(25 57.14)"/><path class="cls-11" d="M973.56,264.81a.91.91,0,0,1-.85-.62c-.12-.38-2.82-9.37,11.1-16.8a.9.9,0,1,1,.85,1.58c-12.53,6.69-10.34,14.35-10.24,14.67a.91.91,0,0,1-.59,1.13A1.17,1.17,0,0,1,973.56,264.81Z" transform="translate(25 57.14)"/><path class="cls-11" d="M956.65,195.76s12.72,20.15,30,21c0,0-7.94-3.25-14.85-13.4,0,0,9.79,8.69,21.19,10s43.89-5.9,43.89-5.9,5.54-17.54-8-34.31-67.08-13.5-75.63-2.7c0,0,7.3-9.21,18.94-11.84,0,0-22.51,2.67-24,13.24,0,0-17.14,8.74-20.25,20.24s8.47,31.06,4.68,34.78c0,0,1.27,1.9,6.25.19s.19-29.05,4.23-32.41,8.63,3.54,8.63,3.54S953.22,191.12,956.65,195.76Z" transform="translate(25 57.14)"/><path class="cls-23" d="M999.54,253.27l20.54.93s7.17-8.2,12.7-8.94,19.14-2.11,19.14-2.11l22.37,7.22-15.17,25.22-14.57-2.06s-18.84,1.84-22.33-3.41l-23.82.82Z" transform="translate(25 57.14)"/><path class="cls-6" d="M969.8,246.32c-7.7-.34-15.46-.49-23.51-.12S930,247.27,920.5,250a52.25,52.25,0,0,0-7.7,3,33.87,33.87,0,0,0-9,6.66,27.76,27.76,0,0,0-7.15,13.49,30.18,30.18,0,0,0,.6,14.1c2.25,7.64,5.52,12.08,8.52,16.19a95.26,95.26,0,0,0,9.3,10.37,186.05,186.05,0,0,0,19.08,16c3.24,2.4,6.52,4.7,9.87,6.94l5.13,3.33c1.8,1.13,3.45,2.16,5.83,3.45L974,305.12c-.92-.36-2.5-1.12-3.9-1.82L965.73,301c-3-1.59-5.88-3.26-8.76-5a147.86,147.86,0,0,1-16-10.92,64,64,0,0,1-4.86-4.3,91.92,91.92,0,0,1,13.5-3.33c6.63-1.21,13.61-2,20.66-2.64,14.08-1.2,28.75-1.61,42.94-1.43l2.06-22.57C1000.07,248.61,985.22,247.07,969.8,246.32Z" transform="translate(25 57.14)"/><path class="cls-18" d="M1015.3,250.84l-2.08,22.57c-14.19-.18-28.84.21-42.92,1.43-7,.61-14,1.43-20.67,2.61a93.06,93.06,0,0,0-13.5,3.37c1.43,1.36,3,2.83,4.87,4.26A140.47,140.47,0,0,0,957,296c2.86,1.76,5.8,3.4,8.74,5l4.4,2.25c1.4.72,3,1.47,3.91,1.83l-19.1,38.51c-1.29-.68-2.32-1.29-3.33-1.9s-1.65-1-2.5-1.54L944,336.85c-3.37-2.26-6.63-4.55-9.89-7-1.43-1.07-2.86-2.15-4.26-3.26A166.13,166.13,0,0,1,915,313.89a99.32,99.32,0,0,1-9.32-10.36c-3-4.12-6.27-8.56-8.49-16.19a29.82,29.82,0,0,1-.61-14.11,27.49,27.49,0,0,1,7.13-13.47,33.23,33.23,0,0,1,9.06-6.67,47.88,47.88,0,0,1,7.71-3c9.53-2.76,17.69-3.44,25.79-3.83s15.8-.26,23.5.1C985.21,247.08,1000.07,248.62,1015.3,250.84Z" transform="translate(25 57.14)"/><path class="cls-15" d="M952.35,331.12c-.28,3.08-.53,6.73-.75,10.6-.86-.5-1.65-1-2.5-1.54L944,336.85c-3.37-2.26-6.63-4.55-9.89-7-1.43-1.07-2.86-2.15-4.26-3.26A114.24,114.24,0,0,0,952.35,331.12Z" transform="translate(25 57.14)"/><path class="cls-11" d="M1355.48,582l-110.62,67.78-.93.57-19.85-2.83S1200,535,1202.8,531.73s102.06-60.68,111.27-61.4S1346,527.9,1346,527.9l-7.13,4.69,1.79,5.27Z" transform="translate(25 57.14)"/><path class="cls-25" d="M1340.62,537.86l-38.94,22.64,3.54,16.84-16.66,9.56-5-19.48-46.17,27,7.45,55.31-.93.57-19.85-2.83S1200,535,1202.8,531.73c6.38.11,33.1,54.1,33.1,54.1L1346,527.9l-7.13,4.69Z" transform="translate(25 57.14)"/><path class="cls-11" d="M1282.89,556.31l7.08,22.43,5.91,10.37,13.7-7.29-5.2-8.47s-5.43-20.12-8.15-24.6Z" transform="translate(25 57.14)"/><path class="cls-26" d="M1282.89,556.31l7.08,22.43,5.91,10.37,13.7-7.29-5.2-8.47s-5.43-20.12-8.15-24.6Z" transform="translate(25 57.14)"/><path class="cls-8" d="M1290.8,580.14a3.12,3.12,0,0,1-1.36-.32,3.07,3.07,0,0,1-1.58-1.84l-3.1-9.81a3.09,3.09,0,0,1,1.77-3.78l12.09-5a3.08,3.08,0,0,1,2.52.08,3,3,0,0,1,1.62,1.92l3,10.29a3.09,3.09,0,0,1-1.88,3.76l-12,4.49h0A3.08,3.08,0,0,1,1290.8,580.14Zm.46-1.87h0Zm-3-10.74,2.8,8.88,11.09-4.16-2.72-9.32Z" transform="translate(25 57.14)"/><path class="cls-11" d="M1223,519.11s3.52-32.45,10.44-41.15,31.71-17.55,36.67-15.43,19.14,21.38,19.14,21.38l-6.38,1.32s-11.69-17.74-13.82-17.74-30.36,13.89-31.65,16.42c-4.14,8.15-5.49,38-5.49,38Z" transform="translate(25 57.14)"/><path class="cls-23" d="M1233.29,424.35l9.64,18.16s10.71,2,14.16,6.39,11.55,15.41,11.55,15.41l-.55,15.47-20.94,13.94-8.41-20.31s-11.17-15.29-8.42-21l-12.82-20.1Z" transform="translate(25 57.14)"/><path class="cls-6" d="M1091.33,290a488.64,488.64,0,0,1,50,18.37c8.26,3.51,16.43,7.26,24.79,11.59a141.39,141.39,0,0,1,13.26,7.57l3.74,2.56c1.74,1.33,3.64,3,5.33,4.58a64.66,64.66,0,0,1,5.89,7.32c5.77,8.06,10.09,15.54,14.73,23.21s8.73,15.37,12.9,23.1A513.43,513.43,0,0,1,1244.59,436l-20,12.6c-11.94-12.94-22.94-26.53-33.72-40.12-5.31-6.86-10.69-13.62-15.87-20.47s-10.56-13.67-15.29-19.5a18.17,18.17,0,0,0-2.47-2.68.66.66,0,0,0,.28.45l-1.76-.95c-2.56-1.35-6.15-3.19-9.71-4.83-7.26-3.32-15-6.61-22.75-10-15.57-6.6-31.54-13.23-47-20.36Z" transform="translate(25 57.14)"/><path class="cls-18" d="M1091.33,290a488.64,488.64,0,0,1,50,18.37c8.26,3.51,16.43,7.26,24.79,11.59a141.39,141.39,0,0,1,13.26,7.57l3.74,2.56c1.74,1.33,3.64,3,5.33,4.58a64.66,64.66,0,0,1,5.89,7.32c5.77,8.06,10.09,15.54,14.73,23.21s8.73,15.37,12.9,23.1A513.43,513.43,0,0,1,1244.59,436l-20,12.6c-11.94-12.94-22.94-26.53-33.72-40.12-5.31-6.86-10.69-13.62-15.87-20.47s-10.56-13.67-15.29-19.5a18.17,18.17,0,0,0-2.47-2.68.66.66,0,0,0,.28.45l-1.76-.95c-2.56-1.35-6.15-3.19-9.71-4.83-7.26-3.32-15-6.61-22.75-10-15.57-6.6-31.54-13.23-47-20.36Z" transform="translate(25 57.14)"/><path class="cls-11" d="M1250.18,247a35.31,35.31,0,0,0,20,55.54A23.73,23.73,0,1,0,1300,337.86c.13-.16.23-.34.35-.5a35.94,35.94,0,0,0,4.76,4.34,35.42,35.42,0,0,0,54.48-40.64,32.5,32.5,0,0,0-18.8-60.68,32.5,32.5,0,0,0-57.86-13,32.77,32.77,0,0,0-3.35,5.55A35.24,35.24,0,0,0,1250.18,247Z" transform="translate(25 57.14)"/><path class="cls-13" d="M1250.18,247a35.31,35.31,0,0,0,20,55.54A23.73,23.73,0,1,0,1300,337.86c.13-.16.23-.34.35-.5a35.94,35.94,0,0,0,4.76,4.34,35.42,35.42,0,0,0,54.48-40.64,32.5,32.5,0,0,0-18.8-60.68,32.5,32.5,0,0,0-57.86-13,32.77,32.77,0,0,0-3.35,5.55A35.24,35.24,0,0,0,1250.18,247Z" transform="translate(25 57.14)"/><path class="cls-11" d="M862.11,579.73a35.3,35.3,0,0,0,20,55.54,23.48,23.48,0,0,0-8.15,6.85,23.73,23.73,0,0,0,38,28.5c.13-.16.23-.34.35-.5a35.94,35.94,0,0,0,4.76,4.34,35.41,35.41,0,0,0,54.48-40.63,32.5,32.5,0,0,0-18.8-60.69,32.51,32.51,0,0,0-57.86-13,32.77,32.77,0,0,0-3.35,5.55A35.24,35.24,0,0,0,862.11,579.73Z" transform="translate(25 57.14)"/><path class="cls-13" d="M862.11,579.73a35.3,35.3,0,0,0,20,55.54,23.48,23.48,0,0,0-8.15,6.85,23.73,23.73,0,0,0,38,28.5c.13-.16.23-.34.35-.5a35.94,35.94,0,0,0,4.76,4.34,35.41,35.41,0,0,0,54.48-40.63,32.5,32.5,0,0,0-18.8-60.69,32.51,32.51,0,0,0-57.86-13,32.77,32.77,0,0,0-3.35,5.55A35.24,35.24,0,0,0,862.11,579.73Z" transform="translate(25 57.14)"/><path class="cls-11" d="M782.49,154a23.45,23.45,0,0,0-24.84,30.29,15.75,15.75,0,1,0-10,29l.4,0a23.93,23.93,0,0,0-.85,4.19,23.5,23.5,0,0,0,41.7,17.19,21.57,21.57,0,0,0,28.16-31.38,21.59,21.59,0,0,0-16.58-37.42A23.41,23.41,0,0,0,782.49,154Z" transform="translate(25 57.14)"/><path class="cls-13" d="M782.49,154a23.45,23.45,0,0,0-24.84,30.29,15.75,15.75,0,1,0-10,29l.4,0a23.93,23.93,0,0,0-.85,4.19,23.5,23.5,0,0,0,41.7,17.19,21.57,21.57,0,0,0,28.16-31.38,21.59,21.59,0,0,0-16.58-37.42A23.41,23.41,0,0,0,782.49,154Z" transform="translate(25 57.14)"/><path class="cls-27" d="M1651.2,114.76c14.25-5.17,32-1.92,41.33,10.06s6.58,32.31-6.9,39.26c12.29,14.49,11.11,38.49-2.55,51.7s-37.7,13.58-51.76.81c-9.69,15.95-25.81,29.3-44.45,30.36s-38.26-13.9-37.66-32.56c-19.29,6.72-43-5.37-48.83-24.93s7.24-42.67,27-47.68c-5.25-15.26.7-33.65,13.89-42.94s32.51-8.71,45.12,1.37c7.64-14.89,25.65-23.66,42.08-20.49s29.89,18,31.44,34.68" transform="translate(25 57.14)"/><path class="cls-28" d="M1558.71,195.22a20.5,20.5,0,0,1-8-8.59,27.88,27.88,0,0,1-2.85-12.89v-18a27.91,27.91,0,0,1,2.85-12.89,20.73,20.73,0,0,1,8-8.61,23.19,23.19,0,0,1,12-3,22.46,22.46,0,0,1,10.4,2.42,21.86,21.86,0,0,1,7.94,6.85,25.82,25.82,0,0,1,4.32,10.26h-9.46a14.6,14.6,0,0,0-2.87-5.49,14,14,0,0,0-4.72-3.73,13.27,13.27,0,0,0-12.66.63,13,13,0,0,0-4.71,5.45,18.84,18.84,0,0,0-1.67,8.16v18a18.85,18.85,0,0,0,1.67,8.14,12.46,12.46,0,0,0,11.76,7.38,13.39,13.39,0,0,0,10.33-4.84,14.35,14.35,0,0,0,2.87-5.7h9.46A25.58,25.58,0,0,1,1589,189a22.06,22.06,0,0,1-8,6.85,22.42,22.42,0,0,1-10.36,2.42A23.37,23.37,0,0,1,1558.71,195.22Z" transform="translate(25 57.14)"/><path class="cls-28" d="M1614.31,195.25a20.59,20.59,0,0,1-8.11-8.5,27.06,27.06,0,0,1-2.88-12.73V155.39a27,27,0,0,1,2.88-12.73,20.55,20.55,0,0,1,8.11-8.51,26,26,0,0,1,24.24,0,20.58,20.58,0,0,1,8.12,8.51,27.12,27.12,0,0,1,2.87,12.73V174a27.18,27.18,0,0,1-2.87,12.73,20.61,20.61,0,0,1-8.12,8.5,26,26,0,0,1-24.24,0Zm19.29-7.92a12.31,12.31,0,0,0,4.79-5.2,17.1,17.1,0,0,0,1.7-7.8V155.07a17.1,17.1,0,0,0-1.7-7.8,12.31,12.31,0,0,0-4.79-5.2,15,15,0,0,0-14.34,0,12.31,12.31,0,0,0-4.79,5.2,17.1,17.1,0,0,0-1.69,7.8v19.26a17.1,17.1,0,0,0,1.69,7.8,12.31,12.31,0,0,0,4.79,5.2,15,15,0,0,0,14.34,0Z" transform="translate(25 57.14)"/><path class="cls-28" d="M1658.57,194.47l8.9-11.86a9.19,9.19,0,0,0,1.2-2.12,5.75,5.75,0,0,0,.43-2v0a3.11,3.11,0,0,0-.9-2.37,4.09,4.09,0,0,0-5.07.08,4.23,4.23,0,0,0-1.17,2.61v0h-3.71v0a9.57,9.57,0,0,1,1.29-3.75,6.65,6.65,0,0,1,2.52-2.37,7.57,7.57,0,0,1,3.56-.81,8.92,8.92,0,0,1,3.9.78,5.58,5.58,0,0,1,2.46,2.27,7.23,7.23,0,0,1,.84,3.6v0a8,8,0,0,1-.56,2.82,12.25,12.25,0,0,1-1.57,2.84l-7.38,10H1673v3.41h-14.39Z" transform="translate(25 57.14)"/><path class="cls-29" d="M47.21,19.93H56.4L85.75,96.69H70.18L51.81,44.27,33.44,96.69H17.86ZM32,70.45H72.34V84.39H32Z" transform="translate(25 57.14)"/><path class="cls-29" d="M109.19,96.69h-15V19.93h15Z" transform="translate(25 57.14)"/><path class="cls-29" d="M125,19.88H139.5V96.69H125Zm5.75,32H157.5a6.91,6.91,0,0,0,3.9-1.11A7.18,7.18,0,0,0,164,47.59a12.07,12.07,0,0,0,1-4.75,11.6,11.6,0,0,0-.92-4.75,7.29,7.29,0,0,0-2.61-3.17,7.14,7.14,0,0,0-4-1.1H130.78V19.88h27.88a21.45,21.45,0,0,1,11.14,2.85,19.26,19.26,0,0,1,7.44,8.05,26.31,26.31,0,0,1,2.64,12.06,26.33,26.33,0,0,1-2.64,12.07A19.26,19.26,0,0,1,169.77,63a21.44,21.44,0,0,1-11.11,2.85H130.78Zm16.16,11.56L162.41,61,183.1,96.69H165.57Z" transform="translate(25 57.14)"/><path class="cls-29" d="M25.25,127.19H39.72V204H25.25Zm6.6,33H56.4A8.74,8.74,0,0,0,61,159.05a8.09,8.09,0,0,0,3.08-3.36,10.69,10.69,0,0,0,1.11-5,11.25,11.25,0,0,0-1.08-5A7.91,7.91,0,0,0,61,142.31a8.83,8.83,0,0,0-4.62-1.19H31.85V127.19H56a26.24,26.24,0,0,1,12.64,2.93,20.76,20.76,0,0,1,8.48,8.26,26.8,26.8,0,0,1,0,24.68,20.71,20.71,0,0,1-8.48,8.21A26.58,26.58,0,0,1,56,174.17H31.85Z" transform="translate(25 57.14)"/><path class="cls-29" d="M103.25,201.23a24.38,24.38,0,0,1-9.84-9.93,30.55,30.55,0,0,1-3.49-14.86V154.69a30.58,30.58,0,0,1,3.49-14.86,24.36,24.36,0,0,1,9.84-9.92A29.94,29.94,0,0,1,118,126.4a29.93,29.93,0,0,1,14.7,3.51,24.36,24.36,0,0,1,9.84,9.92A30.58,30.58,0,0,1,146,154.69v21.75a30.55,30.55,0,0,1-3.49,14.86,24.38,24.38,0,0,1-9.84,9.93,29.93,29.93,0,0,1-14.7,3.51A29.94,29.94,0,0,1,103.25,201.23Zm21.57-12.62a11.34,11.34,0,0,0,4.56-4.72,14.94,14.94,0,0,0,1.62-7.08V154.32a14.9,14.9,0,0,0-1.62-7.07,11.37,11.37,0,0,0-4.56-4.73,15,15,0,0,0-13.73,0,11.37,11.37,0,0,0-4.56,4.73,14.89,14.89,0,0,0-1.61,7.07v22.49a14.93,14.93,0,0,0,1.61,7.08,11.34,11.34,0,0,0,4.56,4.72,15,15,0,0,0,13.73,0Z" transform="translate(25 57.14)"/><path class="cls-29" d="M160.24,127.19h14.47V204H160.24ZM166.68,190h45V204h-45Z" transform="translate(25 57.14)"/><path class="cls-29" d="M222.22,127.19h14.47V204H222.22ZM228.66,190h45V204h-45Z" transform="translate(25 57.14)"/><path class="cls-29" d="M293.86,201.39a22.34,22.34,0,0,1-9.56-9.77A33.66,33.66,0,0,1,281,176.18v-49H295.5v49.36q0,6.6,3.53,10.24t10,3.64q6.5,0,10.06-3.64t3.56-10.24V127.19H337.1v49a33.4,33.4,0,0,1-3.3,15.44,22.45,22.45,0,0,1-9.61,9.77,36,36,0,0,1-30.33,0Z" transform="translate(25 57.14)"/><path class="cls-29" d="M342.38,127.19h56.27v13.93H342.38Zm20.9,6.28h14.47V204H363.28Z" transform="translate(25 57.14)"/><path class="cls-29" d="M421,204H406V127.19h15Z" transform="translate(25 57.14)"/><path class="cls-29" d="M448.62,201.23a24.46,24.46,0,0,1-9.85-9.93,30.66,30.66,0,0,1-3.48-14.86V154.69a30.69,30.69,0,0,1,3.48-14.86,24.44,24.44,0,0,1,9.85-9.92,32.56,32.56,0,0,1,29.41,0,24.36,24.36,0,0,1,9.84,9.92,30.69,30.69,0,0,1,3.49,14.86v21.75a30.66,30.66,0,0,1-3.49,14.86,24.38,24.38,0,0,1-9.84,9.93,32.56,32.56,0,0,1-29.41,0Zm21.57-12.62a11.34,11.34,0,0,0,4.56-4.72,14.93,14.93,0,0,0,1.61-7.08V154.32a14.89,14.89,0,0,0-1.61-7.07,11.37,11.37,0,0,0-4.56-4.73,15,15,0,0,0-13.73,0,11.45,11.45,0,0,0-4.57,4.73,15,15,0,0,0-1.61,7.07v22.49a15.05,15.05,0,0,0,1.61,7.08,11.43,11.43,0,0,0,4.57,4.72,15,15,0,0,0,13.73,0Z" transform="translate(25 57.14)"/><path class="cls-29" d="M505.61,127.19h17.68L551.85,186l-1.26,1.37V127.19h13.83v76.7H546.63L518.17,146l1.27-1.37v59.28H505.61Z" transform="translate(25 57.14)"/><path class="cls-30" d="M1784,1046.52c8.25,5.49,16.33,15.5,23.25,22.6,1.93,2,4,4.53,3.32,7.23-.87,3.68-5.74,4.48-9.51,4.14-11.22-1-22-5.28-33.29-5.68-5-.18-10.76.19-14.37-3.33-3.26-3.19-3.43-8.28-3.39-12.84q.06-7.8.13-15.59Z" transform="translate(25 57.14)"/><path class="cls-30" d="M1694.55,1046.52c-8.25,5.49-16.32,15.5-23.25,22.6-1.93,2-4,4.53-3.32,7.23.87,3.68,5.74,4.48,9.51,4.14,11.22-1,22-5.28,33.29-5.68,5-.18,10.76.19,14.37-3.33,3.26-3.19,3.43-8.28,3.39-12.84q-.06-7.8-.13-15.59Z" transform="translate(25 57.14)"/><path class="cls-30" d="M1791.24,315.5c8.1,9.76,14.9,23,14.71,35.69-.25,15.58-5,32.21-1.32,47.36a70.34,70.34,0,0,0,12.86,27.77c7.78,10.65,14.35,22.76,15.42,35.91s-4.43,27.47-16,33.9c-16.44,9.17-36.59-.23-55.39-1.19-15.89-.81-31.35,4.62-47,7.27s-33.54,1.85-45.11-9.07c-14.06-13.28-13.16-36.5-5.06-54.06,4-8.65,9.51-16.92,10.55-26.39.89-8.08-1.6-16.1-3.41-24-2.49-10.91-5.57-20.68-4.87-31.85,1.65-26.55,8.86-35.76,14.9-43.35,3.76-4.72,21-11.05,26.4-13.77,28.48-14.37,44.46.85,74.54,11.49" transform="translate(25 57.14)"/><path class="cls-31" d="M1823.39,470.11c12.94,72.29,15.27,148.12,5.89,221a31.92,31.92,0,0,1-8.48,17.9c-.81.86-1.94,1.73-3,1.32a2.69,2.69,0,0,1-1.4-1.57c-2.94-6.64,3.11-14.44,1.07-21.41-1.33-4.56-6-8.42-4.91-13,.4-1.67,1.52-3,2.42-4.53,4.32-7.12,3.11-16.18,1.75-24.42-7.91-48-15.82-121-23.73-169.06Z" transform="translate(25 57.14)"/><path class="cls-31" d="M1651.6,470.11c-12.94,72.29-15.27,148.12-5.89,221a31.92,31.92,0,0,0,8.48,17.9c.81.86,1.94,1.73,3,1.32a2.69,2.69,0,0,0,1.4-1.57c2.94-6.64-3.11-14.44-1.07-21.41,1.33-4.56,6-8.42,4.91-13-.4-1.67-1.53-3-2.42-4.53-4.32-7.12-3.11-16.18-1.75-24.42,7.91-48,15.82-121,23.73-169.06Z" transform="translate(25 57.14)"/><path class="cls-32" d="M1808.49,621.81l-12.66-39.61H1681.91l-14.38,39.61c-13.45,132.25,8.78,224.13,8.78,224.13,3.68,18.11-1.12,111.49,17.84,201.17,2.15,10.12,34.28,1.3,34.28,1.3,6.16-27.51,2.66-201,3.56-209.3,2.61-24-6.9-190.21,5.62-181.94,6.19-1.45,5.52,157.94,8.13,181.94.9,8.26-2.43,181.6,3.73,209.1,0,0,32.14,9.65,34.28-.47,19-89.68,14-183.69,17.67-201.8C1801.42,845.94,1822,754.06,1808.49,621.81Z" transform="translate(25 57.14)"/><path class="cls-33" d="M1682.7,553.85c-.34-14-5.43-34.54-7.12-49.31a51.82,51.82,0,0,1,2.56-23.33h0l16.82-51.7c11.21-1.83,27.24,0,27.24,0h31.63s10.73-3.91,27.23,0l0,.07,16.82,51.69a51.83,51.83,0,0,1,2.55,23.27c-1.7,14.77-8.55,31.86-8.38,45.82.32,26.75,16.42,71.45,16.42,71.45-67.51,32.22-141,0-141,0S1683.26,576.93,1682.7,553.85Z" transform="translate(25 57.14)"/><path class="cls-31" d="M1724.74,403.66l-2.37,24.12-10.84,0c-6.21,27.67,22,29.14,22,29.14,39.54,1.73,33-28.23,33-28.23a97.72,97.72,0,0,0-12.71,0l-2.46-25.1Z" transform="translate(25 57.14)"/><path class="cls-33" d="M1781.06,429.51s27.43-2.28,46.26,41.53l-46.26,8.53Z" transform="translate(25 57.14)"/><path class="cls-33" d="M1698.26,428.9s-27.43-2.28-46.26,41.53l46.26,8.53Z" transform="translate(25 57.14)"/><path class="cls-31" d="M1797.67,368.4c9.36-59.07-40.16-69.56-40.16-69.56s-58-10.35-73.11,19.13-4.3,51.33-4.3,51.33c-3-.95-6.38.67-8.1,3.28a9.33,9.33,0,0,0,.69,10.9,10.16,10.16,0,0,0,11.18,2.41c6.31,22.33,33.54,31.86,56.71,30.55s48.14-9.23,51.9-32.13c2.56,1.16,6.16.18,8.43-1.48a10,10,0,0,0,3.89-7.19,7.89,7.89,0,0,0-1.6-5.77A4.9,4.9,0,0,0,1797.67,368.4Z" transform="translate(25 57.14)"/><path class="cls-34" d="M1801,372.72a4.07,4.07,0,0,0-3.53-.92,3.47,3.47,0,0,0-2.3,2.71,10,10,0,0,0-.1,3.81,5.71,5.71,0,0,0,1.88,3.25.11.11,0,0,1,0,.16.14.14,0,0,1-.16,0,5.6,5.6,0,0,1-2-3.36,8.87,8.87,0,0,1-.16-2,7.84,7.84,0,0,1,.22-2,5,5,0,0,1,.88-1.82,3.07,3.07,0,0,1,1.7-1.11,4.17,4.17,0,0,1,3.74,1.08.1.1,0,0,1,0,.15A.11.11,0,0,1,1801,372.72Z" transform="translate(25 57.14)"/><path class="cls-34" d="M1795.22,374.91a4,4,0,0,1,2.59,1.5,4.45,4.45,0,0,1,.76,1.32,7.07,7.07,0,0,1,.3,1.48.1.1,0,0,1-.09.11.1.1,0,0,1-.11-.08,10.8,10.8,0,0,0-.37-1.41,5.47,5.47,0,0,0-.73-1.23,4.07,4.07,0,0,0-2.38-1.51.09.09,0,0,1-.07-.11A.08.08,0,0,1,1795.22,374.91Z" transform="translate(25 57.14)"/><path class="cls-34" d="M1675,374.4a4.19,4.19,0,0,1,3.71-1.18,3.08,3.08,0,0,1,1.73,1.06,4.72,4.72,0,0,1,.93,1.79,7.82,7.82,0,0,1,.28,2,8.92,8.92,0,0,1-.1,2,5.63,5.63,0,0,1-2,3.41.11.11,0,0,1-.14-.18,5.64,5.64,0,0,0,1.78-3.29,9.77,9.77,0,0,0-.21-3.81,3.45,3.45,0,0,0-2.38-2.65,4.09,4.09,0,0,0-3.5,1,.1.1,0,1,1-.14-.15Z" transform="translate(25 57.14)"/><path class="cls-34" d="M1681.08,376.75a4.11,4.11,0,0,0-2.33,1.57,6,6,0,0,0-.7,1.26,12.78,12.78,0,0,0-.33,1.42.09.09,0,0,1-.11.08.12.12,0,0,1-.09-.11,7,7,0,0,1,.26-1.48,4.5,4.5,0,0,1,.72-1.35,4,4,0,0,1,2.55-1.57.08.08,0,0,1,.1.07A.1.1,0,0,1,1681.08,376.75Z" transform="translate(25 57.14)"/><path class="cls-35" d="M1725.14,415.73c9.48,2.67,26.65-.46,26.65-.46s-16.2,9-26.65.46" transform="translate(25 57.14)"/><path class="cls-30" d="M1738.3,379.62a4.23,4.23,0,0,0,.71,7.69h0a.37.37,0,0,1,.21.48.37.37,0,0,1-.39.23,4.51,4.51,0,0,1-2.6-1.44,4.93,4.93,0,0,1-1.24-2.77,4.74,4.74,0,0,1,3-4.8.33.33,0,0,1,.42.21.32.32,0,0,1-.14.39Z" transform="translate(25 57.14)"/><path class="cls-8" d="M1709.17,411.29c5.72,4,42.25,3.92,52.73.55A17,17,0,0,0,1769,408c4.1-4.13,3.79-10.76,3.21-16.55a13.31,13.31,0,0,0-1.26-5.23,4.61,4.61,0,0,0-4.08-2.62l-53.53.74c-1.09,0-8.86.13-8.1,19.85A8.49,8.49,0,0,0,1709.17,411.29Z" transform="translate(25 57.14)"/><path class="cls-8" d="M1709.35,388.37a94,94,0,0,1-30.51-18.48.17.17,0,0,1,.23-.26,106.64,106.64,0,0,0,30.39,18.45.16.16,0,0,1-.11.29Z" transform="translate(25 57.14)"/><path class="cls-8" d="M1709.14,411.25a160.56,160.56,0,0,1-14-11.27,66.87,66.87,0,0,1-6.14-6.57c-1.92-2.32-3.5-4.87-5.19-7.34a.19.19,0,0,1,0-.24.18.18,0,0,1,.24.05l2.59,3.65q1.26,1.86,2.69,3.57a67.18,67.18,0,0,0,6.14,6.48c4.32,4.12,9.1,7.73,13.8,11.42a.15.15,0,0,1,0,.22A.16.16,0,0,1,1709.14,411.25Z" transform="translate(25 57.14)"/><path class="cls-8" d="M1765.43,387.26a170.13,170.13,0,0,0,16.84-8.22c2.72-1.54,5.39-3.17,8-5a74.46,74.46,0,0,0,7.33-5.81.17.17,0,1,1,.23.25,60.28,60.28,0,0,1-7.29,6c-2.56,1.81-5.22,3.48-8,5a147.17,147.17,0,0,1-17,8,.16.16,0,0,1-.2-.09A.16.16,0,0,1,1765.43,387.26Z" transform="translate(25 57.14)"/><path class="cls-8" d="M1761.24,411.09a63.85,63.85,0,0,0,9.08-5.45,93.39,93.39,0,0,0,15.78-14.12,92.33,92.33,0,0,0,6.48-8.39.17.17,0,1,1,.28.18,75.91,75.91,0,0,1-6.4,8.53,86.54,86.54,0,0,1-7.49,7.59,88.6,88.6,0,0,1-8.38,6.59,57.73,57.73,0,0,1-9.23,5.35.14.14,0,0,1-.2-.08A.15.15,0,0,1,1761.24,411.09Z" transform="translate(25 57.14)"/><path class="cls-30" d="M1778.29,369.67a8.31,8.31,0,0,1-2.45,6.94,9.78,9.78,0,0,1-6.94,2.69,16.83,16.83,0,0,1-3.69-.41,5.52,5.52,0,0,1-3.29-2.09,9,9,0,0,1-1.87-7.14.39.39,0,0,1,.77.13v0a7.13,7.13,0,0,0,.37,3.32,8.67,8.67,0,0,0,1.62,2.93,4.47,4.47,0,0,0,2.66,1.63,15.82,15.82,0,0,0,3.42.35,8.8,8.8,0,0,0,6.16-2.24,8.21,8.21,0,0,0,1.91-2.74,6.47,6.47,0,0,0,.62-3.26v0a.35.35,0,0,1,.31-.4A.36.36,0,0,1,1778.29,369.67Z" transform="translate(25 57.14)"/><path class="cls-30" d="M1714.44,369.67a8.35,8.35,0,0,1-2.45,6.94,9.78,9.78,0,0,1-6.94,2.69,16.83,16.83,0,0,1-3.69-.41,5.49,5.49,0,0,1-3.29-2.09,9,9,0,0,1-1.87-7.14.38.38,0,0,1,.46-.31.38.38,0,0,1,.31.44v0a7.13,7.13,0,0,0,.37,3.32,8.65,8.65,0,0,0,1.61,2.93,4.52,4.52,0,0,0,2.67,1.63,15.82,15.82,0,0,0,3.42.35,8.8,8.8,0,0,0,6.16-2.24,8.21,8.21,0,0,0,1.91-2.74,6.47,6.47,0,0,0,.62-3.26v0a.35.35,0,0,1,.31-.4A.36.36,0,0,1,1714.44,369.67Z" transform="translate(25 57.14)"/><path class="cls-30" d="M1754.42,293.41c7.29-1.33,16.24,2,22.48,6,11.24,7.21,19.39,18.76,23.48,31.48s6.48,27.51,3.81,40.6c-37.46,4.72-79.1-13.29-101.36-43.78a114.4,114.4,0,0,0,12.4,29.76c-3.81,1.72-8.24-.08-11.87-2.15a78.2,78.2,0,0,1-18.81-15q-.29,16,.23,31.9a13.82,13.82,0,0,0-9-3.18c-7.63-16.73-5.45-37.12,4-52.88s25.63-27,43.27-32.15c5.81-1.71,27.63-2.12,31.37,9.34" transform="translate(25 57.14)"/></g></g></svg>