<svg xmlns="http://www.w3.org/2000/svg" viewBox="0 0 384.78 104.67"><defs><style>.cls-1{fill:#263238;}.cls-2,.cls-5{fill:#fff;}.cls-2,.cls-3,.cls-5{isolation:isolate;}.cls-2{opacity:0.8;}.cls-3{opacity:0.2;}.cls-4{fill:#407bff;}.cls-5{opacity:0.6;}</style></defs><g id="Car"><path class="cls-1" d="M295.51,271.83s5.68-5.93,11,2.08c0,0,4.43-14.16,20.45-9.6,0,0-8.86-24,13.52-30.21s32.77,5,32.77,5-2.41-19,17.49-21.36S414,234.1,414,234.1s15.36-10.45,22.9,2.52-1.07,20.07-1.07,20.07,11.29,8,4.16,20.78-26,7.47-26,7.47,0,7.12-9,10.8S379.64,281,379.64,281s-4.89,9.71-21.81,10.85-21-11.74-21-11.74-3.43,9.14-11.12,10.06-10.38-8.57-10.38-8.57-.22,8.25-7.37,8.57-9.46-10.06-9.46-10.06a11.38,11.38,0,0,1-4.81-1.39C291.65,277.47,295.51,271.83,295.51,271.83Z" transform="translate(-57.61 -203.14)"/><path class="cls-2" d="M295.51,271.83s5.68-5.93,11,2.08c0,0,4.43-14.16,20.45-9.6,0,0-8.86-24,13.52-30.21s32.77,5,32.77,5-2.41-19,17.49-21.36S414,234.1,414,234.1s15.36-10.45,22.9,2.52-1.07,20.07-1.07,20.07,11.29,8,4.16,20.78-26,7.47-26,7.47,0,7.12-9,10.8S379.64,281,379.64,281s-4.89,9.71-21.81,10.85-21-11.74-21-11.74-3.43,9.14-11.12,10.06-10.38-8.57-10.38-8.57-.22,8.25-7.37,8.57-9.46-10.06-9.46-10.06a11.38,11.38,0,0,1-4.81-1.39C291.65,277.47,295.51,271.83,295.51,271.83Z" transform="translate(-57.61 -203.14)"/><polygon class="cls-1" points="10.07 81.81 226.17 81.81 221.85 43.09 159.59 29.77 101.73 39.85 32.03 46.7 14.75 66.5 10.07 81.81"/><polygon class="cls-3" points="10.07 81.81 226.17 81.81 221.85 43.09 159.59 29.77 101.73 39.85 32.03 46.7 14.75 66.5 10.07 81.81"/><path class="cls-1" d="M127.82,284.94A22.87,22.87,0,1,1,105,262.08,22.87,22.87,0,0,1,127.82,284.94Z" transform="translate(-57.61 -203.14)"/><circle class="cls-3" cx="104.95" cy="284.94" r="15.3" transform="translate(-158.66 -141.29) rotate(-22.5)"/><path class="cls-1" d="M277.1,284.94a22.87,22.87,0,1,1-22.87-22.86A22.87,22.87,0,0,1,277.1,284.94Z" transform="translate(-57.61 -203.14)"/><circle class="cls-3" cx="254.23" cy="284.94" r="15.3" transform="translate(-184.63 60.09) rotate(-45)"/><path class="cls-4" d="M298.54,264.59,296,282.47,282,286.91s-.36-30.22-31-30.22-26.65,36-26.65,36H219l-10.09-4.33H142.88l-5.75,4.33h-3.89s3.24-36-28.3-36-27.52,36-27.52,36l-18-7.76-1.78-18.16,7.54-4.7,1.82-11c.8-.62,1.64-1.21,2.47-1.75,21.09-14.13,49.92-16,49.92-16,24.8-25.23,34.85-28.8,34.85-28.8,56.91-4,111.2,2.15,111.2,2.15L282,227.85l3.9,3.17,4,3.31a90,90,0,0,1,1.78,22.36Z" transform="translate(-57.61 -203.14)"/><path class="cls-5" d="M85.1,250.54,72.47,262.08H65.15l1.82-11c.8-.62,1.64-1.21,2.47-1.75l9.18-1.39Z" transform="translate(-57.61 -203.14)"/><path class="cls-5" d="M291.69,256.69,287.11,255c0-9.58-5.76-19.19-5.76-19.19l4.52-4.77,4,3.31A90,90,0,0,1,291.69,256.69Z" transform="translate(-57.61 -203.14)"/><path class="cls-1" d="M282,227.85c-30,7.18-162.61,5.43-162.61,5.43.77-.77,1.5-1.53,2.26-2.26,13.65-13.69,22.54-20.46,27.53-23.7a25.74,25.74,0,0,1,5.06-2.84c56.91-4,111.2,2.15,111.2,2.15Z" transform="translate(-57.61 -203.14)"/><path class="cls-5" d="M155.34,207.32,133.71,231H121.62c13.65-13.69,22.54-20.46,27.53-23.7Z" transform="translate(-57.61 -203.14)"/><polygon class="cls-5" points="82.21 27.88 101.3 4.17 129.74 4.17 127.58 27.88 82.21 27.88"/><path class="cls-5" d="M192,231l2.53-23.71h39.25l6.84,21.5S216.88,231,192,231Z" transform="translate(-57.61 -203.14)"/><path class="cls-5" d="M238.42,207.31l7.27,20.92s23.05-1.44,26.29-2.88l-9.66-13c-1.65-2.22-4.29-3.12-7-3.54A125.1,125.1,0,0,0,238.42,207.31Z" transform="translate(-57.61 -203.14)"/><path class="cls-3" d="M298.54,264.59,296,282.47,282,286.91s-.36-30.22-31-30.22-26.65,36-26.65,36H219l-10.09-4.33H142.88l-5.75,4.33h-3.89s3.24-36-28.3-36-27.52,36-27.52,36l-18-7.76-1.78-18.16H72.47a41.51,41.51,0,0,1,34.59-17.66c23.77,0,31.42,17.66,31.42,17.66h76.24s13-17.92,32-18.87S277.09,255,277.09,255h10l4.58,1.71Z" transform="translate(-57.61 -203.14)"/></g></svg>