<svg xmlns="http://www.w3.org/2000/svg" viewBox="0 0 500 500.04"><defs><style>.cls-1{fill:#fff;}.cls-2{fill:#3449f3;}.cls-3{fill:#603527;}.cls-4{fill:#7d4937;}.cls-5{fill:#6e3530;}.cls-6{fill:#dd6ca8;}.cls-7{fill:#bb4765;}.cls-8{fill:#ff9ed2;}.cls-9{fill:#efc53d;}.cls-10{fill:#090929;}.cls-11{fill:#161fde;}.cls-12{fill:#e9a82b;}.cls-13{fill:#ab80fb;}</style></defs><g id="BACKGROUND"><rect class="cls-1" width="500" height="500"/></g><g id="OBJECTS"><path class="cls-2" d="M350.34,151.06a48.59,48.59,0,0,0-49.51-75.65,41.38,41.38,0,0,0-29.42-22c-22.51-4.14-42.63,11.64-46.78,34.15l.8,1.63A28.62,28.62,0,0,0,208,132.4a40.06,40.06,0,0,0-35.09,39.75c0,22.12,19.17,32.76,40.06,40.06,18.19,6.36,85.92,26.5,85.92,26.5,26.39,4.87,61.39-16.76,66.25-43.15A48.54,48.54,0,0,0,350.34,151.06Z"/><path class="cls-3" d="M89.9,165.39c-13.7-6.64-29.9-3.86-29.9-3.86s-23.92-3.47-24.9.32C33,170,51.61,177.74,51.61,177.74Z"/><path class="cls-4" d="M68.1,185.45c-22-.25-34.1-9.37-35.84-17.19-.86-3.87,2.49-6.55,4.8-2.26,2,3.68,8,7.89,8.55,7.82-3-2.56-6.9-6.33-7.94-9.46-1.76-5.31-1-10.88,2.57-12.34,1.4-.58,2.27,1,2.27,1s.39-4.75,3.54-4.51c4.26.32,4.32,6.21,4.32,6.21s-.73-4.82,3.22-4.49c2.81.23,3.46,4.76,4.89,9,1.76,5.32,13.81,6.46,16,5.55s11.75-3.32,18.13,2.42c12.13,10.93,27.68,69.21,27.68,69.21L85,262.63Z"/><path class="cls-5" d="M50.83,171.34a.44.44,0,0,1-.22-.05,19.89,19.89,0,0,1-8.1-7.69C41.29,161.25,42,153.35,42,153a.48.48,0,0,1,.54-.45.5.5,0,0,1,.46.54c-.2,2.2-.52,8.3.38,10A19.23,19.23,0,0,0,51,170.39a.5.5,0,0,1,.24.67A.49.49,0,0,1,50.83,171.34Z"/><path class="cls-5" d="M58.9,169a.54.54,0,0,1-.21,0,19.88,19.88,0,0,1-8.11-7.7c-1.23-2.35-.73-6.34-.71-6.51a.51.51,0,0,1,.56-.43.5.5,0,0,1,.43.56s-.47,3.85.61,5.92A19.11,19.11,0,0,0,59.12,168a.5.5,0,0,1-.22.95Z"/><path class="cls-6" d="M381.72,247.5c-19.84-14.47-60.33-60.67-87.22-63.05a241.89,241.89,0,0,0-33.72-8.72c-20.47-3.66-43.88-3.13-47.71-3h0c-32.29-5.66-82.87,78.89-82.87,78.89s-9.46-39.15-19.35-48.69c0,0,3.89-8.06,1-9.54S73.42,200.3,68,203.1c-5,2.61,3.69,11.26,3.69,11.26S76,278.2,102,301.45c30.27,27.05,50.6,6.24,77.12-30.92.46,28,6.06,73.9,19.67,75.51,24.37,2.9,78.3,3.13,104.09.67,8.79-.84,17.37-44.47,20.24-67.7,27.86,23,61.83,37.85,73.4,31.64C410.44,303.18,405.52,264.86,381.72,247.5Z"/><path class="cls-7" d="M179.14,271a.5.5,0,0,1-.49-.4c-6.2-33.3,10.79-55,11-55.18a.49.49,0,0,1,.7-.07.5.5,0,0,1,.08.7c-.17.21-16.87,21.54-10.76,54.36a.51.51,0,0,1-.41.59Z"/><path class="cls-7" d="M323.13,279.51a.56.56,0,0,1-.31-.11,31.58,31.58,0,0,1-7.58-8.63.5.5,0,0,1,.88-.48,31,31,0,0,0,7.33,8.33.5.5,0,0,1,.08.7A.53.53,0,0,1,323.13,279.51Z"/><path class="cls-7" d="M376.21,243.15s-6.13,31.25-1.74,40,9.14-34.46,9.14-34.46Z"/><path class="cls-7" d="M130.15,251.6s5.81,17.86,6,23c0,0,3.34-20.7-2.12-29.25Z"/><path class="cls-7" d="M73.75,213.51a.5.5,0,0,1-.32-.88,20.65,20.65,0,0,1,4.46-2.51.5.5,0,0,1,.67.24.51.51,0,0,1-.25.67,21,21,0,0,0-4.24,2.37A.54.54,0,0,1,73.75,213.51Zm9-4.27a.5.5,0,0,1-.16-1c1.5-.52,3.11-1,4.81-1.47a.49.49,0,0,1,.61.35.5.5,0,0,1-.35.61c-1.67.46-3.27.94-4.75,1.45A.45.45,0,0,1,82.75,209.24Zm9.63-2.65a.5.5,0,0,1-.49-.39.5.5,0,0,1,.38-.59c1.58-.35,3.24-.67,4.93-1a.5.5,0,0,1,.58.4.51.51,0,0,1-.41.58c-1.68.3-3.32.62-4.88,1Zm9.84-1.74a.5.5,0,0,1-.49-.43.49.49,0,0,1,.42-.56c1.62-.23,3.29-.44,5-.63a.5.5,0,0,1,.11,1c-1.68.18-3.34.39-4.95.62Z"/><rect class="cls-8" x="213.1" y="324.94" width="12.44" height="2.8" transform="translate(-65.45 55.22) rotate(-12.5)"/><rect class="cls-8" x="281.99" y="248.6" width="12.44" height="2.8" transform="translate(-47.28 68.31) rotate(-12.5)"/><rect class="cls-8" x="338.3" y="273.25" width="12.44" height="2.8" transform="translate(-51.28 81.08) rotate(-12.5)"/><rect class="cls-8" x="296.08" y="331.75" width="12.44" height="2.8" transform="translate(-64.95 73.33) rotate(-12.5)"/><rect class="cls-8" x="255.41" y="242.71" width="2.8" height="12.44" transform="translate(-23.98 27.4) rotate(-5.84)"/><rect class="cls-8" x="121.32" y="256.41" width="2.8" height="12.44" transform="translate(-26.07 13.84) rotate(-5.84)"/><rect class="cls-8" x="270.7" y="217.27" width="12.44" height="2.8" transform="translate(-69.72 284.55) rotate(-49.06)"/><rect class="cls-8" x="296.08" y="204.18" width="12.44" height="2.8" transform="translate(-5.11 7.73) rotate(-1.45)"/><rect class="cls-8" x="215.27" y="276.83" width="12.44" height="2.8" transform="translate(-60.94 494.34) rotate(-88.9)"/><rect class="cls-8" x="190.53" y="304.15" width="2.8" height="12.44" transform="translate(-146.69 174.36) rotate(-36.38)"/><rect class="cls-8" x="93.31" y="222.03" width="2.8" height="12.44" transform="translate(-151.02 254.38) rotate(-73.53)"/><rect class="cls-8" x="255.41" y="322.32" width="2.8" height="12.44" transform="translate(-144.82 216.37) rotate(-36.38)"/><rect class="cls-8" x="231.85" y="299.54" width="12.44" height="2.8" transform="translate(-135.38 212.75) rotate(-38.37)"/><rect class="cls-8" x="218.67" y="236.38" width="2.8" height="12.44" transform="translate(-106.97 224.52) rotate(-44.62)"/><rect class="cls-8" x="150.41" y="246.61" width="12.44" height="2.8" transform="matrix(0.98, -0.2, 0.2, 0.98, -47.2, 37.07)"/><rect class="cls-8" x="233.06" y="204.18" width="12.44" height="2.8" transform="matrix(0.97, -0.26, 0.26, 0.97, -45.13, 69.09)"/><rect class="cls-8" x="319.64" y="230.22" width="2.8" height="12.44" transform="translate(-73.54 293.66) rotate(-44.62)"/><rect class="cls-8" x="181.82" y="186.64" width="2.8" height="10.31" transform="translate(-81.91 183.99) rotate(-44.62)"/><rect class="cls-8" x="305.02" y="282.44" width="2.8" height="12.44" transform="translate(-50.68 65.74) rotate(-11.32)"/><rect class="cls-8" x="362" y="243.78" width="2.8" height="12.44" transform="translate(-41.99 76.17) rotate(-11.32)"/><rect class="cls-8" x="251.96" y="272.79" width="2.8" height="12.44" transform="matrix(0.06, -1, 1, 0.06, -41.11, 514.22)"/><rect class="cls-8" x="85.63" y="267.37" width="12.44" height="2.8" transform="translate(-161.42 140.2) rotate(-44.22)"/><rect class="cls-8" x="190.08" y="255.23" width="12.44" height="2.8" transform="translate(-95.68 118.28) rotate(-27.23)"/><rect class="cls-8" x="127.54" y="294.73" width="2.8" height="12.44" transform="translate(-188.29 381.93) rotate(-81.13)"/><polygon class="cls-8" points="201.86 294.24 199.58 292.26 202.4 284.3 205.04 285.23 201.86 294.24"/><rect class="cls-8" x="185.72" y="226.56" width="12.44" height="2.8" transform="translate(-98.88 293.01) rotate(-62.51)"/><rect class="cls-8" x="279.27" y="307.49" width="12.44" height="2.8" transform="translate(-120.29 419.59) rotate(-62.51)"/><rect class="cls-8" x="152.75" y="279.53" width="12.44" height="2.8" transform="translate(-163.62 292.3) rotate(-62.51)"/><polygon class="cls-8" points="184.92 283.63 185.15 286.54 180.03 288.65 179.8 285.54 184.92 283.63"/><path class="cls-9" d="M211.47,117.64a6.15,6.15,0,1,0,7.47-4.45A6.14,6.14,0,0,0,211.47,117.64Z"/><path class="cls-4" d="M274.68,178.7l1.48-44.57L241.7,142l-4.45,31.12s-6.73-.31-15.77-.48c19.13,26.36,57.38,19.38,66.84,9.83C283.55,180.8,274.68,178.7,274.68,178.7Z"/><path class="cls-3" d="M267.81,146.81s-11.95,20.69-28.54,12.07L241.7,142Z"/><circle class="cls-4" cx="256.81" cy="113.45" r="40.86" transform="translate(130.42 364.15) rotate(-87.08)"/><path class="cls-10" d="M262.22,107.29a3.27,3.27,0,1,0,4-2.37A3.27,3.27,0,0,0,262.22,107.29Z"/><path class="cls-5" d="M246.06,118l-.12,0a3.77,3.77,0,1,1,1.86-7.31.51.51,0,0,1,.36.61.52.52,0,0,1-.61.36,2.77,2.77,0,1,0-1.36,5.37.5.5,0,0,1-.13,1Z"/><path class="cls-10" d="M230.67,99.28a3.28,3.28,0,1,0,4-2.37A3.29,3.29,0,0,0,230.67,99.28Z"/><path class="cls-5" d="M241.27,137a.52.52,0,0,1-.33-.12.51.51,0,0,1-.05-.71c.07-.08,7.51-8.51,21.4-3.27a.5.5,0,1,1-.35.94c-13.21-5-20,2.66-20.29,3A.52.52,0,0,1,241.27,137Z"/><path class="cls-2" d="M266.87,73.85s3.57,36.7,30.72,42.42C297.59,116.27,308.58,80.87,266.87,73.85Z"/><path class="cls-2" d="M266.87,73.85S248.8,94.76,226,85.43C226,85.43,239.63,61.81,266.87,73.85Z"/><path class="cls-1" d="M253.36,104.78A1.49,1.49,0,0,1,252,104a3.4,3.4,0,0,0-1.86-1.63c-.2,0-.81-.18-1.83.62a1.5,1.5,0,0,1-1.84-2.38,5.11,5.11,0,0,1,4.33-1.17,6.39,6.39,0,0,1,3.86,3.18,1.5,1.5,0,0,1-.64,2A1.56,1.56,0,0,1,253.36,104.78Z"/><path class="cls-1" d="M293,120.5a1.57,1.57,0,0,1-.72-.18l-15.05-8.15a1.5,1.5,0,0,1,1.43-2.64l15.05,8.15a1.5,1.5,0,0,1-.71,2.82Z"/><path class="cls-1" d="M265.39,122.44a14.35,14.35,0,0,1-13.91-17.88h0a14.35,14.35,0,1,1,13.91,17.88Zm0-25.69a11.37,11.37,0,0,0-11,8.55h0a11.35,11.35,0,1,0,13.79-8.2A11.17,11.17,0,0,0,265.39,96.75Zm-12.45,8.18h0Z"/><path class="cls-1" d="M233.84,114.44a14.38,14.38,0,0,1-13.9-17.88h0a14.35,14.35,0,1,1,13.9,17.88Zm0-25.7a11.36,11.36,0,0,0-11,8.55h0a11.34,11.34,0,1,0,13.79-8.2A11.17,11.17,0,0,0,233.85,88.74Zm-12.46,8.19h0Z"/><path class="cls-4" d="M288.92,134.53s1.69,4.91,11.74,5.75c18.74,1.55,18.12-21.8,8.1-25.88S289,123.2,289,123.2Z"/><path class="cls-5" d="M295.3,128.42a.51.51,0,0,1-.45-.27.5.5,0,0,1,.23-.67L306.2,122a.5.5,0,0,1,.45.9l-11.13,5.52A.44.44,0,0,1,295.3,128.42Z"/><path class="cls-9" d="M294.7,138.76a6.15,6.15,0,1,0,7.47-4.44A6.15,6.15,0,0,0,294.7,138.76Z"/><path class="cls-11" d="M253.05,75.65c-.57,2.51-2.6,7.86-4,9.16-1.15,1.07-14.45,4.36-21.26-.22s-7.72-8.06-7.72-8.06C220,75.81,234.58,78.56,253.05,75.65Z"/><path class="cls-11" d="M266.18,82.43c1.92-1.71,6.69-4.89,8.58-5.13,1.56-.21,14.29,4.85,17.18,12.53s1.59,11,1.59,11C293.18,101.52,282.9,90.79,266.18,82.43Z"/><path class="cls-9" d="M354.3,500c-2.48-34.37-1.66-92-56.84-140.95,0,0,14.82-7.05,10.19-12.34-4.44-5.06-29.87.08-57.76,0-24.17-.06-51-6.34-57.59,1.69-4.25,5.17,7.12,10.65,7.12,10.65-35.61,26.3-62,107-67.7,141l107.33,0,9.81-42.25L247.69,500Z"/><path class="cls-12" d="M336.73,414.35c-4.49,0-18.52-5.12-49-54.74a.5.5,0,0,1,.86-.52c36.72,59.88,49.14,54.12,49.26,54.05a.51.51,0,0,1,.68.2.49.49,0,0,1-.18.67A3.36,3.36,0,0,1,336.73,414.35Z"/><path class="cls-12" d="M166.61,417.1a17.79,17.79,0,0,1-7.87-1.6.49.49,0,0,1-.21-.67.5.5,0,0,1,.67-.21c.07,0,6.75,3.43,16.38-.28,10.31-4,25.58-16.75,39.77-55.16a.5.5,0,1,1,.94.34c-14.34,38.8-29.88,51.75-40.39,55.77A25.88,25.88,0,0,1,166.61,417.1Z"/><path class="cls-12" d="M252.22,411.32h-.05a10.5,10.5,0,0,1-7.7-4.52c-9.07-12.38-2.22-45.56-1.92-47a.5.5,0,0,1,1,.2c-.07.35-7.06,34.16,1.74,46.18a9.64,9.64,0,0,0,6.53,4.06L259.06,359a.5.5,0,0,1,1,.14l-7.34,51.77A.51.51,0,0,1,252.22,411.32Z"/><path class="cls-12" d="M295.2,359.55h-93a.5.5,0,0,1-.5-.5.5.5,0,0,1,.5-.5h93a.5.5,0,0,1,.5.5A.5.5,0,0,1,295.2,359.55Z"/><path class="cls-12" d="M248.86,458.27a.45.45,0,0,1-.16,0l-8.54-2.9a.5.5,0,0,1-.32-.63.51.51,0,0,1,.64-.31l8.4,2.84,10.55-2.85a.5.5,0,1,1,.26,1l-10.7,2.9Z"/><path class="cls-3" d="M411.1,187.83c12.72-8.36,29.15-7.72,29.15-7.72s23.26-6.56,24.73-2.92c3.16,7.82-14.3,17.9-14.3,17.9Z"/><path class="cls-4" d="M435.32,204.88c21.75-3.1,32.59-13.73,33.3-21.7.35-4-3.31-6.17-5.05-1.62-1.48,3.91-6.87,8.85-7.46,8.87,2.66-2.94,6-7.18,6.64-10.41,1.05-5.5-.44-10.92-4.15-11.91-1.47-.39-2.12,1.32-2.12,1.32s-1-4.65-4.1-4c-4.18.87-3.47,6.72-3.47,6.72s.1-4.87-3.78-4c-2.76.59-2.81,5.16-3.67,9.61-1,5.5-12.85,8.19-15.17,7.59s-12.09-1.77-17.66,4.76c-10.6,12.41-25.95,78.16-25.95,78.16l37.76,10Z"/><path class="cls-5" d="M450.55,188.65a.5.5,0,0,1-.42-.22.51.51,0,0,1,.15-.7,19.2,19.2,0,0,0,6.64-8.18c.67-1.84-.44-7.85-.93-10a.49.49,0,0,1,.38-.59.48.48,0,0,1,.6.37c.07.33,1.79,8.08.89,10.57a20.06,20.06,0,0,1-7,8.68A.45.45,0,0,1,450.55,188.65Z"/><path class="cls-5" d="M442.23,187.33a.51.51,0,0,1-.42-.23.5.5,0,0,1,.15-.69,19.22,19.22,0,0,0,6.64-8.19c.8-2.2-.16-5.91-.17-5.95a.5.5,0,1,1,1-.25c.05.16,1.06,4,.15,6.54a19.89,19.89,0,0,1-7,8.69A.43.43,0,0,1,442.23,187.33Z"/><path class="cls-6" d="M436.1,229.44s-15.15,82.12-45,83.47c-46.34,2.09,6.73-99.07,6.73-99.07s-3.68-7.44-1.86-8.74c7.43-5.28,37.26,8.16,45.85,16.28C444.29,223.7,436.1,229.44,436.1,229.44Z"/><path class="cls-7" d="M402.31,215h-.08c-1.53-.25-2.43-.34-2.44-.34a.49.49,0,0,1-.45-.54.48.48,0,0,1,.54-.45s.94.09,2.51.34a.5.5,0,0,1-.08,1Z"/><path class="cls-7" d="M429,224.58a.48.48,0,0,1-.26-.07c-1.32-.81-2.7-1.58-4.12-2.3a.51.51,0,0,1-.21-.68.49.49,0,0,1,.67-.21c1.44.73,2.84,1.52,4.18,2.33a.51.51,0,0,1,.17.69A.5.5,0,0,1,429,224.58Zm-8.46-4.33a.65.65,0,0,1-.19,0c-1.42-.61-2.9-1.19-4.4-1.72a.5.5,0,1,1,.33-.94c1.52.54,3,1.12,4.46,1.74a.5.5,0,0,1-.2,1Zm-8.95-3.19a.32.32,0,0,1-.14,0c-1.51-.43-3.05-.83-4.58-1.18a.5.5,0,0,1-.38-.6.49.49,0,0,1,.6-.37c1.55.35,3.1.75,4.64,1.19a.5.5,0,0,1-.14,1Z"/><path class="cls-7" d="M434.93,228.75a.45.45,0,0,1-.31-.11c-.65-.52-1.3-1-2-1.51a.5.5,0,1,1,.6-.8c.67.49,1.34,1,2,1.53a.52.52,0,0,1,.07.71A.5.5,0,0,1,434.93,228.75Z"/><rect class="cls-8" x="413.03" y="227.73" width="2.8" height="12.44" transform="translate(883.19 151.77) rotate(140.61)"/><rect class="cls-8" x="409.7" y="268.56" width="2.81" height="12.42" transform="translate(-9.95 534.04) rotate(-65.38)"/><rect class="cls-8" x="389.11" y="246.46" width="2.81" height="12.42" transform="matrix(0.85, 0.53, -0.53, 0.85, 191.63, -167.79)"/><rect class="cls-8" x="386.65" y="291.43" width="2.8" height="12.44" transform="translate(235.01 762.15) rotate(-109.25)"/><path class="cls-9" d="M289.87,180a1.51,1.51,0,0,0-1.9.94c-.13.4-12.77,37.27-36.57,41.92a6.17,6.17,0,0,0-11.5-.52c-21.3-7.08-20.33-49.42-20.32-49.88a1.5,1.5,0,0,0-3-.09c-.06,2-1.05,45.85,22.82,53a6.17,6.17,0,0,0,12.23.52c25.69-4.61,38.61-42.26,39.19-44A1.5,1.5,0,0,0,289.87,180Z"/><path class="cls-13" d="M389.43,144.34c5.86-1.63,15.44,7.75,15.86,13.56-.17,5.27-10.32,17.17-16.93,13.41-6.39-3.63-16.31-13.16-7.25-20.5C384,148,385.67,145.51,389.43,144.34Zm16.93-16.66c7.9-9.23,16.3-2.59,25.25-.69,8.52.79,13.78-10.34,6.4-16-7.46-7.73-10.36-2.33-17.55-1-8.1-.34-14.2-18.54-4.91-20.72,19.39-11.73,47.19,6.08,46.64,28.16,1.22,21.67-23,36.57-41,26.18-4.25,5.56-9.48,3.34-13.85-1.4C401.91,137.62,400.76,132.26,406.36,127.68Z"/><path class="cls-13" d="M114.06,79.88c-.3,6.08-12.21,12.23-17.85,10.8-5-1.81-13.06-15.19-7.42-20.28,5.46-4.93,17.62-11.35,21.74-.45C112.33,73.62,114.13,76,114.06,79.88Zm10.5,21.31c6.28,10.4-2.66,16.29-7.28,24.19-3.42,7.84,5.49,16.33,13.22,11.12,9.68-4.66,5.46-9.11,6.48-16.35,1.61-6.53,18-7.05,20.05-2.12,9.24,22.87-17.94,47.51-40.23,39.4-21-5.65-27.5-33.28-12-47.17-3.94-5.77-.2-10.05,5.68-12.7C116.52,93.84,122,94.43,124.56,101.19Z"/></g></svg>