<?xml version="1.0" encoding="utf-8"?>
<!-- Generator: Adobe Illustrator 28.1.0, SVG Export Plug-In . SVG Version: 6.00 Build 0)  -->
<svg version="1.1" xmlns="http://www.w3.org/2000/svg" xmlns:xlink="http://www.w3.org/1999/xlink" x="0px" y="0px"
	 viewBox="0 0 1080 500" style="enable-background:new 0 0 1080 500;" xml:space="preserve">
<style type="text/css">
	.st0{fill:#9E9E9E;}
	.st1{fill:#263238;}
	.st2{fill:#3D4C31;}
	.st3{fill:#FF7373;}
	.st4{opacity:0.54;fill:#FFFFFF;}
	.st5{fill:#FFFFFF;}
	.st6{display:none;}
	.st7{display:inline;}
	.st8{opacity:0.54;fill:#FFFFFF;enable-background:new    ;}
	.st9{display:inline;fill:#263238;}
</style>
<g id="Lager_3">
	<rect class="st0" width="1080" height="500"/>
</g>
<g id="Lager_1">
	<path class="st1" d="M373.7,132.2H-189l2.4-2.7c2.7-4.1,31.5-7.1,56.6-7.1c1,0,1.7-0.7,2.4-1c0.3-0.3,21-18.6,41.7-32.9
		c18-13.2,43.1,11.5,43.1,11.5l0.3,0.3c1.7,1,4.1,0.7,5.1-1C-37,99-9.9,61,17.9,49.8C45.7,38.2,80,64,80.3,64
		c0.7,0.7,1.7,0.7,2.7,0.7c1,0,2-0.7,2.4-1.4c0.3-0.7,32.9-46.8,84.8-58.3C220.8-6.5,273.3,86.1,274,87.1c1,1.7,3,2.4,4.8,1.4
		c15.6-6.1,32.2-8.1,48.8-5.8C352,84.7,368.6,119.3,373.7,132.2z"/>
	<g id="freepik--plants-1--inject-50">
		<path class="st2" d="M52.9,499.3h0.6l-1.2-1.3v-0.2l1.5,1.5h28.8l6.5-13.9c1.2-0.2,2.4-0.4,3.6-0.8c4-1.1,7-4.5,10.6-10.2
			c-2.1,0-5.9,0.3-9.3,0.6l0,0c-2.3,0.3-4.7,0.3-7-0.2c-2.5-1.1,11.8-1.9,17.9-2.8c1-1.7,2.1-3.7,3.3-5.8c-6.5-0.4-15.4-0.8-17-1.1
			c-2.7-0.6,2.1-1.5,7.2-2.1c3.5-0.5,9.4-1.8,13.2-2.7c1-1.7,2.1-3.4,3.1-5.1c-4.7,0-15,1.1-12.4-0.2c3-1.5,10.9-1.8,14.5-2.8
			c1.1-1.6,2.3-3.2,3.5-4.7c-4.9,0.3-13.3,0.7-13.5,0.3s13.3-3,16-3.5c1.1-1.3,2.1-2.6,3.1-3.7c-2.4-0.4-4.8-0.7-7.2-0.9
			c-1.8,0,7.1-2.6,11.5-3.8c1.2-1.3,2.1-2.3,2.7-2.8c0.6-0.5,0.8-1,0.7-1.3c0.2-0.1,0.3-0.3,0.2-0.4l0,0c-0.1-0.2-0.3-0.3-0.5-0.2
			l0,0l-0.4,0.2c-1.9-0.4-3.8-0.4-5.7,0c-2.1,1.6-9.4,7.3-9,6.2s5-3.9,5.9-5.8c-1.8,0.3-3.9,0.7-6.4,1.2c-2.8,1.7-5.3,6.4-6.5,7.2
			s0.8-3.7,1.3-5.9c-0.8,0.3-1.7,0.5-2.6,0.8c-1.7,1.4-3.1,3.2-3.9,5.3c-0.3,2.3-2.3,7.9-2.7,5.7c-0.3-1.5,0.9-6.7,1-8.8l-1.9,0.9
			c-1.8,1.5-3.2,3.4-4.2,5.5c-2.7,4.9-2.4,7.9-3.4,10c-0.9,2.1-0.9-7.9-1.1-10.5c0-0.1,0-0.2,0-0.3c-1.9,1.1-3.8,2.3-5.6,3.5
			c-1.2,5.6,0.6,14.6,0,16.1c-0.6,1.4-3.4-5.9-3.7-10.6c0-0.8-0.3-1.7-0.7-2.4l-1.8,1.4c2.4-8.2,7.4-15.3,14.4-20.1l-13,8.5
			l4.7-11.4c3,0,6.1-0.3,9-1c3-0.9,5.2-3.4,7.8-7.6c-3.2,0-10.5,1-12.1,0.3c-1.6-0.8,8.7-1.4,13.2-2.1c0.8-1.3,1.5-2.7,2.4-4.2
			c-4.8-0.3-11.4-0.6-12.6-0.8c-2-0.4,1.7-1.1,5.3-1.6c2.6-0.3,7-1.3,9.8-2c0.7-1.3,1.5-2.5,2.3-3.8c-3.5,0-11.1,0.8-9.2-0.1
			c1.9-1,8.1-1.3,10.6-2.1c0.9-1.2,1.7-2.4,2.6-3.5c-3.3,0.3-6.6,0.4-10,0.2c3.9-1.1,7.9-2,11.9-2.6c0.8-1,1.6-1.9,2.3-2.8
			c-1.8-0.3-3.5-0.6-5.3-0.7c-1.4,0,5.3-1.9,8.5-2.8c0.9-1,1.6-1.7,2-2.1c0.4-0.4,0.6-0.7,0.5-1c0.1,0,0.2-0.2,0.2-0.3l0,0
			c-0.1-0.1-0.2-0.2-0.4-0.1l0,0l-0.3,0.1c-1.4-0.3-2.8-0.3-4.2,0c-1.5,1.2-7,5.4-6.7,4.6s3.7-2.9,4.4-4.2c-1.3,0.2-2.9,0.5-4.7,0.9
			c-2.1,1.2-3.9,4.7-4.8,5.3c-0.9,0.7,0.6-2.8,1-4.4l-1.9,0.6c-1.3,1-2.3,2.4-2.9,3.9c-0.2,1.7-1.7,5.9-2.1,4.2
			c0.1-2.2,0.4-4.4,0.8-6.5l-1.4,0.6c-1.4,1.1-2.4,2.5-3.2,4c-1,2.4-1.7,4.9-2.1,7.5c-0.7,1.6-0.7-5.9-0.8-7.8c0-0.1,0-0.1,0-0.2
			c-1.4,0.8-2.8,1.7-4.1,2.6c-0.9,4.2,0.5,10.8,0,11.9s-2.5-4.4-2.8-7.9c0-0.6-0.2-1.2-0.5-1.8c-1.3,1-2.5,2-3.6,3
			c-0.3,3.3,0.1,6.6,1.2,9.7c0.7,1.8,1.1,3.7,1.2,5.6l-0.2,0.3c-0.1,0-0.3-0.2-0.5-0.6c-1.7-4.1-3-8.4-4-12.7
			c-1.4,1.3-2.3,3-2.6,4.8c0.3,4.9,1.2,9.8,2.8,14.4l-8.5,11.2l5.9-54.1l-15,59.6l-9-29.6l3,26.6c-0.2-0.7-0.5-1.5-0.7-2.3
			c-0.6,0.7-1.3,1.8-2.1,2.9l-0.9-1.3c0.9-1.3,1.7-2.6,2.3-3.6c-0.5-1.4-1.1-2.9-1.8-4.6c-3.2,3.6-7.6,8.5-8.5,9.3
			c-1.5,1.3,0.1-2,2.1-5.1c1.4-2.3,3.3-6.4,4.6-8.9c-0.6-1.4-1-2.8-1.5-4.2c-2.1,2.7-6.4,9.2-5.9,7.1c0.5-2.1,4-7.1,5.1-9.7
			c-0.4-1.4-0.8-2.8-1.1-4.2c-1.8,2.8-3.9,5.4-6.1,7.9c-0.4-0.1,4.4-9,5.4-10.9c-0.3-1.3-0.5-2.4-0.7-3.5c-1.4,1.2-2.6,2.4-3.8,3.7
			c-0.8,1.1,1.8-5.3,3.1-8.4c-0.2-1.3-0.3-2.3-0.3-2.8s-0.2-0.9-0.4-1c0-0.1-0.1-0.3-0.2-0.3s-0.3,0-0.3,0.1l0,0v0.3
			c-1.1,0.9-2,2.1-2.6,3.3c0,1.9-0.1,8.8-0.6,8.1c-0.4-0.7,0-4.7-0.6-6.1c-0.7,1.2-1.4,2.6-2.3,4.2c-0.3,2.4,1.2,6,1.1,7.1
			s-1.8-2.1-2.8-3.5c-0.2,0.6-0.5,1.2-0.7,1.9c0,1.7,0.4,3.3,1.3,4.7c1.2,1.3,3.5,5,2.1,4.2c-1.6-1.5-3.2-3-4.6-4.7
			c-0.1,0.5-0.3,1-0.4,1.5c0,1.7,0.4,3.5,1.1,5c1.2,2.4,2.6,4.6,4.2,6.6c0.8,1.5-5-3.1-6.6-4.2l-0.2-0.1c-0.2,1.6-0.4,3.3-0.6,4.9
			c2.7,3.3,8.7,6.4,9.3,7.4c0.6,1-5-0.8-7.8-2.8c-0.5-0.4-1.1-0.6-1.7-0.7c-0.1,1.5-0.1,3.1,0,4.6c2.4,2.2,5.2,3.9,8.3,5
			c4.1,1.7,6.8,3.2,4.5,2.9c-4.3-1.3-8.6-2.9-12.6-4.8c0.1,1.9,0.9,3.6,2.1,5c4,3.4,12.7,6.8,15.1,7.7c0,0.2,0.2,0.4,0.3,0.6
			l1.3,16.8l-12-9.5l15,26.8l-4.2-0.3c0.1-0.4,0.2-0.9,0.2-1.3c0.3-2.4-0.9-4.7-3.1-7.8c-1,2.3-2.3,7.8-3.3,8.7h-0.3
			c0.7-3.4,1.6-6.7,2.6-10c-0.7-0.9-1.5-1.9-2.3-3c-1.6,3.4-3.7,8-4.2,8.7c-0.9,1.3-0.3-1.5,0.4-4.2c0.5-2,1.1-5.4,1.4-7.5
			c-0.7-0.9-1.4-1.8-2.1-2.8c-1.1,2.5-2.8,8.2-2.8,6.5s1.4-6.1,1.6-8.2c-0.6-1-1.2-1.9-1.7-2.9c-0.7,2.5-1.7,4.9-2.8,7.2
			c0.3-3.1,0.9-6.2,1.6-9.2c-0.5-0.8-0.9-1.7-1.3-2.5c-0.7,1.2-1.4,2.4-2,3.6c-0.4,1,0.2-4.2,0.4-6.9c-0.4-0.9-0.7-1.6-0.9-2
			c-0.1-0.4-0.3-0.6-0.6-0.7c0-0.1-0.1-0.2-0.2-0.2s-0.2,0.1-0.2,0.2l0,0v0.3c-0.6,0.9-1,2-1.2,3c0.4,1.4,1.8,6.6,1.3,6.1
			c-0.5-0.4-1-3.5-1.8-4.4c-0.2,1-0.5,2.2-0.8,3.6c0.6,1.7,1.4,3.4,2.4,5c0.2,0.6-1.8-1.2-2.9-2c0,0.5,0,1-0.1,1.5
			c0.4,1.2,1.1,2.3,2,3.2c1.2,0.6,3.7,2.9,2.4,2.7c-1.5-0.7-3-1.5-4.4-2.4v1.2c0.4,1.3,1,2.5,1.9,3.4c1.4,1.5,2.9,2.8,4.6,3.9
			c0.9,1-4.4-1.2-5.8-1.7h-0.2c0.2,1.3,0.4,2.5,0.7,3.7c2.7,1.8,7.9,2.8,8.5,3.4c0.6,0.6-3.8,0.5-6.4-0.3c-0.4-0.2-0.9-0.2-1.4-0.1
			c0.3,1.2,0.7,2.4,1.1,3.4c2.3,1.1,4.7,1.7,7.3,1.9c3.4,0.3,5.7,0.8,3.9,1.2c-3.5,0-6.9-0.3-10.3-0.9c0.5,1.3,1.4,2.5,2.7,3.2
			c4.2,1.4,8.5,2.2,12.9,2.4L52.9,499.3L52.9,499.3z M79.3,461.8c0.3,1.4,0.7,2.8,1.1,4.2s1,3.4,1.2,4.7l-1.1,1.5
			c-0.9-2.1-1.6-4.3-2.2-6.5C78.7,464.5,79,463.2,79.3,461.8L79.3,461.8z M74.9,478.4c0,0.4,0.2,0.8,0.3,1.2l-1.2,1.6L74.9,478.4z
			 M53,445.5c-1.1,0.6,0.8-2.5,3-5.9l0.3,2C55.4,443.1,54.3,444.4,53,445.5z M55.4,455.8c0.6-0.7,1.7-2,2.8-3.6l1.7,9.5
			C58.5,459.6,57,457.6,55.4,455.8L55.4,455.8z"/>
		<path class="st2" d="M476.3,496.9c0,0,2.5-4.2,4.7-7.7c2.7-3.4,5.7-6.5,9-9.3c0,0-5.3,6.6-5.9,9.3c-0.8,2.5-1.8,4.9-3.1,7.2
			c2-1.9,4.1-3.7,6.2-5.4c4.1-3.2,8.7-5.6,9.3-6.4c0.6-0.8-6.2,5.9-8.1,8.1c-1,1.1-1.9,2.4-2.5,3.8l7.5-3.4l4.4-2l-8.7,6.1l8.7-1.4
			l-4.3,4h-27.6l-10.9-7l12.1,4.7c0,0-0.6,0.2-2.8-3.2c-1.6-2.4-3.4-4.8-5.3-7c2.9,1.4,5.6,3.4,7.8,5.8l5.3,4.9
			c-0.6-2.5-0.6-5.1,0-7.6c0.9-4.1,1.5-7.7,1.5-7.7L476.3,496.9L476.3,496.9z"/>
		<path class="st2" d="M450.4,496.9c0,0,2.5-4.2,4.7-7.7c2.7-3.4,5.7-6.5,9-9.3c0,0-5.3,6.6-5.9,9.3c-0.8,2.5-1.8,4.9-3.1,7.2
			c2-1.9,4.1-3.7,6.2-5.4c4.1-3.2,8.7-5.6,9.3-6.4s-6.2,5.9-8.1,8.1c-1,1.1-1.9,2.4-2.5,3.8l7.5-3.4l4.4-2l-8.7,6.1l8.7-1.4
			l-4.4,3.9h-27.4l-10.9-7l12.1,4.7c0,0-0.6,0.2-2.8-3.2c-1.6-2.4-3.4-4.8-5.3-7c2.9,1.4,5.6,3.4,7.8,5.8l5.3,4.9
			c-0.6-2.5-0.6-5.1,0-7.6c0.9-4.1,1.5-7.7,1.5-7.7L450.4,496.9L450.4,496.9z"/>
		<path class="st2" d="M424.6,496.9c0,0,2.5-4.2,4.7-7.7c2.7-3.4,5.8-6.5,9.1-9.2c0,0-5.3,6.6-5.9,9.3c-0.8,2.5-1.8,4.9-3.1,7.2
			c2-1.9,4.1-3.7,6.2-5.4c4.1-3.2,8.7-5.6,9.3-6.4s-6.2,5.9-8.1,8.1c-1,1.1-1.9,2.4-2.5,3.8l7.5-3.4l4.4-2l-8.7,6.1l8.7-1.4
			l-4.4,3.9h-27.5l-10.9-7l12.1,4.7c0,0-0.6,0.2-2.8-3.2c-1.6-2.4-3.4-4.8-5.3-7c2.9,1.4,5.6,3.4,7.8,5.8l5.3,4.9
			c-0.6-2.5-0.6-5.1,0-7.6c0.9-4.1,1.5-7.7,1.5-7.7L424.6,496.9L424.6,496.9z"/>
		<path class="st2" d="M398.7,496.9c0,0,2.5-4.2,4.7-7.7c2.7-3.4,5.7-6.5,9-9.3c0,0-5.3,6.6-5.9,9.3c-0.8,2.5-1.8,4.9-3.1,7.2
			c2-1.9,4.1-3.7,6.2-5.4c4.1-3.2,8.7-5.6,9.3-6.4s-6.2,5.9-8.1,8.1c-1,1.1-1.9,2.4-2.5,3.8l7.5-3.4l4.4-2l-8.7,6.1l8.7-1.4
			l-4.4,3.9h-27.4l-10.9-7l12.1,4.7c0,0-0.6,0.2-2.8-3.2c-1.6-2.4-3.4-4.8-5.3-7c2.9,1.4,5.6,3.4,7.8,5.8l5.3,4.9
			c-0.6-2.5-0.6-5.1,0-7.6c0.9-4.1,1.5-7.7,1.5-7.7L398.7,496.9L398.7,496.9z"/>
		<path class="st2" d="M372.9,496.9c0,0,2.5-4.2,4.7-7.7c2.7-3.4,5.7-6.5,9-9.3c0,0-5.3,6.6-5.9,9.3c-0.8,2.5-1.8,4.9-3.1,7.2
			c2-1.9,4.1-3.7,6.2-5.4c4.1-3.2,8.7-5.6,9.3-6.4s-6.2,5.9-8.1,8.1c-1,1.1-1.9,2.4-2.5,3.8c0,0,3.1-1.4,7.5-3.4l4.2-2l-8.7,6.1
			l8.7-1.4l-4.2,3.9h-27.4l-10.9-7l12.1,4.7c0,0-0.6,0.2-2.8-3.2c-1.6-2.4-3.4-4.8-5.3-7c2.9,1.4,5.6,3.4,7.8,5.8l5.3,4.9
			c-0.6-2.5-0.6-5.1,0-7.6c0.9-4.1,1.5-7.7,1.5-7.7L372.9,496.9L372.9,496.9z"/>
		<path class="st2" d="M388.7,496.7c0,0,2.7-4.8,5.1-8.5c3-3.8,6.3-7.2,10-10.3c0,0-5.8,7.3-6.5,10.3c-0.9,2.8-2,5.4-3.4,7.9
			c0,0,2.4-2.4,6.9-5.9c4.5-3.6,9.6-6.2,10.3-6.9c0.7-0.8-6.9,6.5-8.9,8.9c-1.1,1.3-2.1,2.7-2.7,4.2c0,0,3.4-1.6,8.2-3.8l4.8-2.1
			l-9.6,6.7l9.6-1.6l-4.8,4.4h-30.4l-12-7.7l13.4,5.2c0,0-0.7,0.2-3.1-3.6c-1.8-2.7-3.7-5.3-5.8-7.7c3.2,1.6,6.1,3.7,8.5,6.4
			l5.8,5.3c-0.6-2.7-0.6-5.6,0-8.3c1-4.5,1.7-8.5,1.7-8.5L388.7,496.7L388.7,496.7z"/>
		<path class="st2" d="M313.2,496.9c0,0,2.5-4.2,4.7-7.7c2.7-3.4,5.7-6.5,9-9.3c0,0-5.3,6.6-5.9,9.3c-0.8,2.5-1.8,4.9-3.1,7.2
			c2-1.9,4.1-3.7,6.2-5.4c4.1-3.2,8.7-5.6,9.3-6.4c0.6-0.8-6.2,5.9-8.1,8.1c-1,1.1-1.9,2.4-2.5,3.8c0,0,3.1-1.4,7.5-3.4l4.4-2
			l-8.7,6.1l8.7-1.4l-4.4,3.9h-27.4l-10.9-7l12.1,4.7c0,0-0.6,0.2-2.8-3.2c-1.6-2.4-3.4-4.8-5.3-7c2.9,1.4,5.6,3.4,7.8,5.8l5.3,4.9
			c-0.6-2.5-0.6-5.1,0-7.6c0.9-4.1,1.5-7.7,1.5-7.7L313.2,496.9L313.2,496.9z"/>
		<path class="st2" d="M287.3,496.9c0,0,2.5-4.2,4.7-7.7c2.7-3.4,5.7-6.5,9-9.3c0,0-5.3,6.6-5.9,9.3c-0.8,2.5-1.8,4.9-3.1,7.2
			c0,0,2.1-2.1,6.2-5.4c4.1-3.3,8.7-5.6,9.3-6.4s-6.2,5.9-8.1,8.1c-1,1.1-1.9,2.4-2.5,3.8c0,0,3.1-1.4,7.5-3.4l4.4-2l-8.7,6.1
			l8.7-1.4l-4.2,4H277l-10.9-7l12.1,4.7c0,0-0.6,0.2-2.8-3.2c-1.6-2.4-3.4-4.8-5.3-7c2.9,1.4,5.6,3.4,7.8,5.8l5.3,4.9
			c-0.6-2.5-0.6-5.1,0-7.6c0.9-4.1,1.5-7.7,1.5-7.7L287.3,496.9L287.3,496.9z"/>
		<path class="st2" d="M361,496.9c0,0,2.5-4.2,4.7-7.7c2.7-3.4,5.7-6.5,9-9.3c0,0-5.3,6.6-5.9,9.3c-0.8,2.5-1.8,4.9-3.1,7.2
			c0,0,2.1-2.1,6.2-5.4c4.1-3.3,8.7-5.6,9.3-6.4s-6.2,5.9-8.1,8.1c-1,1.1-1.9,2.4-2.5,3.8l7.5-3.4l4.4-2l-8.7,6.1l8.7-1.4l-4.4,3.9
			h-27.4l-10.9-7l12.2,4.7c0,0-0.6,0.2-2.8-3.2c-1.6-2.4-3.4-4.8-5.3-7c2.9,1.4,5.6,3.4,7.8,5.8l5.3,4.9c-0.6-2.5-0.6-5.1,0-7.6
			c0.9-4.1,1.5-7.7,1.5-7.7L361,496.9L361,496.9z"/>
		<path class="st2" d="M335.2,496.9c0,0,2.5-4.2,4.7-7.7c2.7-3.4,5.7-6.5,9-9.3c0,0-5.3,6.6-5.9,9.3c-0.8,2.5-1.8,4.9-3.1,7.2
			c0,0,2.1-2.1,6.2-5.4c4.1-3.3,8.7-5.6,9.3-6.4s-6.2,5.9-8.1,8.1c-1,1.1-1.9,2.4-2.5,3.8l7.5-3.4l4.4-2l-8.7,6.1l8.7-1.4l-4.4,3.9
			h-27.4l-10.9-7l12.1,4.7c0,0-0.6,0.2-2.8-3.2c-1.6-2.4-3.4-4.8-5.3-7c2.9,1.4,5.6,3.4,7.8,5.8l5.3,4.9c-0.6-2.5-0.6-5.1,0-7.6
			c0.9-4.1,1.5-7.7,1.5-7.7L335.2,496.9L335.2,496.9z"/>
		<path class="st2" d="M249.8,496.9c0,0,2.5-4.2,4.7-7.7c2.7-3.4,5.7-6.5,9-9.3c0,0-5.3,6.6-5.9,9.3c-0.8,2.5-1.8,4.9-3.1,7.2
			c0,0,2.1-2.1,6.2-5.4c4.1-3.3,8.7-5.6,9.4-6.4c0.6-0.8-6.2,5.9-8.1,8.1c-1,1.1-1.9,2.4-2.5,3.8c0,0,3.1-1.4,7.5-3.4l4.4-2
			l-8.7,6.1l8.7-1.4l-4.4,3.9h-27.4l-10.9-7l12.1,4.7c0,0-0.6,0.2-2.8-3.2c-1.6-2.4-3.4-4.8-5.3-7c2.9,1.4,5.6,3.4,7.8,5.8l5.3,4.9
			c-0.6-2.5-0.6-5.1,0-7.6c0.9-4.1,1.5-7.7,1.5-7.7L249.8,496.9L249.8,496.9z"/>
		<path class="st2" d="M223.9,496.9c0,0,2.5-4.2,4.7-7.7c2.7-3.4,5.7-6.5,9-9.3c0,0-5.3,6.6-5.9,9.3c-0.8,2.5-1.8,4.9-3.1,7.2
			c0,0,2.1-2.1,6.2-5.4s8.7-5.6,9.4-6.4c0.6-0.8-6.2,5.9-8.1,8.1c-1,1.1-1.9,2.4-2.5,3.8c0,0,3.1-1.4,7.5-3.4l4.2-2l-8.7,6.1
			l8.7-1.4l-4.2,3.9h-27.3l-10.9-7l12.1,4.7c0,0-0.6,0.2-2.8-3.2c-1.6-2.4-3.4-4.8-5.3-7c2.9,1.4,5.6,3.4,7.8,5.8l5.3,4.9
			c-0.6-2.5-0.6-5.1,0-7.6c0.9-4.1,1.5-7.7,1.5-7.7L223.9,496.9L223.9,496.9z"/>
		<path class="st2" d="M198.1,496.9c0,0,2.5-4.2,4.7-7.7c2.7-3.4,5.7-6.5,9-9.3c0,0-5.3,6.6-5.9,9.3c-0.8,2.5-1.8,4.9-3.1,7.2
			c0,0,2.1-2.1,6.2-5.4c4.1-3.3,8.7-5.6,9.3-6.4c0.6-0.8-6.2,5.9-8.1,8.1c-1,1.1-1.9,2.4-2.5,3.8l7.5-3.4l4.2-2l-8.7,6.1l8.7-1.4
			l-4.2,3.9h-27.4l-10.9-7l12.1,4.7c0,0-0.6,0.2-2.8-3.2c-1.6-2.4-3.4-4.8-5.3-7c2.9,1.4,5.6,3.4,7.8,5.8l5.3,4.9
			c-0.6-2.5-0.6-5.1,0-7.6c0.9-4.1,1.6-7.7,1.6-7.7L198.1,496.9L198.1,496.9z"/>
		<path class="st2" d="M167.2,496.9c0,0,2.5-4.2,4.7-7.7c2.7-3.4,5.7-6.5,9-9.3c0,0-5.3,6.6-5.9,9.3c-0.8,2.5-1.8,4.9-3.1,7.2
			c0,0,2.1-2.1,6.2-5.4c4.1-3.3,8.7-5.6,9.3-6.4c0.6-0.8-6.2,5.9-8.2,8.2c-1,1.1-1.9,2.4-2.5,3.8l7.5-3.4l4.4-2l-8.7,6.1l8.7-1.4
			l-4.4,3.9h-27.3l-10.9-7l12.1,4.7c0,0-0.6,0.2-2.8-3.2c-1.6-2.4-3.4-4.8-5.3-7c2.9,1.4,5.6,3.4,7.8,5.8l5.3,4.9
			c-0.6-2.5-0.6-5.1,0-7.6c0.9-4.1,1.5-7.7,1.5-7.7L167.2,496.9z"/>
		<path class="st2" d="M141.4,496.9c0,0,2.5-4.2,4.7-7.7c2.7-3.4,5.7-6.5,9-9.3c0,0-5.3,6.6-5.9,9.3c-0.8,2.5-1.8,4.9-3.1,7.2
			c2-1.9,4.1-3.7,6.2-5.4c4.1-3.2,8.7-5.6,9.3-6.4s-6.2,5.9-8.1,8.1c-1,1.1-1.9,2.4-2.5,3.8l7.5-3.4l4.4-2l-8.7,6.1l8.7-1.4
			l-4.4,3.9h-27.4l-10.9-7l12.1,4.7c0,0-0.6,0.2-2.8-3.2c-1.6-2.4-3.4-4.8-5.3-7c2.9,1.4,5.6,3.4,7.8,5.8l5.3,4.9
			c-0.6-2.5-0.6-5.1,0-7.6c0.9-4.1,1.5-7.7,1.5-7.7L141.4,496.9L141.4,496.9z"/>
		<path class="st2" d="M115.6,496.9c0,0,2.5-4.2,4.7-7.7c2.7-3.4,5.7-6.5,9-9.3c0,0-5.3,6.6-5.9,9.3c-0.8,2.5-1.8,4.9-3.1,7.2
			c2-1.9,4.1-3.7,6.2-5.4c4.1-3.2,8.7-5.6,9.3-6.4s-6.2,5.9-8.1,8.1c-1,1.1-1.9,2.4-2.5,3.8l7.3-3.3l4.2-2l-8.5,6.1l8.7-1.4
			l-4.2,3.9h-27.6l-10.8-7l12.1,4.7c0,0-0.6,0.2-2.8-3.2c-1.6-2.4-3.4-4.8-5.3-7c2.9,1.4,5.6,3.4,7.8,5.8l5.3,4.9
			c-0.6-2.5-0.6-5.1,0-7.6c0.9-4.1,1.5-7.7,1.5-7.7L115.6,496.9z"/>
		<path class="st2" d="M84.7,496.9c0,0,2.5-4.2,4.7-7.7c2.7-3.4,5.7-6.5,9-9.3c0,0-5.3,6.6-5.9,9.3c-0.8,2.5-1.8,4.9-3.1,7.2
			c0,0,2.1-2.1,6.2-5.4c4.1-3.3,8.7-5.6,9.4-6.4s-6.3,5.9-8.1,8.2c-1,1.1-1.8,2.4-2.4,3.8l7.5-3.4l4.4-2l-8.7,6.1l8.7-1.4l-4.4,3.9
			H74.5l-10.9-7l12.1,4.7c0,0-0.6,0.2-2.8-3.2c-1.6-2.4-3.4-4.8-5.3-7c2.9,1.4,5.6,3.4,7.8,5.8l5.3,4.9c-0.6-2.5-0.6-5.1,0-7.6
			c0.9-4.1,1.6-7.7,1.6-7.7L84.7,496.9z"/>
		<path class="st2" d="M58.8,496.9c0,0,2.5-4.2,4.7-7.7c2.7-3.4,5.7-6.5,9-9.3c0,0-5.3,6.6-5.9,9.3c-0.8,2.5-1.8,4.9-3.1,7.2
			c0,0,2.1-2.1,6.2-5.4s8.7-5.6,9.3-6.4s-6.2,5.9-8,8.2c-1,1.1-1.9,2.4-2.5,3.8l7.5-3.4l4.4-2l-8.7,6.1l8.7-1.4l-4.4,3.9H48.5
			l-10.9-7l12.1,4.7c0,0-0.6,0.2-2.8-3.2c-1.6-2.4-3.4-4.8-5.3-7c2.9,1.4,5.6,3.4,7.8,5.8l5.3,4.9c-0.6-2.5-0.6-5.1,0-7.6
			c0.9-4.1,1.6-7.7,1.6-7.7L58.8,496.9z"/>
		<path class="st2" d="M32.9,496.9c0,0,2.5-4.2,4.7-7.7c2.7-3.4,5.7-6.5,9-9.3c0,0-5.3,6.6-5.9,9.3c-0.8,2.5-1.8,4.9-3.1,7.2
			c0,0,2.1-2.1,6.2-5.4s8.7-5.6,9.3-6.4c0.6-0.8-6.2,5.9-8.1,8.1c-1,1.1-1.9,2.4-2.5,3.8l7.5-3.4l4.4-2l-8.7,6.1l8.7-1.4l-4.4,3.9
			H22.7l-10.9-7l12.1,4.7c0,0-0.6,0.2-2.8-3.2c-1.6-2.4-3.4-4.8-5.3-7c2.9,1.4,5.6,3.4,7.8,5.8l5.3,4.9c-0.6-2.5-0.6-5.1,0-7.6
			c0.9-4.1,1.6-7.7,1.6-7.7L32.9,496.9L32.9,496.9z"/>
	</g>
	<g>
		<path class="st3" d="M892.7,78.3c0.8-2,2.7-8,6.9-15.6c4.9-8.7,10.2-15,14-19c0,0-3.3,32.7,5,31.4c8.6-1.4,12.4-24.6,14.1-48.7
			c32.8,24.4,39.1,43.4,38.5,56.4c-0.7,16.1-12,24.2-7.7,37.8c5.3,16.8,29.7,28.1,39.1,21.8c10.8-7.2,4.5-37.8,4.5-37.8
			s48.7,40.6,37.8,69.3c-4.1,10.9-16.6,16.4-13.5,19.2c11.2,10,33.8-14.3,33.8-14.3s-15.5,64.5-79.8,84.2
			c-21,6.4-48.4,15.3-64.3,14.1c-17.8-1.4-100.6-7.9-127-64.1c-18.2-38.7,3.2-84.6,3.2-84.6s5.4,48.7,17.3,50
			c6,0.7,22.8-24.8,17.9-35.4c-9.8-21.4,19.2-40.6,19.2-40.6c1.8,5.7-8.4,23.4,28.6,30C909.6,137.6,883.3,102,892.7,78.3z"/>
		<path class="st4" d="M892.7,78.3c0.8-2,2.7-8,6.9-15.6c4.9-8.7,10.2-15,14-19c0,0-3.3,32.7,5,31.4c8.6-1.4,12.4-24.6,14.1-48.7
			c32.8,24.4,39.1,43.4,38.5,56.4c-0.7,16.1-12,24.2-7.7,37.8c5.3,16.8,29.7,28.1,39.1,21.8c10.8-7.2,4.5-37.8,4.5-37.8
			s48.7,40.6,37.8,69.3c-4.1,10.9-16.6,16.4-13.5,19.2c11.2,10,33.8-14.3,33.8-14.3s-15.5,64.5-79.8,84.2
			c-21,6.4-48.4,15.3-64.3,14.1c-17.8-1.4-100.6-7.9-127-64.1c-18.2-38.7,3.2-84.6,3.2-84.6s5.4,48.7,17.3,50
			c6,0.7,22.8-24.8,17.9-35.4c-9.8-21.4,19.2-40.6,19.2-40.6c1.8,5.7-8.4,23.4,28.6,30C909.6,137.6,883.3,102,892.7,78.3z"/>
		<path class="st3" d="M837.8,243.3c11,32,78.3,42.1,127.4,27.4c15.5-4.7,43.3-10.7,45.5-33.2c1.6-16.7-11.1-40.4-11.1-40.4
			s-15.8,24.2-20,8.3c-9.2-35.7-56.4-51.6-56.4-51.6s35.4,57.1-4.6,57c-13.4-0.1-1.1-27.1-1.1-27.1s-25.6,3.8-47.6,39.3
			c-8.8,14.3-8.7-27.6-8.7-27.6S831.3,224.5,837.8,243.3z"/>
		<path class="st1" d="M825,195.7c0.9,2.4,1.8,4.8,2.4,7.2c0.3,1.2,0.6,2.7,0.9,3.9c0.3,1.2,0.9,2.7,1.5,3.9
			c2.4,4.8,6,9.3,10.2,12.6c4.2,3.3,8.4,6.6,12.6,9.3l3,2.1l3,2.4c2.1,1.8,3.9,3.6,5.7,5.4c3.9,3.6,7.5,7.2,11.4,10.8l0,0
			c0,0,0.3,0.3,0.6,0.3c2.1,0.6,3.9,1.2,6,1.5h2.1c0.9,0.3,1.5,0.9,2.4,1.5c3.3,2.4,1.2,3.6,4.5,6.3c3.3,2.7,5.7,6.3,8.7,9.3
			l9.3,19.1c0,0.6-0.6,11.7-0.6,12.3c-0.9,6.6-0.9,13.5,0,20c0,10.5-2.1,39.2-1.2,43.1c0.6,1.8,2.1,81.7-3,153.8
			c10.8,2.7,21.5,5.4,32,8.4l-6.9-163v-45.2c-0.3-8.1,0.3-15.9,1.5-23.9c0.9-1.8,14.1-15.3,15.3-19.4h0.3l0.9-0.9l0.9-1.2l0.6-0.9
			l0.6-0.9l3-3.6l19.1-22.4l5.4,1.2c2.4,0.6,5.1,0.9,7.5,1.2l3.6,0.9c1.2,0.3,2.4,0.3,3.9,0.3c2.7,0,5.1-0.3,7.8-0.9l0,0l17.9-10.2
			l17.7-10.2l9.3-0.9c3.3,0,6.3-0.6,9.6-1.2c3.3-0.6,6.3-1.2,9.6-1.8s6.3-1.5,9.3-2.4h-9.6l-9.6,0.6c-3.3,0-6.3,0.6-9.6,1.2
			l-9.6,1.5h-0.6l-17.4,11.4L999.4,249c-2.4-1.2-4.8-2.1-7.2-2.4c-1.2-0.3-2.4-0.3-3.9-0.3h-15.9l3.9-4.5l12.6-12.6
			c4.2-2.1,8.4-4.2,12.6-6.3l12.6-6.9l6.3-3.3c0.9-0.6,2.1-1.2,3-1.2c1.2-0.3,2.4-0.6,3.3-0.9c4.5-1.2,9.3-2.1,14.1-3
			c-4.8,0-9.6,0.6-14.4,1.5c-1.2,0-2.4,0.3-3.6,0.6c-0.6,0-1.2,0.3-1.8,0.3c-0.6,0.3-1.2,0.3-1.8,0.6l-6.3,3l-26.6,12.3l0,0
			L973,238.5l0,0l-9.3,11.1l-2.1,1.8c0.9-1.5,1.8-3.3,2.4-4.8c1.2-2.7,2.4-5.4,3.3-8.1l3.3-8.1l2.1-3.9l2.1-4.2
			c1.5-2.7,3-5.4,4.2-8.4h-0.3l-5.7,7.8l-2.7,3.9l-2.7,3.9l0,0l-3.9,7.8c-1.5,2.7-2.7,5.1-3.9,7.8c-1.2,2.7-2.1,5.4-3.3,8.1
			c-0.9,2.4-1.5,5.1-2.1,7.8c-1.8,2.1-3.6,4.5-5.1,6.3c-0.9,1.2-1.8,2.4-2.7,3.9l-0.6,0.9l-0.6,1.2c0,0,0,0.3-0.6,0.6l-0.6,0.9
			c-0.3,0.3-0.6,0.9-1.2,1.2l-13.8,8.7l-3.6-5.4l-2.7-11.1l-3-7.2l-7.5-11.4l5.4-7.5l7.5-10.2c1.2-1.5,2.4-3,3.9-4.5l0.3-0.3l0,0
			l1.5-0.3l3-0.9l12.3-2.7h0.6l20.3-12.6l0,0c0.6-0.9,1.2-1.5,1.8-2.4l14.7-9c5.7-3.3,11.4-6.9,17.1-10.5c3-0.3,6-1.2,8.7-2.7
			c1.5-0.9,3-2.1,3.9-3.3c0.3-0.3,0.3-0.9,0.6-1.2l0,0l6.3,1.5l8.1,1.8l16.5,3.6c0.6,0,1.2,0,1.5-0.6l0,0l4.5-5.4l4.2-2.1l4.5-2.4
			c1.5-0.9,3-1.8,4.5-2.7c1.5-0.9,3-1.8,4.2-3l0,0c-1.8,0-3.3,0.9-5.1,1.2l-4.8,1.5l-4.8,1.8c-1.5,0.6-3,1.2-4.5,2.1l0,0
			c0,0-0.6,0.3-0.9,0.6c-1.2,1.8-2.7,3.6-3.9,5.4l-15.6-2.1l-8.4-1.2l-6.3-0.9v-0.3l0.9-2.1l3.3-8.1c0.9-2.4,2.1-5.1,3-7.5
			c2.7-2.1,5.4-4.2,8.1-6.3c2.7-2.1,5.7-4.5,8.4-6.9l0,0c2.7-1.8,5.4-3.9,7.8-6l0,0c-3,1.2-6,2.7-9,4.2l0,0c-3,1.8-6.3,3.9-9.3,6
			c-3,2.1-6,4.2-9,6.3c-0.3,0.3-0.6,0.6-0.9,0.9l0,0c-0.9,2.7-2.1,5.4-3,8.4l-2.7,7.2l-0.6,2.1l-0.3,0.9l-0.3,0.6
			c-0.6,0.9-1.5,1.8-2.7,2.4c-2.4,1.2-5.1,2.4-7.8,2.7h-0.3c-5.7,3.9-11.4,7.5-16.8,11.4l-12.6,8.7c0.9-1.2,1.5-2.7,2.4-3.9
			c0.9-1.5,1.2-3,1.8-4.2l1.2-4.2c1.8-5.7,3.9-11.4,6-17.1c0.9-2.7,2.1-5.7,3.3-8.4c0.6-1.5,1.2-2.7,1.8-4.2
			c0.3-0.6,0.6-1.2,1.2-1.8c0.3-0.3,0.3-0.6,0.6-0.9l0.3-0.3l0.3-0.3c2.1-2.4,3.6-4.8,5.1-7.5c1.5-2.7,2.7-5.4,4.2-8.1l0,0
			c-1.5,2.7-3,5.4-4.5,8.1c-1.5,2.7-3.3,5.1-5.1,7.2c-0.3,0.3-0.6,0.6-0.9,0.9c-0.3,0.3-0.6,0.6-0.9,0.9c-0.3,0.6-0.9,1.2-1.2,2.1
			c-0.9,1.2-1.5,2.7-2.1,4.2c-1.2,2.7-2.4,5.7-3.6,8.4c-2.4,5.7-4.5,11.4-6.3,16.8l-1.5,4.2c-0.6,1.2-1.2,2.7-1.8,3.9
			c-1.2,2.4-3,4.8-4.8,6.9l-20.3,12.3c-0.6-4.2-1.5-8.7-2.4-12.6c0-1.2-0.6-2.4-0.9-3.6v-0.9c0-0.3,0-0.6-0.3-0.9
			c0-0.3-0.3-0.6-0.3-0.9l-0.3-0.9c-1.2-2.1-2.1-4.5-3-6.3c-0.9-2.1-1.8-4.5-2.1-6.9c-0.3-0.9-0.3-1.8-0.3-3c0,0,0-1.2,0.3-1.5
			c0.3-0.6,0-1.2,0-2.1c0-2.4,0-5.1,0-7.5c0-2.4-0.3-5.1-0.9-7.5l0,0c-1.2,4.8-2.1,9.6-3,14.7c0,0.6,0,1.2-0.3,1.8
			c-0.3,0.6-0.3,1.2-0.3,2.1c0,1.5,0.3,3,0.9,4.5c0.9,2.4,2.1,4.8,3.3,7.2c1.2,2.4,2.4,4.5,3.6,6.3l0.6,0.9c0,0,0.3,0.6,0.3,0.9
			l0.3,0.6c0,0,0,0.6,0,0.9c0.3,1.2,0.9,2.4,1.2,3.3c1.5,4.2,2.7,8.4,3.9,12.6l-12.3,2.4l-3,0.6h-2.4c0,0-0.6,0.3-0.9,0.6
			c-1.5,1.5-3,3.3-4.5,5.1c-2.7,3.3-5.1,6.9-7.5,10.2c-1.5,2.1-3,4.2-4.5,6.3l-0.6-0.9c-0.3-1.8-0.9-3.3-1.8-5.1
			c0-0.3-0.3-0.9-0.6-1.2c-0.3-3.9-0.6-8.1-0.9-12.3v-9.6c0-1.2,0-2.1,0-3.3c-0.3-2.4-1.2-4.5-2.4-6.3c-1.2-1.8-2.7-3.6-4.2-5.1
			c-3.3-3-6.6-5.4-9.9-8.1c-0.9-0.6-1.5-1.2-2.4-2.1l-0.6-0.6l0,0c2.4-5.1,5.1-9.9,7.5-15c1.2-2.7,2.4-5.4,3.9-8.1l0.9-2.1
			c0-0.6,0.6-1.5,0.9-2.1l1.5-4.2c0.9-2.7,2.1-5.4,3-8.4c0.3-1.5,0.9-3,1.2-4.5c0.3-1.5,0.6-3,0.6-4.8c0-0.3,0-0.9,0-1.5v-0.9
			l-0.3-2.1l-0.6-4.2c-0.3-3-0.9-5.7-1.8-8.7l0,0c-0.3,3-0.9,6-0.9,9v9c0,1.2-0.3,2.7-0.6,3.9c-0.3,1.2-0.6,2.7-0.9,4.2
			c-0.6,3-1.2,5.7-2.1,8.4l-1.2,4.2c0,0.6-0.3,1.2-0.6,2.1l-0.9,2.1c-0.9,2.7-2.1,5.4-3.3,8.1l-6,15.3l0,0c-0.3-0.3-0.6-0.9-0.9-1.2
			c-1.2-1.8-2.1-3.6-3.3-5.4c-2.1-3.6-4.2-7.5-6.3-11.1c-3.9-7.5-7.8-15-11.4-22.4l0,0c3.6,7.8,7.2,15.3,10.8,23
			c1.8,3.9,3.9,7.5,5.7,11.4c0.9,1.8,2.1,3.9,3.3,5.4c0.3,0.6,0.6,0.9,0.9,1.5l0.6,0.6l0.6,0.6c0.9,0.9,1.5,1.5,2.4,2.1
			c3.3,2.7,6.6,5.1,9.6,8.1c1.5,1.5,2.7,3,3.9,4.8c1.2,1.5,1.8,3.3,1.8,5.4c0,0.9,0,2.1,0,3v15.3c-0.6-0.9-1.2-1.5-1.8-2.4
			c-0.6-0.9-1.2-1.5-2.1-2.1c-0.9-0.6-1.5-1.2-2.4-1.8c-0.9-0.6-1.8-0.9-2.7-1.5l-2.7-1.2c-3.6-1.2-6.9-2.4-10.5-3.3
			s-7.2-1.8-10.5-2.7c-1.8-0.3-3.3-0.9-4.8-1.8c-0.6-0.3-1.2-0.9-1.8-1.2c-0.3-0.3-0.3-0.6-0.3-0.9v-0.9c0-1.8-0.3-3.9-0.6-5.7
			c0-1.8-0.6-3.6-1.2-5.4c-0.9-3.6-1.8-7.2-3-10.5l0,0c0.6,3.6,1.2,7.2,1.8,10.8c0.6,3.6,0.9,7.2,0.9,10.5v0.3c0,0,0,0.6,0,0.9
			c0,0.6,0.3,1.2,0.9,1.8c0.6,0.9,1.5,1.8,2.4,2.1c1.8,0.9,3.3,1.8,5.1,2.4c3.6,1.2,7.2,2.1,10.5,3.3c3.3,0.9,6.9,2.1,10.2,3.6
			c0.9,0.3,1.5,0.6,2.4,1.2c0.9,0.3,1.5,0.6,2.1,1.2c0.6,0.3,1.2,0.9,2.1,1.5c0.6,0.6,1.2,1.2,1.8,1.8c3,3.3,5.1,7.2,6.3,11.4
			l1.8,6.9c0,0,0,0.3,0,0.6c1.5,2.7,2.7,5.4,4.2,8.1c0.6,1.2,1.2,2.7,1.8,4.2c0.6,1.5,0.6,1.5,0.6,2.1c0,0.3,0,0.6,0,0.9v0.9
			c0,3,0,6.3-0.3,9l0,0l-6-6.3c-3-3-5.7-5.7-8.7-8.7c-3-3-6-5.4-9.3-8.1c-0.9-0.6-1.8-1.2-2.7-1.8h-1.8l-1.5-0.3l-5.4-1.5
			c-3.6-3.9-7.2-7.5-10.8-10.8c-3.9-3.9-8.1-7.2-12.6-10.2c-4.5-2.7-8.7-5.4-12.6-8.7c-2.4-1.8-4.8-3.9-6.9-6.3
			c1.8-2.7,3.3-5.7,4.5-8.7c1.5-3.3,3-6.9,4.2-10.2c1.2-3.6,2.1-7.2,2.4-10.8c0.3-3.9,0.3-7.5-0.3-11.1c-0.6-3.6-0.9-7.2-1.2-10.8
			c-0.3-3.6-0.9-7.2-1.5-10.8c-1.2-7.2-2.1-14.4-3.9-21.2c-0.9-3-0.9-3,0,0c1.8,7.2,0,0,0,0v11.1c0,3.6,0,7.2,0.6,11.1
			c0.9,7.2,2.4,14.4,3.6,21.5c0.9,3.3,1.2,6.9,0.9,10.5c-0.3,3.6-0.9,7.2-1.8,10.5c-1.8,6.6-4.2,12.9-7.2,19.1
			c-0.9-1.2-2.1-2.7-2.7-4.2c-0.6-1.2-1.2-2.1-1.5-3.3c-0.3-1.2-0.9-2.4-0.9-3.6c-0.9-2.4-1.5-5.1-2.7-7.5
			c-2.1-4.8-4.2-9.6-6.9-14.4c-4.8-9.3-9.9-18.5-15.3-27.2l0,0c5.1,9.3,9.9,18.5,14.4,27.8C821.1,186.2,823.2,190.9,825,195.7
			L825,195.7z M960.2,255.3l1.2-2.4l0,0l1.2-0.9l-1.5,1.8c-0.6,0.6-1.2,1.5-1.8,2.1L960.2,255.3L960.2,255.3z M929.1,227.4
			L929.1,227.4L929.1,227.4L929.1,227.4z"/>
		<circle class="st1" cx="936.1" cy="258.7" r="4.8"/>
		<circle class="st1" cx="890.2" cy="244.7" r="2"/>
		<circle class="st1" cx="861.1" cy="255.8" r="2.9"/>
		<circle class="st1" cx="954.6" cy="228.3" r="2.6"/>
		<circle class="st1" cx="975.6" cy="256" r="2.1"/>
		<circle class="st1" cx="951.3" cy="193.1" r="1.1"/>
		<circle class="st1" cx="994.7" cy="214.5" r="1"/>
		<circle class="st1" cx="894.7" cy="211.3" r="1.4"/>
		<circle class="st1" cx="920.1" cy="219.4" r="1.8"/>
		<circle class="st1" cx="853" cy="217.5" r="1.9"/>
	</g>
	<g>
		<path class="st5" d="M289,153.1v21.3c0,4-0.7,7-2.2,9c-2.7,3.6-8.2,5.4-16.6,5.4c-6,0-10.7-1-13.9-2.9c-1.9-1.1-3.2-2.7-3.9-4.6
			c-0.7-1.9-1.1-4.2-1.1-6.9v-21.3c0-0.6-0.1-1-0.4-1.3c-0.3-0.3-0.7-0.5-1.4-0.7v-0.9h11.9v0.9c-0.7,0.2-1.1,0.4-1.4,0.7
			c-0.3,0.3-0.4,0.7-0.4,1.3v19c0,2.2,0.1,3.8,0.4,4.9c0.2,1,0.7,1.9,1.4,2.6c1.8,1.9,4.8,2.8,9.1,2.8c4.3,0,7.4-0.9,9.2-2.8
			c0.6-0.7,1.1-1.6,1.3-2.6c0.2-1,0.4-2.7,0.4-4.9v-19c0-0.6-0.1-1-0.4-1.3c-0.3-0.3-0.7-0.5-1.4-0.7v-0.9h11.2v0.9
			c-0.7,0.2-1.1,0.4-1.4,0.7C289.1,152.1,289,152.5,289,153.1z"/>
		<path class="st5" d="M313.3,162.6v22.7c0,0.6,0.1,1,0.4,1.3c0.3,0.3,0.7,0.6,1.4,0.8v0.8h-11v-0.8c0.6-0.2,1.1-0.4,1.4-0.7
			c0.3-0.3,0.4-0.8,0.4-1.3v-22.7h-9.2c-0.6,0-1,0.1-1.4,0.4c-0.3,0.3-0.6,0.7-0.7,1.4h-0.8v-9.2h0.8c0.2,0.6,0.4,1.1,0.7,1.4
			c0.3,0.3,0.8,0.4,1.4,0.4h25.9c0.6,0,1-0.1,1.4-0.4c0.3-0.3,0.6-0.7,0.7-1.4h0.8v9.2h-0.8c-0.2-0.7-0.4-1.1-0.7-1.4
			c-0.3-0.3-0.8-0.4-1.4-0.4H313.3z"/>
		<path class="st5" d="M358.5,159.8l-3.8,7.3l-0.7-0.4c0-0.6-0.2-1.1-0.6-1.4c-1.1-0.9-2.6-1.7-4.7-2.3c-2.1-0.6-4.1-0.9-6.3-0.9
			c-1.8,0-3.4,0.3-4.8,0.8c-2,0.7-3,1.8-3,3.1c0,0.9,0.5,1.6,1.4,1.9c1,0.4,2.8,0.7,5.6,0.9l4.4,0.3c3.8,0.3,6.8,1,8.8,2.2
			c1.1,0.7,2,1.6,2.8,2.7c0.9,1.4,1.4,3,1.4,4.7c0,3.2-1.4,5.7-4.3,7.5c-2.7,1.8-6.4,2.6-11.1,2.6c-4.7,0-9.2-1-13.6-3
			c-0.3-0.1-0.5-0.2-0.8-0.2c-0.4,0-0.7,0.2-1,0.7l-0.7-0.3l3.2-7.6l0.7,0.3c0,0.1,0,0.2,0,0.2c0,0.5,0.2,0.9,0.6,1.2
			c0.9,0.8,2.5,1.5,4.8,2.1c2.3,0.6,4.5,0.9,6.8,0.9c2,0,3.7-0.3,5.3-0.8c1.9-0.6,2.9-1.7,2.9-3.1c0-1.1-0.7-1.9-2-2.4
			c-0.9-0.3-2.5-0.5-4.8-0.8l-4.4-0.4c-2.4-0.2-4.2-0.4-5.4-0.7c-1.2-0.3-2.3-0.7-3.3-1.3c-1.2-0.7-2.1-1.8-2.8-3
			c-0.7-1.3-1-2.7-1-4.2c0-3.4,1.5-6,4.4-7.8c2.7-1.6,6-2.4,9.9-2.4c2.1,0,4.1,0.2,6,0.7c1.8,0.5,4.1,1.3,6.6,2.5
			c0.8,0.4,1.3,0.5,1.6,0.5c0.3,0,0.7-0.2,1.1-0.6L358.5,159.8z"/>
		<path class="st5" d="M372.9,182.5h17.5c0.6,0,1-0.1,1.3-0.4c0.3-0.3,0.5-0.7,0.8-1.4h0.8v9.2h-0.8c-0.2-0.7-0.4-1.1-0.7-1.4
			c-0.3-0.3-0.8-0.4-1.4-0.4h-26.7v-0.8c0.6-0.2,1.1-0.4,1.4-0.7c0.3-0.3,0.4-0.8,0.4-1.3v-25.5c0-0.6-0.1-1-0.4-1.3
			c-0.3-0.3-0.7-0.5-1.4-0.8V157h11v0.8c-0.7,0.2-1.1,0.4-1.4,0.7c-0.3,0.3-0.4,0.7-0.4,1.3V182.5z"/>
		<path class="st5" d="M420,180.4h-14.3l-1.6,3.4c-0.4,0.8-0.6,1.5-0.6,1.9c0,0.9,0.6,1.5,1.8,1.7v0.8h-11.5v-0.8
			c0.7-0.1,1.2-0.3,1.6-0.6c0.3-0.3,0.7-0.9,1.2-1.9l11.4-23c0.4-0.9,0.6-1.6,0.6-2.3c0-0.8-0.5-1.4-1.6-1.8V157h12.1v0.8
			c-1,0.4-1.5,1-1.5,1.9c0,0.6,0.2,1.4,0.7,2.3l11.8,22.4c0.6,1.2,1.2,2,1.5,2.4c0.4,0.4,0.9,0.6,1.7,0.8v0.8h-12.7v-0.8
			c1.2-0.2,1.8-0.8,1.8-1.7c0-0.6-0.2-1.3-0.7-2.1L420,180.4z M407.6,146.1c1.1,0,1.9,0.4,2.6,1.1c0.7,0.7,1.1,1.6,1.1,2.6
			c0,1-0.4,1.8-1.1,2.5c-0.7,0.7-1.6,1.1-2.6,1.1c-1,0-1.8-0.4-2.6-1.1c-0.7-0.7-1.1-1.5-1.1-2.6c0-1,0.3-1.9,1-2.5
			S406.6,146.2,407.6,146.1z M417.8,176l-5.1-10l-4.9,10H417.8z M418.7,146.1c1,0,1.9,0.4,2.6,1.1c0.7,0.7,1.1,1.6,1.1,2.5
			c0,1.1-0.4,1.9-1.1,2.6c-0.7,0.7-1.6,1.1-2.6,1.1c-1,0-1.8-0.4-2.5-1.1c-0.7-0.7-1-1.6-1-2.6c0-1,0.3-1.8,1-2.5
			C416.8,146.5,417.7,146.2,418.7,146.1z"/>
		<path class="st5" d="M445.2,175.4v9.9c0,0.6,0.1,1,0.4,1.3c0.3,0.3,0.7,0.6,1.4,0.8v0.8h-11v-0.8c0.6-0.2,1.1-0.4,1.4-0.7
			c0.3-0.3,0.4-0.8,0.4-1.3v-25.5c0-0.6-0.1-1-0.4-1.3c-0.3-0.3-0.7-0.5-1.4-0.8V157h20.3c4,0,7.1,0.6,9.1,1.8
			c1.2,0.7,2.1,1.7,2.8,3c0.7,1.3,1,2.8,1,4.4c0,3.1-1.1,5.4-3.2,6.9c-2.1,1.5-5.4,2.3-9.7,2.3H445.2z M445.2,169.7h10.6
			c1.9,0,3.3-0.2,4.1-0.6c1.1-0.5,1.7-1.5,1.7-3s-0.6-2.4-1.7-3c-0.7-0.4-2.1-0.6-4.1-0.6h-10.6V169.7z"/>
		<path class="st5" d="M482.3,175.4v9.9c0,0.6,0.1,1,0.4,1.3c0.3,0.3,0.7,0.6,1.4,0.8v0.8h-11v-0.8c0.6-0.2,1.1-0.4,1.4-0.7
			c0.3-0.3,0.4-0.8,0.4-1.3v-25.5c0-0.6-0.1-1-0.4-1.3c-0.3-0.3-0.7-0.5-1.4-0.8V157h20.3c4,0,7.1,0.6,9.1,1.8
			c1.2,0.7,2.1,1.7,2.8,3c0.7,1.3,1,2.8,1,4.4c0,3.1-1.1,5.4-3.2,6.9c-2.1,1.5-5.4,2.3-9.7,2.3H482.3z M482.3,169.7H493
			c1.9,0,3.3-0.2,4.1-0.6c1.1-0.5,1.7-1.5,1.7-3s-0.6-2.4-1.7-3c-0.7-0.4-2.1-0.6-4.1-0.6h-10.6V169.7z"/>
		<path class="st5" d="M548.1,180.4h-14.3l-1.6,3.4c-0.4,0.8-0.6,1.5-0.6,1.9c0,0.9,0.6,1.5,1.8,1.7v0.8h-11.5v-0.8
			c0.7-0.1,1.2-0.3,1.6-0.6c0.3-0.3,0.7-0.9,1.2-1.9l11.4-23c0.4-0.9,0.6-1.6,0.6-2.3c0-0.8-0.5-1.4-1.6-1.8V157h12.1v0.8
			c-1,0.4-1.5,1-1.5,1.9c0,0.6,0.2,1.4,0.7,2.3l11.8,22.4c0.6,1.2,1.2,2,1.5,2.4c0.4,0.4,0.9,0.6,1.7,0.8v0.8h-12.7v-0.8
			c1.2-0.2,1.8-0.8,1.8-1.7c0-0.6-0.2-1.3-0.7-2.1L548.1,180.4z M545.9,176l-5.1-10l-4.9,10H545.9z"/>
		<path class="st5" d="M575.9,178.3l7.6-16.5c0.4-0.9,0.7-1.7,0.7-2.1c0-0.9-0.6-1.6-1.8-1.9V157h12.1v0.8c-0.7,0.2-1.3,0.5-1.6,0.9
			c-0.3,0.4-0.8,1.1-1.3,2.2l-10.9,23c-0.4,0.8-0.6,1.4-0.6,1.9c0,0.9,0.6,1.5,1.8,1.8v0.8h-12.2v-0.8c1.2-0.2,1.8-0.8,1.8-1.8
			c0-0.4-0.2-1-0.6-1.9l-10.9-23c-0.5-1.1-0.9-1.8-1.3-2.2c-0.3-0.3-0.9-0.6-1.6-0.9V157h12.5v0.8c-1.2,0.4-1.8,1-1.8,1.9
			c0,0.4,0.2,1.1,0.7,2.1L575.9,178.3z"/>
		<path class="st5" d="M265.6,246.7l7.6-16.5c0.4-0.9,0.7-1.7,0.7-2.1c0-0.9-0.6-1.6-1.8-1.9v-0.8h12.1v0.8
			c-0.7,0.2-1.3,0.5-1.6,0.9c-0.3,0.4-0.8,1.1-1.3,2.2l-10.9,23c-0.4,0.8-0.6,1.4-0.6,1.9c0,0.9,0.6,1.5,1.8,1.8v0.8h-12.2v-0.8
			c1.2-0.2,1.8-0.8,1.8-1.8c0-0.4-0.2-1-0.6-1.9l-10.9-23c-0.5-1.1-0.9-1.8-1.3-2.2c-0.3-0.3-0.9-0.6-1.6-0.9v-0.8h12.5v0.8
			c-1.2,0.4-1.8,1-1.8,1.9c0,0.4,0.2,1.1,0.7,2.1L265.6,246.7z"/>
		<path class="st5" d="M306.2,248.8h-14.3l-1.6,3.4c-0.4,0.8-0.6,1.5-0.6,1.9c0,0.9,0.6,1.5,1.8,1.7v0.8h-11.5v-0.8
			c0.7-0.1,1.2-0.3,1.6-0.6c0.3-0.3,0.7-0.9,1.2-1.9l11.4-23c0.4-0.9,0.6-1.6,0.6-2.3c0-0.8-0.5-1.4-1.6-1.8v-0.8h12.1v0.8
			c-1,0.4-1.5,1-1.5,1.9c0,0.6,0.2,1.4,0.7,2.3l11.8,22.4c0.6,1.2,1.2,2,1.5,2.4c0.4,0.4,0.9,0.6,1.7,0.8v0.8h-12.7v-0.8
			c1.2-0.2,1.8-0.8,1.8-1.7c0-0.6-0.2-1.3-0.7-2.1L306.2,248.8z M293.8,214.5c1.1,0,1.9,0.4,2.6,1.1c0.7,0.7,1.1,1.6,1.1,2.6
			c0,1-0.4,1.8-1.1,2.5c-0.7,0.7-1.6,1.1-2.6,1.1c-1,0-1.8-0.4-2.6-1.1c-0.7-0.7-1.1-1.5-1.1-2.6c0-1,0.3-1.9,1-2.5
			C291.9,214.9,292.8,214.6,293.8,214.5z M303.9,244.4l-5.1-10l-4.9,10H303.9z M304.9,214.5c1,0,1.9,0.4,2.6,1.1
			c0.7,0.7,1.1,1.6,1.1,2.5c0,1.1-0.4,1.9-1.1,2.6c-0.7,0.7-1.6,1.1-2.6,1.1c-1,0-1.8-0.4-2.5-1.1c-0.7-0.7-1-1.6-1-2.6
			c0-1,0.3-1.8,1-2.5C303,214.9,303.8,214.6,304.9,214.5z"/>
		<path class="st5" d="M341.5,240.3l9.3,12.3c0.8,1.1,1.5,1.8,2.2,2.3c0.7,0.5,1.5,0.8,2.3,0.9v0.8H341v-0.8
			c1.2-0.3,1.8-0.8,1.8-1.5c0-0.4-0.3-1-0.9-1.8l-4.9-6.5l-5.2,6.5c-0.5,0.7-0.8,1.2-0.8,1.7c0,0.7,0.6,1.2,1.8,1.6v0.8h-13.3v-0.8
			c0.9-0.2,1.6-0.5,2.1-0.9c0.5-0.4,1.2-1.1,2.1-2.3l9.4-11.8l-8.3-10.9c-1.7-2.3-3.2-3.6-4.5-3.8v-0.8h14.2v0.8
			c-1.2,0.3-1.8,0.9-1.8,1.7c0,0.5,0.3,1.1,0.9,1.9l4.1,5.4l4-5.1c0.8-1,1.1-1.8,1.1-2.3c0-0.8-0.6-1.4-1.8-1.6v-0.8h13.6v0.8
			c-1,0.2-1.7,0.5-2.2,0.9c-0.5,0.4-1.3,1.4-2.5,2.9L341.5,240.3z"/>
		<path class="st5" d="M375.5,231v22.7c0,0.6,0.1,1,0.4,1.3c0.3,0.3,0.7,0.6,1.4,0.8v0.8h-11v-0.8c0.6-0.2,1.1-0.4,1.4-0.7
			c0.3-0.3,0.4-0.8,0.4-1.3V231h-9.2c-0.6,0-1,0.1-1.4,0.4c-0.3,0.3-0.6,0.7-0.7,1.4H356v-9.2h0.8c0.2,0.7,0.4,1.1,0.7,1.4
			c0.3,0.3,0.8,0.4,1.4,0.4h25.9c0.6,0,1-0.1,1.4-0.4c0.3-0.3,0.6-0.7,0.7-1.4h0.8v9.2h-0.8c-0.2-0.7-0.4-1.1-0.7-1.4
			c-0.3-0.3-0.8-0.4-1.4-0.4H375.5z"/>
		<path class="st5" d="M417.7,243h-17.4v10.7c0,0.6,0.1,1,0.4,1.3c0.3,0.3,0.7,0.6,1.4,0.8v0.8h-11v-0.8c0.6-0.2,1.1-0.4,1.4-0.7
			c0.3-0.3,0.4-0.8,0.4-1.3v-25.5c0-0.6-0.1-1-0.4-1.3c-0.3-0.3-0.7-0.5-1.4-0.8v-0.8h11v0.8c-0.7,0.2-1.1,0.4-1.4,0.7
			c-0.3,0.3-0.4,0.7-0.4,1.3v9.1h17.4v-9.1c0-0.6-0.1-1-0.4-1.3s-0.7-0.5-1.4-0.8v-0.8h11v0.8c-0.7,0.2-1.1,0.4-1.4,0.7
			c-0.3,0.3-0.4,0.7-0.4,1.3v25.5c0,0.6,0.1,1,0.4,1.3c0.3,0.3,0.7,0.6,1.4,0.8v0.8h-11v-0.8c0.6-0.2,1.1-0.4,1.4-0.7
			c0.3-0.3,0.4-0.8,0.4-1.3V243z"/>
		<path class="st5" d="M465.1,228.2v16.5c0,3.8-0.7,6.5-2.2,8.3c-2.4,2.8-6.9,4.2-13.5,4.2c-4.4,0-8-0.7-10.7-2c-2-1-3.3-2.4-4-4.2
			c-0.7-1.7-1-3.8-1-6.3v-16.5c0-0.6-0.1-1-0.4-1.3c-0.3-0.3-0.7-0.5-1.4-0.8v-0.8h11v0.8c-0.7,0.2-1.1,0.4-1.4,0.7
			c-0.3,0.3-0.4,0.7-0.4,1.3v15c0,1.7,0.2,3.1,0.5,4c0.3,0.9,0.8,1.7,1.6,2.3c1.5,1.2,3.7,1.8,6.6,1.8c2.9,0,5.1-0.6,6.6-1.8
			c0.7-0.6,1.3-1.4,1.6-2.3c0.3-0.9,0.4-2.3,0.4-4v-15c0-0.6-0.1-1-0.4-1.3c-0.3-0.3-0.7-0.5-1.4-0.8v-0.8h10.4v0.8
			c-0.7,0.2-1.1,0.4-1.4,0.7C465.3,227.2,465.1,227.7,465.1,228.2z"/>
		<path class="st5" d="M501.8,228.2l-3.8,7.3l-0.7-0.4c0-0.6-0.2-1.1-0.6-1.4c-1.1-0.9-2.6-1.7-4.7-2.3c-2.1-0.6-4.1-0.9-6.3-0.9
			c-1.8,0-3.4,0.3-4.8,0.8c-2,0.7-3,1.8-3,3.1c0,0.9,0.5,1.6,1.4,1.9c1,0.4,2.8,0.7,5.6,0.9l4.4,0.3c3.8,0.3,6.8,1,8.8,2.2
			c1.1,0.7,2,1.6,2.8,2.7c0.9,1.4,1.4,3,1.4,4.7c0,3.2-1.4,5.7-4.3,7.5c-2.7,1.8-6.4,2.6-11.1,2.6c-4.7,0-9.2-1-13.6-3
			c-0.3-0.1-0.5-0.2-0.8-0.2c-0.4,0-0.7,0.2-1,0.7l-0.7-0.3l3.2-7.6l0.7,0.3c0,0.1,0,0.2,0,0.2c0,0.5,0.2,0.9,0.6,1.2
			c0.9,0.8,2.5,1.5,4.8,2.1c2.3,0.6,4.5,0.9,6.8,0.9c2,0,3.7-0.3,5.3-0.8c1.9-0.6,2.9-1.7,2.9-3.1c0-1.1-0.7-1.9-2-2.4
			c-0.9-0.3-2.5-0.5-4.8-0.8l-4.4-0.4c-2.4-0.2-4.2-0.4-5.4-0.7c-1.2-0.3-2.3-0.7-3.3-1.3c-1.2-0.7-2.1-1.8-2.8-3
			c-0.7-1.3-1-2.7-1-4.2c0-3.4,1.5-6,4.4-7.8c2.7-1.6,6-2.4,9.9-2.4c2.1,0,4.1,0.2,6,0.7s4.1,1.3,6.6,2.5c0.8,0.4,1.3,0.5,1.6,0.5
			c0.3,0,0.7-0.2,1.1-0.6L501.8,228.2z"/>
		<path class="st5" d="M535,244.5h-7.1c-0.6,0-1,0.1-1.4,0.4c-0.3,0.3-0.6,0.7-0.7,1.4h-0.8v-8.3h0.8c0.2,0.7,0.4,1.1,0.7,1.4
			c0.3,0.3,0.8,0.4,1.4,0.4h14.8v0.8c-0.6,0.2-1.1,0.5-1.4,0.8c-0.3,0.4-0.4,0.9-0.4,1.5v6.6c0,0.6,0.1,1,0.4,1.3
			c0.3,0.3,0.7,0.6,1.4,0.8v0.6c-6,3.3-12,5-18,5c-5.2,0-9.3-1.2-12.5-3.6c-1.7-1.3-3.1-3-4.2-5c-1.2-2.3-1.9-4.8-1.9-7.5
			c0-3.7,1.1-6.9,3.4-9.8c3.5-4.4,8.7-6.6,15.6-6.6c3,0,6.5,0.7,10.4,2c1.5,0.5,2.4,0.8,2.7,0.8c0.3,0,0.7-0.1,1.1-0.4l0.7,0.4
			l-3.7,7.8l-0.7-0.3c0-0.1,0-0.1,0-0.2c0-0.7-0.7-1.4-2.1-2.1c-2.5-1.4-5.3-2-8.2-2c-3.4,0-6.1,0.9-8.3,2.8
			c-2.3,1.9-3.4,4.5-3.4,7.8c0,3.1,1,5.5,3.1,7.3c2.1,1.9,5.1,2.8,8.9,2.8c3.6,0,6.7-0.7,9.2-2V244.5z"/>
		<path class="st5" d="M570.6,248.8h-14.3l-1.6,3.4c-0.4,0.8-0.6,1.5-0.6,1.9c0,0.9,0.6,1.5,1.8,1.7v0.8h-11.5v-0.8
			c0.7-0.1,1.2-0.3,1.6-0.6c0.3-0.3,0.7-0.9,1.2-1.9l11.4-23c0.4-0.9,0.6-1.6,0.6-2.3c0-0.8-0.5-1.4-1.6-1.8v-0.8h12.1v0.8
			c-1,0.4-1.5,1-1.5,1.9c0,0.6,0.2,1.4,0.7,2.3l11.8,22.4c0.6,1.2,1.2,2,1.5,2.4c0.4,0.4,0.9,0.6,1.7,0.8v0.8h-12.7v-0.8
			c1.2-0.2,1.8-0.8,1.8-1.7c0-0.6-0.2-1.3-0.7-2.1L570.6,248.8z M568.4,244.4l-5.1-10l-4.9,10H568.4z"/>
		<path class="st5" d="M616.5,228.2l-3.8,7.3l-0.7-0.4c0-0.6-0.2-1.1-0.6-1.4c-1.1-0.9-2.6-1.7-4.7-2.3c-2.1-0.6-4.1-0.9-6.3-0.9
			c-1.8,0-3.4,0.3-4.8,0.8c-2,0.7-3,1.8-3,3.1c0,0.9,0.5,1.6,1.4,1.9c1,0.4,2.8,0.7,5.6,0.9l4.4,0.3c3.8,0.3,6.8,1,8.8,2.2
			c1.1,0.7,2,1.6,2.8,2.7c0.9,1.4,1.4,3,1.4,4.7c0,3.2-1.4,5.7-4.3,7.5c-2.7,1.8-6.4,2.6-11.1,2.6c-4.7,0-9.2-1-13.6-3
			c-0.3-0.1-0.5-0.2-0.8-0.2c-0.4,0-0.7,0.2-1,0.7l-0.7-0.3l3.2-7.6l0.7,0.3c0,0.1,0,0.2,0,0.2c0,0.5,0.2,0.9,0.6,1.2
			c0.9,0.8,2.5,1.5,4.8,2.1c2.3,0.6,4.5,0.9,6.8,0.9c2,0,3.7-0.3,5.3-0.8c1.9-0.6,2.9-1.7,2.9-3.1c0-1.1-0.7-1.9-2-2.4
			c-0.9-0.3-2.5-0.5-4.8-0.8l-4.4-0.4c-2.4-0.2-4.2-0.4-5.4-0.7c-1.2-0.3-2.3-0.7-3.3-1.3c-1.2-0.7-2.1-1.8-2.8-3
			c-0.7-1.3-1-2.7-1-4.2c0-3.4,1.5-6,4.4-7.8c2.7-1.6,6-2.4,9.9-2.4c2.1,0,4.1,0.2,6,0.7s4.1,1.3,6.6,2.5c0.8,0.4,1.3,0.5,1.6,0.5
			c0.3,0,0.7-0.2,1.1-0.6L616.5,228.2z"/>
		<path class="st5" d="M645.1,228.2v25.5c0,0.6,0.1,1,0.4,1.3c0.3,0.3,0.7,0.6,1.4,0.8v0.8h-11v-0.8c0.6-0.2,1.1-0.4,1.4-0.7
			c0.3-0.3,0.4-0.8,0.4-1.3v-25.5c0-0.6-0.1-1-0.4-1.3c-0.3-0.3-0.7-0.5-1.4-0.8v-0.8h11v0.8c-0.7,0.2-1.1,0.4-1.4,0.7
			C645.3,227.2,645.1,227.7,645.1,228.2z"/>
		<path class="st5" d="M706,221.5v21.3c0,4-0.7,7-2.2,9c-2.7,3.6-8.2,5.4-16.6,5.4c-6,0-10.7-1-13.9-2.9c-1.9-1.1-3.2-2.7-3.9-4.6
			c-0.7-1.9-1.1-4.2-1.1-6.9v-21.3c0-0.6-0.1-1-0.4-1.3c-0.3-0.3-0.7-0.5-1.4-0.7v-0.9h11.9v0.9c-0.7,0.2-1.1,0.4-1.4,0.7
			c-0.3,0.3-0.4,0.7-0.4,1.3v19c0,2.2,0.1,3.8,0.4,4.9c0.2,1,0.7,1.9,1.4,2.6c1.8,1.9,4.8,2.8,9.1,2.8c4.3,0,7.4-0.9,9.2-2.8
			c0.6-0.7,1.1-1.6,1.3-2.6c0.2-1,0.4-2.7,0.4-4.9v-19c0-0.6-0.1-1-0.4-1.3c-0.3-0.3-0.7-0.5-1.4-0.7v-0.9h11.2v0.9
			c-0.7,0.2-1.1,0.4-1.4,0.7C706.2,220.5,706,220.9,706,221.5z"/>
		<path class="st5" d="M733,256.6l-11.4-20.5v17.6c0,0.6,0.1,1,0.4,1.3c0.3,0.3,0.7,0.6,1.4,0.8v0.8H713v-0.8
			c0.6-0.2,1.1-0.4,1.4-0.7c0.3-0.3,0.4-0.8,0.4-1.3v-25.5c0-0.6-0.1-1-0.4-1.3c-0.3-0.3-0.7-0.6-1.4-0.7v-0.8h13.2v0.8
			c-0.9,0.3-1.3,0.8-1.3,1.6c0,0.8,0.3,1.7,0.9,2.8l7.8,14.1l7.8-13.9c0.9-1.5,1.3-2.5,1.3-3.1c0-0.8-0.5-1.2-1.4-1.4v-0.8h12.8v0.8
			c-0.7,0.2-1.1,0.4-1.4,0.7c-0.3,0.3-0.4,0.7-0.4,1.3v25.5c0,0.6,0.1,1,0.4,1.3c0.3,0.3,0.7,0.6,1.4,0.8v0.8h-11v-0.8
			c0.6-0.2,1.1-0.4,1.4-0.7c0.3-0.3,0.4-0.8,0.4-1.3v-17.7L733,256.6z"/>
		<path class="st5" d="M769,243.3v7.6h19.8c0.6,0,1-0.1,1.3-0.4c0.3-0.3,0.6-0.7,0.7-1.4h0.8v9.2h-0.8c-0.2-0.6-0.4-1.1-0.7-1.4
			c-0.3-0.3-0.8-0.4-1.3-0.4h-29v-0.8c0.6-0.2,1.1-0.4,1.4-0.7c0.3-0.3,0.4-0.8,0.4-1.3v-25.5c0-0.6-0.1-1-0.4-1.3
			c-0.3-0.3-0.7-0.5-1.4-0.8v-0.8h28.2c0.6,0,1-0.1,1.3-0.4c0.3-0.3,0.6-0.7,0.7-1.4h0.8v9.2H790c-0.2-0.7-0.4-1.1-0.7-1.4
			c-0.3-0.3-0.8-0.4-1.3-0.4H769v6.8h11.7c0.6,0,1-0.1,1.3-0.4c0.3-0.3,0.6-0.7,0.8-1.4h0.8v9h-0.8c-0.2-0.7-0.4-1.1-0.7-1.4
			c-0.3-0.3-0.8-0.4-1.4-0.4H769z"/>
		<path class="st5" d="M819.9,248.8h-14.3l-1.6,3.4c-0.4,0.8-0.6,1.5-0.6,1.9c0,0.9,0.6,1.5,1.8,1.7v0.8h-11.5v-0.8
			c0.7-0.1,1.2-0.3,1.6-0.6c0.3-0.3,0.7-0.9,1.2-1.9l11.4-23c0.4-0.9,0.6-1.6,0.6-2.3c0-0.8-0.5-1.4-1.6-1.8v-0.8h12.1v0.8
			c-1,0.4-1.5,1-1.5,1.9c0,0.6,0.2,1.4,0.7,2.3l11.8,22.4c0.6,1.2,1.2,2,1.5,2.4c0.4,0.4,0.9,0.6,1.7,0.8v0.8h-12.7v-0.8
			c1.2-0.2,1.8-0.8,1.8-1.7c0-0.6-0.2-1.3-0.7-2.1L819.9,248.8z M813.1,212.6c1.8,0,3.3,0.5,4.5,1.5c1.2,1,1.9,2.3,1.9,3.7
			c0,1.5-0.6,2.7-1.9,3.7c-1.3,1-2.8,1.5-4.5,1.5c-1.8,0-3.3-0.5-4.5-1.5c-1.2-1-1.9-2.3-1.9-3.7c0-1.5,0.6-2.7,1.8-3.7
			C809.8,213.1,811.3,212.6,813.1,212.6z M817.7,244.4l-5.1-10l-4.9,10H817.7z M813.1,215.5c-0.8,0-1.5,0.2-2,0.7
			c-0.5,0.4-0.8,1-0.8,1.7c0,0.7,0.3,1.2,0.8,1.7c0.5,0.5,1.2,0.7,2,0.7c0.8,0,1.4-0.2,2-0.7c0.6-0.5,0.8-1,0.8-1.6
			c0-0.7-0.3-1.3-0.8-1.7C814.6,215.7,813.9,215.5,813.1,215.5z"/>
	</g>
</g>
<g id="Lager_2" class="st6">
	<g id="freepik--sun-2--inject-50" class="st7">
		<circle class="st3" cx="1373.6" cy="-152.5" r="30.7"/>
		<path class="st1" d="M1373.6-120.7c-17.6,0-31.8-14.3-31.8-31.8s14.3-31.8,31.8-31.8s31.8,14.3,31.8,31.8l0,0
			C1405.4-135,1391.2-120.7,1373.6-120.7z M1373.6-182.3c-16.4,0-29.7,13.3-29.7,29.7s13.3,29.7,29.7,29.7s29.7-13.3,29.7-29.7l0,0
			C1403.3-168.9,1390-182.2,1373.6-182.3L1373.6-182.3z"/>
		<path class="st1" d="M1373.6-79.7c-0.6,0-1.1-0.5-1.1-1.1V-109c0-0.6,0.5-1.1,1.1-1.1s1.1,0.5,1.1,1.1v28.2
			C1374.6-80.2,1374.1-79.7,1373.6-79.7z"/>
		<path class="st1" d="M1373.6-191.2c-0.6,0-1.1-0.5-1.1-1.1v-28.2c0-0.6,0.5-1.1,1.1-1.1s1.1,0.5,1.1,1.1v28.2
			C1374.6-191.6,1374.2-191.2,1373.6-191.2L1373.6-191.2z"/>
		<path class="st1" d="M1331.9-149.5h-28.1c-0.6,0-1.1-0.5-1.1-1.1s0.5-1.1,1.1-1.1h28.1c0.6,0,1.1,0.5,1.1,1.1
			C1332.9-150,1332.5-149.5,1331.9-149.5z"/>
		<path class="st1" d="M1443.4-149.5h-28.2c-0.6,0-1.1-0.5-1.1-1.1s0.5-1.1,1.1-1.1h28.2c0.6,0,1.1,0.5,1.1,1.1
			S1444-149.5,1443.4-149.5z"/>
		<path class="st1" d="M1324.2-100.1c-0.3,0-0.6-0.1-0.8-0.3c-0.4-0.4-0.4-1.1,0-1.5l19.9-19.9c0.4-0.4,1.1-0.4,1.5,0s0.4,1.1,0,1.5
			l0,0l-19.9,19.9C1324.8-100.3,1324.5-100.1,1324.2-100.1z"/>
		<path class="st1" d="M1403-179c-0.6,0-1.1-0.5-1-1.1c0-0.3,0.1-0.5,0.3-0.7l19.9-20c0.4-0.4,1.1-0.4,1.5,0s0.4,1.1,0,1.5l0,0
			l-19.9,19.9C1403.6-179.1,1403.3-179,1403-179z"/>
		<path class="st1" d="M1344.1-179c-0.3,0-0.5-0.1-0.7-0.3l-20-19.9c-0.4-0.4-0.4-1.1,0-1.5s1.1-0.4,1.5,0l19.9,19.9
			c0.4,0.4,0.4,1.1,0,1.5C1344.6-179.1,1344.4-179,1344.1-179z"/>
		<path class="st1" d="M1423-100.1c-0.3,0-0.6-0.1-0.8-0.3l-19.9-19.9c-0.4-0.4-0.4-1.1,0-1.5l0,0c0.4-0.4,1.1-0.4,1.5,0l19.9,19.9
			c0.4,0.4,0.4,1.1,0,1.5l0,0C1423.5-100.3,1423.2-100.1,1423-100.1L1423-100.1z"/>
	</g>
	<g class="st7">
		<path class="st3" d="M1825.8,695.5c0-1.3,0.3-2.7,0.8-4c1.9-7.6-5.7-32.6-3.8-53.7s34.3-38.3,34.3-38.3H1838
			c-19.2,0-32.6,27-32.6,27c3.2-14.6,4.6-29.4,3.8-44.2c-1.9-19.2-21-27-27-46.1s5.7-27,22.9-48s19.2-51.8,19.2-51.8
			s-15.4,17.3-55.6,28.6c-40.2,11.3-27,30.8-27,30.8l-7.6-7.6c-7.6-7.8-7.6-30.8,7.6-44.2c15.4-13.5,11.3-53.7-7.6-76.9
			c-19.2-23.2-13.5-72.8-17.3-65.3c-3.8,7.6-1.9,30.8,0,59.6c0.8,17.3-6.2,34.3-19.2,45.9c0,0,0-30.8-19.2-51.8
			c-19.2-21-30.8-11.3-28.6-48c2.2-36.4,17.3-25.1,19.2-49.9c1.9-25.1-23.5-58.5-26.2-76.4c-2.7-17.8-14.3-65.3-14.3-65.3
			c-14.6,15.1-22.9,35.1-22.9,56.1c0,35.1,7,35.1-4.6,52.1c-11.6,16.7-59.4,31-51,11.9c8.6-19.2,21.9-53.2,21.9-53.2
			c-34.3-1.9-44.5,37.8-62.1,3.2c-17.5-34.5,45.9-72.3,45.9-72.3s-52.9,0-70.2,17.5s-16.2,32.4-37.5,43.7
			c-21,11.6-28.6-9.4-53.4-15.6c-24.6-6.2-59.9,10-67.7,34.8c-7.8,24.8,1.9,34.3-28.6,34.3s-19.2-44.2-19.2-44.2s-22.9,27-13.5,51.5
			c9.4,24.6,15.4,19.2,1.9,36.4c-13.5,17.3-38.3,7.6-63.4,36.4c-25.1,28.9-31.8,48.3-31.8,48.3
			C1432.4,357.4,1675.8,483.7,1825.8,695.5L1825.8,695.5z"/>
		<path class="st8" d="M1825.8,695.5c0-1.3,0.3-2.7,0.8-4c1.9-7.6-5.7-32.6-3.8-53.7s34.3-38.3,34.3-38.3H1838
			c-19.2,0-32.6,27-32.6,27c3.2-14.6,4.6-29.4,3.8-44.2c-1.9-19.2-21-27-27-46.1s5.7-27,22.9-48s19.2-51.8,19.2-51.8
			s-15.4,17.3-55.6,28.6c-40.2,11.3-27,30.8-27,30.8l-7.6-7.6c-7.6-7.8-7.6-30.8,7.6-44.2c15.4-13.5,11.3-53.7-7.6-76.9
			c-19.2-23.2-13.5-72.8-17.3-65.3c-3.8,7.6-1.9,30.8,0,59.6c0.8,17.3-6.2,34.3-19.2,45.9c0,0,0-30.8-19.2-51.8
			c-19.2-21-30.8-11.3-28.6-48c2.2-36.4,17.3-25.1,19.2-49.9c1.9-25.1-23.5-58.5-26.2-76.4c-2.7-17.8-14.3-65.3-14.3-65.3
			c-14.6,15.1-22.9,35.1-22.9,56.1c0,35.1,7,35.1-4.6,52.1c-11.6,16.7-59.4,31-51,11.9c8.6-19.2,21.9-53.2,21.9-53.2
			c-34.3-1.9-44.5,37.8-62.1,3.2c-17.5-34.5,45.9-72.3,45.9-72.3s-52.9,0-70.2,17.5s-16.2,32.4-37.5,43.7
			c-21,11.6-28.6-9.4-53.4-15.6c-24.6-6.2-59.9,10-67.7,34.8c-7.8,24.8,1.9,34.3-28.6,34.3s-19.2-44.2-19.2-44.2s-22.9,27-13.5,51.5
			c9.4,24.6,15.4,19.2,1.9,36.4c-13.5,17.3-38.3,7.6-63.4,36.4c-25.1,28.9-31.8,48.3-31.8,48.3
			C1432.4,357.4,1675.8,483.7,1825.8,695.5L1825.8,695.5z"/>
		<path class="st3" d="M1662.8,525.5c-0.3-1.1-0.3-1.9,0-3c1.3-5.4,14.6-6.5,21-21c6.7-14.6-2.7-27.8-5.4-43.4s18.3-32.9,18.3-32.9
			s-21,1.3-26.4,11.9c-5.4,10.5,0,26.4-9.2,35.6c-9.2,9.2-31.6,9.2-28.9-7.8c2.7-17,28.9-19.7,23.7-51.5
			c-5.4-31.8-31.6-59.4-48.8-63.4c-17-4-31.6-39.7-31.6-39.7s-4,7.8,5.7,24c9.7,16.2,7.6,23.5,25.9,32.6c18.3,9.2,21,22.4,15.9,50.2
			c-5.4,27.8-38.3,18.3-40.7,5.4c-2.7-13.2,10.5-21,10.5-21s-18.9-11.9-23.7-9.2c-17.3,9.2-15.9,18.3-25.1,30.2
			c-9.2,11.9-15.9-4-18.3-17.3c-2.7-13.2,15.9-21,15.9-21c-7-1.3-14-1.3-21,0c-7.8,2.7-2.7,17.3-15.9,27.8
			c-13.2,10.5-11.9-9.2-11.1-37.2c0.8-28.1-27.3-16.7-27.3-16.7c8.6,5.1,14.6,13.8,15.9,23.7c2.7,17.3-26.4,10.5-31.6,0
			c-5.4-10.5-1.3-10.5-11.9-19.7c-10.5-9.2-11.9,0-15.9-9.2s8.4-39.4,5.1-42.1c-3.5-2.7-22.1,15.6-24.8,34.3
			c-2.7,18.6-27.8,0-32.9-25.1c-5.4-25.1,11.9-27.3,11.3-60.7c-1.3-22.4-8.1-44.2-19.4-63.4c0,0,5.1,20,10.5,38.6
			c5.4,18.6-9.2,31.6-19.7,23.7s-11.9-41-11.9-41c-5.1,7.8-8.1,17-7.8,26.4c0,15.9-5.4,25.9,13.2,46.1c18.3,20.5,2.7,31.6-15.9,42.1
			c-18.6,10.5-21,5.4-21,5.4c2.7-7.6,3.8-15.6,4-23.7c-0.5-8.6-3.8-17-9.2-23.7c-1.1,11.6-5.7,22.7-13.2,31.6
			c-11.9,11.9-35.6,2.7-55.3,7.8c-17.5,4.6-28.6,24.8-31.3,29.4C1371.2,364.9,1531.4,423.5,1662.8,525.5L1662.8,525.5z"/>
		<circle class="st1" cx="1347.2" cy="354.4" r="7.3"/>
		<path class="st1" d="M1387.4,364.1c0,2.2-1.9,4-4,4c-2.2,0-4-1.9-4-4c0-2.2,1.9-4,4-4C1385.5,360.4,1387.4,362,1387.4,364.1
			L1387.4,364.1z"/>
		<path class="st1" d="M1358.2,331.5c0,1.3-1.1,2.7-2.4,2.7l0,0c-1.3,0-2.7-1.1-2.7-2.7s1.1-2.7,2.7-2.7
			C1357.2,328.8,1358.2,329.9,1358.2,331.5z"/>
		<path class="st1" d="M1466.4,399.2c0,1.9-1.3,3.2-3.2,3.2l0,0c-1.9,0-3.2-1.6-3.2-3.2c0-1.9,1.6-3.2,3.2-3.2l0,0
			C1465.1,396,1466.4,397.3,1466.4,399.2C1466.4,398.9,1466.4,399.2,1466.4,399.2L1466.4,399.2z"/>
		<path class="st1" d="M1425.7,381.4c0,3-2.4,5.4-5.4,5.4s-5.4-2.4-5.4-5.4c0-3,2.4-5.4,5.4-5.4l0,0
			C1423.3,376,1425.4,378.4,1425.7,381.4L1425.7,381.4z"/>
		<path class="st1" d="M1574.6,434.8c0,1.9-1.3,3.2-3.2,3.2l0,0c-1.9,0-3.2-1.3-3.2-3.2l0,0c0-1.9,1.6-3.2,3.2-3.2
			C1573,431.6,1574.6,432.9,1574.6,434.8L1574.6,434.8L1574.6,434.8z"/>
		<path class="st1" d="M1610.2,455.9c0,2.7-1.9,4.6-4.6,4.6c-2.7,0-4.6-1.9-4.6-4.6s1.9-4.6,4.6-4.6l0,0
			C1608.1,451.3,1610.2,453.4,1610.2,455.9L1610.2,455.9z"/>
		<circle class="st1" cx="1576.5" cy="449.4" r="4.6"/>
		<path class="st1" d="M1636.7,482.3c0,3.2-2.7,5.7-5.7,5.7c-3.2,0-5.7-2.7-5.7-5.7c0-3,2.7-5.7,5.7-5.7
			C1634,476.6,1636.7,479.1,1636.7,482.3z"/>
		<path class="st1" d="M1635.3,430.8c0,1.9-1.6,3.2-3.2,3.2l0,0c-1.9,0-3.2-1.3-3.2-3.2l0,0c0-1.9,1.3-3.2,3.2-3.2l0,0
			C1633.7,427.5,1635.3,428.9,1635.3,430.8L1635.3,430.8z"/>
		<circle class="st1" cx="1655.8" cy="495.5" r="4.6"/>
		<path class="st1" d="M1291.1,341.7c0,2.2-1.9,4-4,4s-4-1.9-4-4c0-2.2,1.9-4,4-4S1291.1,339.6,1291.1,341.7L1291.1,341.7z"/>
		<path class="st1" d="M1266,349.8c0,3-2.4,5.4-5.4,5.4c-3,0-5.4-2.4-5.4-5.4c0-3,2.4-5.4,5.4-5.4l0,0
			C1263.5,344.4,1266,346.9,1266,349.8L1266,349.8z"/>
	</g>
	<path class="st9" d="M1284.8,494.4c0.8,1.9,1.3,3.8,1.9,5.7c0,1.1,0.5,2.2,0.8,3.2c0.3,1.1,0.8,2.2,1.3,3.2c2.2,4,4.9,7.6,8.4,10.3
		c3.5,2.7,7,5.4,10.5,7.8c0.8,0.5,1.6,1.1,2.4,1.9l2.4,2.2c1.6,1.3,3.2,2.7,4.6,4.3l9.2,8.9l0,0c0,0,0.3,0.3,0.5,0.3l4.9,1.3h2.2
		c0.8,0.3,1.3,0.8,1.9,1.1c2.7,1.9,1.1,3,3.5,5.1c2.7,2.2,4.6,5.7,7.3,7.6l7.6,15.9c0,0.3-0.5,9.7-0.5,10.3
		c-0.8,5.4-0.8,11.1,0,16.5c0,8.6-1.9,32.4-0.8,35.6c0.5,1.6,1.9,69.9-2.7,130.3c9.2,5.4,18.3,11.3,27.3,17.3l-7-148.9v-37.2
		c-0.3-6.5,0.3-13.2,1.1-19.7c4.6-5.1,8.9-10.5,12.7-16.2l0,0l0.8-0.8c0.3-0.3,0.5-0.5,0.8-0.8l0.5-0.8l0.5-0.8
		c0.8-1.1,1.6-1.9,2.4-3l15.6-18.6l4.3,0.8l6.2,1.1l3,0.5c1.1,0.3,2.2,0.3,3,0.3c2.2,0,4.3-0.3,6.5-0.8l0,0c4.9-2.7,10-5.7,14.8-8.4
		l14.6-8.4l7.6-0.5c2.7,0,5.4-0.5,7.8-1.1c2.7-0.5,5.1-0.8,7.8-1.3c2.7-0.5,5.1-1.1,7.8-1.9h-8.1l-7.8,0.5c-2.7,0-5.4,0.5-7.8,1.1
		l-7.8,1.3l0,0c0,0-0.3,0-0.5,0l-14.3,9.4c-4.6,3.2-9.4,6.2-14,9.4c-1.9-1.1-3.8-1.6-5.7-2.2c-1.1,0-2.2,0-3,0H1406l3.2-3.8
		l10.5-10.5l10.3-5.4l10.5-5.7l5.1-3c0.8-0.5,1.6-0.8,2.7-1.1l2.7-0.8c3.8-0.8,7.6-1.6,11.3-2.4c-4,0-7.8,0.5-11.9,1.1
		c-1.1,0-1.9,0.3-3,0.5c-0.5,0-1.1,0.3-1.6,0.3c-0.5,0.3-0.8,0.3-1.3,0.5l-5.4,2.4l-21.6,10.5l-0.3,0.3l0,0l-10.8,10.5l0,0l-7.6,9.2
		l-1.9,1.3c0.8-1.3,1.3-2.7,2.2-4c0.8-1.3,1.9-4.3,2.7-6.7l2.7-6.7l1.6-3.2c0.5-1.1,1.3-2.2,1.9-3.5l3.5-6.7l0,0l-4.6,6.2l-2.2,3.2
		l-2.2,3.2l0,0l-3.2,6.5c-1.1,2.2-2.2,4.3-3.2,6.5c-1.1,2.2-1.9,4.6-2.7,6.7c-0.8,2.2-1.3,4-1.9,6.5l-4.3,5.7l-0.8,3.8l-0.5,0.8
		l-0.5,0.8c0,0-0.3,0.3-0.3,0.5l-0.5,0.5l-0.8,0.8l-12.1,6.7l-3-4.3l-2.2-9.2l-2.4-5.7l-6.2-9.4l4.3-6.2l6.2-8.4
		c1.1-1.3,2.2-2.7,3.2-3.8h1.6l2.4-0.5l10.3-2.4h0.3l16.7-10.5l0,0c0.5-0.8,1.1-1.3,1.6-1.9l12.1-7.3c4.9-2.7,9.4-5.7,14.3-8.6
		c2.4-0.3,4.9-1.1,7-2.2c1.3-0.5,2.4-1.6,3.2-2.7c0.3-0.3,0.3-0.8,0.5-1.1l0,0l5.4,1.3l6.7,1.6l13.5,3c0.5,0,1.1,0,1.3-0.5l0,0
		c1.3-1.6,2.7-3,3.8-4.6l3.5-1.6l3.8-1.9l3.5-2.2c1.1-0.8,2.4-1.6,3.5-2.4l0,0c-1.3,0-2.7,0.5-4,1.1l-4,1.3l-3.8,1.6
		c-1.3,0.5-2.7,1.1-3.8,1.6l0,0c0,0-0.5,0.3-0.5,0.5c-1.1,1.6-2.2,3-3.2,4.6l-12.7-1.9l-6.7-0.8l-5.7-0.8v-0.3l0.5-1.6l2.7-6.7
		c0.8-2.2,1.6-4,2.4-6.2l6.7-5.1c2.4-1.9,4.6-3.8,7-5.7l0,0c2.2-1.6,4.3-3.2,6.5-4.9l0,0c-2.4,1.1-4.9,2.2-7.3,3.5l0,0
		c-2.4,1.6-5.1,3.2-7.6,4.9l-7.6,5.1c0,0-0.5,0.5-0.5,0.8l0,0c-0.8,2.2-1.6,4.6-2.4,6.7l-2.2,6.7l-0.5,1.6v1.3
		c-0.5,0.8-1.3,1.6-2.2,2.2c-1.9,1.1-4,1.9-6.5,2.2h-0.3c-4.6,3.2-9.4,6.2-14,9.4l-10.5,7.3c0.8-1.1,1.3-2.2,1.9-3.2
		c0.5-1.1,1.1-2.4,1.6-3.5l1.1-3.5c1.6-4.6,3.2-9.4,4.9-14c0.8-2.4,1.6-4.6,2.7-7c0.5-1.1,1.1-2.2,1.6-3.5c0.3-0.5,0.5-1.1,0.8-1.6
		c0-0.3,0.3-0.5,0.5-0.8l0.3-0.3l0.3-0.3c1.6-1.9,3-4,4-6.2c1.1-2.2,2.4-4.3,3.5-6.7l0,0c-1.1,2.2-2.4,4.3-3.5,6.5
		c-1.1,2.2-2.7,4-4.3,5.7c-0.3,0.3-0.5,0.5-0.5,0.8c-0.3,0.3-0.5,0.5-0.5,0.8c-0.3,0.5-0.8,1.1-1.1,1.6c-0.5,1.1-1.1,2.2-1.6,3.5
		c-1.1,2.2-1.9,4.6-3,6.7c-1.9,4.6-3.5,9.2-5.4,14l-1.3,3.5c-0.3,1.1-0.8,2.2-1.3,3.2c-1.1,2.2-2.4,4-4,5.7l-16.2,9.7
		c-0.5-3.5-1.1-7-1.9-10.5c-0.3-1.1-0.5-2.2-0.8-3v-0.8c0,0-0.3-0.5-0.3-0.8c0-0.3-0.3-0.5-0.3-0.8l-0.3-0.8
		c-0.8-1.9-1.6-3.8-2.4-5.7c-0.8-1.9-1.3-3.8-1.9-5.7c-0.3-0.8-0.3-1.6-0.3-2.4v-1.3c0-0.5,0-1.1,0-1.6c0-2.2,0-4,0-6.2
		s-0.3-4-0.5-6.2l0,0c-1.1,4-1.9,8.1-2.4,12.1c0,0.5,0,1.1-0.3,1.3s0,0.5-0.3,1.6c0,1.3,0.3,2.4,0.5,3.8c0.8,1.9,1.6,3.8,2.7,5.7
		c1.1,1.9,1.9,3.8,3,5.7l0.3,0.8l0.3,0.5c0,0.3,0.3,0.3,0.3,0.5l0.3,0.8c0.3,0.8,0.8,1.9,1.1,3c1.1,3.5,2.2,7,3.2,10.5l-10,1.9
		l-2.7,0.5h-2.2c-0.3,0-0.5,0.3-0.8,0.5c-1.3,1.3-2.4,2.7-3.5,4c-2.2,2.7-4.3,5.7-6.2,8.4c-1.1,1.6-2.4,3.5-3.5,5.1l-0.5-0.8
		c-0.3-1.3-0.8-2.7-1.3-4c0-0.3,0-0.5-0.3-1.1c0-3.2-0.5-6.7-0.8-10v-10.5c-0.3-1.9-0.8-3.8-1.9-5.4c-1.1-1.6-2.2-3-3.5-4
		c-2.7-2.4-5.7-4.6-8.1-6.7c-0.8-0.5-1.3-1.1-1.9-1.6c-0.3,0-0.3-0.3-0.5-0.5l0,0c2.2-4,4-8.1,6.2-12.1c1.1-2.2,2.2-4.3,3.2-6.5
		c0-0.5,0.5-1.1,0.8-1.6c0.3-0.5,0.5-1.3,0.5-1.9l1.1-3.5c0.8-2.2,1.6-4.6,2.4-7c0.3-1.1,0.8-2.4,0.8-3.5c0.3-1.3,0.5-2.7,0.5-3.8
		c0-0.3,0-0.8,0-1.1c0-0.3,0-0.5,0-0.8l-0.3-1.6l-0.5-3.5c-0.3-2.4-0.8-4.9-1.3-7.3l0,0c-0.3,2.4-0.5,4.9-0.5,7.3v5.7
		c0,0.3,0,0.5,0,0.8c0,0.3,0,0.3,0,0.5c0,1.1-0.3,2.2-0.5,3.2c0,1.1-0.5,2.2-0.8,3.5c-0.5,2.2-1.1,4.6-1.6,7l-1.1,3.5
		c0,0.5-0.3,1.1-0.5,1.6c0,0.5-0.3,1.1-0.5,1.6c-0.8,2.2-1.6,4.6-2.7,6.7l-7.3,11.6l0,0c-0.3-0.3-0.5-0.5-0.8-1.1
		c-1.1-1.3-1.9-3-2.7-4.3c-1.6-3-3.5-6.2-4.9-9.2c-3.2-6.2-6.5-12.4-9.4-18.6l0,0c3,6.5,5.7,12.7,8.9,18.9c1.6,3.2,3,6.2,4.6,9.4
		c0.8,1.6,1.6,3,2.7,4.6l0.8,1.1l0.5,0.5c0,0,0.3,0.3,0.5,0.5c0.8,0.8,1.3,1.3,1.9,1.9c2.7,2.2,5.7,4.3,8.1,6.7
		c1.1,1.1,2.2,2.4,3.2,3.8c0.8,1.3,1.3,3,1.3,4.3c0,0.8,0,1.6,0,2.4v12.7c-0.5-0.5-1.1-1.3-1.6-1.9c-0.5-0.5-1.1-1.1-1.6-1.6
		c-0.5-0.5-1.3-1.1-1.9-1.3c-0.5-0.5-1.3-0.8-2.2-1.1c-0.8-0.3-1.3-0.8-2.2-1.1c-3-1.1-5.7-1.9-8.6-2.7c-3-0.8-5.7-1.3-8.6-2.2
		c-1.3-0.3-2.7-0.8-4-1.6c-0.5-0.3-1.1-0.5-1.3-1.1c-0.3-0.3-0.3-0.3-0.3-0.5v-0.3v-0.5c0-1.6-0.3-3-0.5-4.6c-0.3-1.6-0.5-3-0.8-4.6
		c-0.8-3-1.6-5.7-2.4-8.6l0,0c0.5,3,1.1,5.7,1.3,8.9c0.5,3,0.8,5.7,0.5,8.6v0.8c0,0,0,0.5,0,0.8c0,0.5,0.3,1.1,0.5,1.3
		c0.5,0.8,1.3,1.3,1.9,1.9c1.3,0.8,3,1.6,4.3,1.9c3,1.1,5.7,1.9,8.6,2.7s5.7,1.9,8.4,3c0.8,0.3,1.3,0.5,1.9,0.8s1.1,0.5,1.6,1.1
		c0.5,0.3,1.1,0.8,1.6,1.1c0.5,0.5,1.1,0.8,1.6,1.3c2.7,2.7,4.6,5.9,5.7,9.4l1.3,5.7c0,0,0,0.3,0,0.5c1.1,2.2,2.4,4.3,3.5,6.7
		l1.6,3.5c0,0.5,0.3,1.1,0.5,1.6c0,0.3,0,0.5,0,0.8v0.8c0,2.4,0,5.1-0.3,7.6l0,0c-1.6-1.6-3.2-3.5-4.9-5.1c-1.6-1.6-4.9-4.9-7.3-7
		c-2.4-2.2-4.9-4.6-7.6-6.7c-0.8-0.5-1.3-1.1-2.2-1.6h-1.6l-1.1-0.3l-4.3-1.3c-3-3-5.9-6.2-8.9-8.9c-3.2-3-6.5-5.9-10.3-8.4
		c-3.8-2.2-7.3-4.6-10.5-7.3c-2.2-1.6-4-3.5-5.7-5.7c1.3-2.2,2.7-4.6,3.8-7.3c1.3-2.7,2.4-5.7,3.5-8.4c1.1-3,1.6-5.9,1.9-8.9
		c0.3-3,0.3-6.2-0.3-9.2c-0.5-3-0.8-5.7-1.1-8.9c-0.3-3.2-0.8-5.7-1.3-8.9c-0.8-5.7-1.6-11.9-3.2-17.8l0,0v9.2c0,3.2,0,5.7,0.5,8.9
		c0.5,5.7,1.9,11.9,3,17.8c0.5,3,0.8,5.7,0.8,8.6c-0.3,3-0.8,5.7-1.6,8.6c-1.3,5.4-3.5,10.5-5.7,15.6c-0.8-1.1-1.6-2.2-2.4-3.5
		c-0.5-0.8-0.8-1.9-1.1-2.7c-0.3-0.8-0.5-1.9-0.8-3c-0.5-2.2-1.3-4.3-2.2-6.2c-1.6-4-3.5-7.8-5.7-11.3c-4-7.6-8.4-15.1-12.7-22.9
		l0,0c4,7.6,8.1,15.1,11.3,22.9C1281.6,486.5,1283.5,490.3,1284.8,494.4L1284.8,494.4z M1396.5,543.5l1.1-1.9l0,0l1.1-0.8l-1.1,1.3
		l-1.3,1.6L1396.5,543.5L1396.5,543.5z M1371.2,520.5L1371.2,520.5z"/>
	<path class="st9" d="M1352.9,533.5c0.5,1.6,1.1,3.5,1.6,5.1c0,0.8,0.3,1.9,0.5,2.7c0.3,0.8,0.5,1.9,1.1,2.7
		c1.9,3.2,4.3,6.2,7.3,8.6c3,2.4,5.9,4.6,8.9,6.5l2.2,1.6c0.8,0.5,1.3,1.1,1.9,1.6c1.3,1.1,2.7,2.4,4,3.8l7.8,7.6l0,0l0.5,0.3l4,1.1
		h1.6c0.5,0.3,1.1,0.5,1.6,1.1c2.2,1.6,0.8,2.4,3,4.3c2.2,1.9,3.8,4.6,6.2,6.5l6.5,13.5c0,0.3-0.3,8.4-0.3,8.6
		c-0.8,4.6-0.8,9.2,0,14c0,7.3-1.6,27.3-0.8,29.9c0.3,1.3,1.3,56.7-1.9,107.1c7.8,7.3,15.6,15.1,22.9,22.9l-6.2-130.9v-31.3
		c0-5.7,0.3-11.1,1.1-16.7c4-4.3,7.6-8.6,10.8-13.8l0,0l0.5-0.5l0.5-0.8l0.3-0.5l0.5-0.5l3-2.7l13.2-15.6l3.8,0.8l5.1,0.8l2.7,0.5
		c0.8,0.3,1.9,0.3,2.7,0.3c1.9,0,3.5-0.3,5.4-0.8l0,0c4.3-2.4,8.4-4.9,12.7-7.3l12.1-7l6.5-0.5c2.2-0.3,4.6-0.5,6.7-0.8l6.5-1.1
		c2.2-0.5,4.3-1.1,6.5-1.6l0,0c-2.2,0-4.6,0-6.7,0s-4.6,0-6.7,0.3s-4.6,0.3-6.7,0.8l-6.5,1.1h-0.3l-12.1,8.1
		c-4,2.7-8.1,5.4-11.9,8.1c-1.6-0.8-3.2-1.3-5.1-1.9c-0.8,0-1.6,0-2.7,0h-11.1l2.7-3l8.9-8.9l8.6-4.6l8.6-4.9l4.3-2.4
		c0.8-0.3,1.3-0.8,2.2-0.8l2.4-0.5c3.2-0.8,6.5-1.3,9.7-2.2c-3.5,0.3-6.7,0.5-10,1.1l-2.4,0.3l-1.3,0.3c-0.3,0-0.8,0.3-1.1,0.5
		l-4.6,2.2l-18.1,8.6l0,0l-9.2,8.9l0,0l-6.5,7.8l-1.6,1.1l1.9-3.5c0.8-1.9,1.6-3.8,2.4-5.7l2.2-5.7l1.6-2.7c0.5-0.8,1.1-1.9,1.6-3
		c1.1-1.9,1.9-3.8,3-5.7l0,0c-1.3,1.6-2.7,3.5-3.8,5.4l-1.9,2.7l-1.9,2.7l0,0l-2.7,5.7c-1.1,1.9-1.9,3.5-2.7,5.7
		c-0.8,2.2-1.6,3.8-2.2,5.7c-0.5,1.9-1.1,3.5-1.6,5.4l-3.5,4.6c-0.8,0.8-1.3,1.6-1.9,2.7l-0.5,0.5l-0.5,0.8l-0.3,0.5l-0.5,0.5
		l-0.8,0.8l-10.3,5.7l-2.4-3.8l-1.9-7.8l-2.2-5.1l-5.1-7.8l3.8-5.1l5.1-7c0.8-1.1,1.9-2.2,2.7-3.2v-0.3h1.1l2.2-0.5l8.6-1.9h0.3
		l14-8.9l0,0l1.3-1.6l10.3-6.2c4-2.4,8.1-4.9,11.9-7.3c1.9-0.3,4-1.1,5.7-1.9c1.1-0.5,1.9-1.3,2.7-2.4c0.3-0.3,0.3-0.5,0.5-0.8l0,0
		l4.6,1.1l5.7,1.3l11.3,2.4c0.3,0,0.8,0,1.1-0.3l0,0c1.1-1.3,2.2-2.4,3.2-3.8l3-1.3l3-1.6c1.1-0.5,2.2-1.1,3-1.9
		c0.8-0.8,1.9-1.3,3-1.9l0,0c-1.1,0-2.4,0.5-3.5,0.8l-3.5,1.1l-3.2,1.1l-3.2,1.3l0,0c0,0-0.3,0.3-0.5,0.3c-1.1,1.3-1.9,2.7-2.7,3.8
		l-10.8-1.6l-5.7-0.8l-4.6-0.5l0,0l0.5-1.3l2.2-5.7c0.8-1.9,1.3-3.5,1.9-5.4c1.9-1.3,3.8-3,5.7-4.3c1.9-1.6,4-3.2,5.7-4.9l0,0
		c1.9-1.3,3.8-2.7,5.7-4c3-2.2,0,0,0,0l0,0c-2.2,0.8-4,1.9-6.2,3l0,0c-2.2,1.3-4.3,2.7-6.5,4c-2.2,1.3-4.3,2.7-6.2,4.3
		c-0.3,0-0.3,0.3-0.5,0.5l0,0c-0.8,1.9-1.3,3.8-2.2,5.7l-1.9,5.7l-0.5,1.3v1.3c-0.5,0.8-1.1,1.3-1.9,1.6c-1.6,0.8-3.5,1.6-5.4,1.9
		l0,0l-11.9,8.1l-8.9,6.2c0.5-0.8,1.1-1.9,1.6-2.7c0.5-1.1,0.8-1.9,1.1-3l1.1-3c1.3-4,2.7-8.1,4-11.9c0.8-1.9,1.6-3.8,2.2-5.7
		c0.3-1.1,0.8-1.9,1.3-3l0.8-1.3c0,0,0.3-0.5,0.5-0.5l0,0v-0.5c1.3-1.6,2.7-3.5,3.5-5.4c1.1-1.9,1.9-3.8,2.7-5.7l0,0
		c-1.1,1.9-1.9,3.8-3,5.7c-1.1,1.9-2.2,3.5-3.5,5.1c-0.3,0.3-0.3,0.3-0.5,0.5c-0.3,0.3-0.3,0.3-0.5,0.5l-1.6-0.5
		c-0.5,0.8-0.8,1.9-1.3,2.7c-0.8,1.9-1.6,3.8-2.4,5.7c-1.6,3.8-3,7.8-4.3,11.9l-1.1,3c-0.3,1.1-0.8,1.9-1.1,2.7
		c-1.1,1.6-2.2,3.5-3.5,4.9l-13.8,8.4c-0.5-3-1.1-5.7-1.6-8.9c0-0.8-0.3-1.6-0.5-2.7c-0.3-0.8,0-0.5,0-0.5c0-0.3-0.3-0.5-0.3-0.8
		v-0.5l-0.3-0.5c-0.8-1.6-1.6-3-2.2-4.6c-0.5-1.6-1.1-3.2-1.6-4.9c-0.3-0.5-0.3-1.3-0.3-1.9v-7.8c0-1.9-0.3-3.5-0.5-5.1l0,0
		c-0.8,3.5-1.3,6.7-1.9,10.3v2.7c0,1.1,0.3,2.2,0.5,3c0.5,1.6,1.3,3.2,2.2,4.9c0.8,1.6,1.6,3,2.7,4.6l0.3,0.5l0.3,0.5v0.5
		c0,0,0,0.3,0,0.5l0.8,2.4c1.1,3,1.9,5.7,2.7,8.9l-8.4,1.6l-2.2,0.5h-1.6l-0.5,0.5c-1.1,1.1-2.2,2.2-3,3.5c-1.9,2.4-3.5,4.6-5.4,7.3
		c-1.1,1.3-1.9,3-3,4.3l-0.3-0.5c-0.3-1.1-0.8-2.4-1.1-3.5l-0.3-0.8c-0.3-2.7-0.5-5.7-0.5-8.4v-9.4c-0.3-1.6-0.8-3.2-1.6-4.6
		c-0.8-1.3-1.9-2.4-3-3.5c-2.2-2.2-4.6-4-7-5.7l-1.6-1.3l-0.3-0.3l0,0c1.9-3.5,3.5-6.7,5.1-10.3c0.8-1.9,1.9-3.8,2.7-5.7
		c0.3-0.5,0.5-0.8,0.5-1.3c0.3-0.5,0.5-1.1,0.5-1.6l1.1-3c0.8-1.9,1.3-3.8,1.9-5.7c0.3-1.1,0.5-1.9,0.8-3c0.3-1.1,0.3-2.2,0.3-3.2
		c0-0.3,0-0.5,0-1.1V493l-0.5-3c-0.3-1.9-0.8-3.8-1.1-5.7l0,0c-0.3,1.9-0.5,4-0.5,6.2v5.9c0,0.8-0.3,1.9-0.5,2.7
		c-0.3,1.1-0.3,1.9-0.5,3c-0.3,1.9-0.8,4-1.3,5.7l-0.8,3c0,0.5-0.3,0.8-0.3,1.3l-0.5,1.3l-2.2,5.7l-4,10.5l0,0l-0.5-0.8
		c-0.8-1.1-1.6-2.4-2.2-3.8c-1.6-2.7-3-5.1-4.3-7.8c-2.7-5.1-5.4-10.5-8.1-15.6l0,0c2.4,5.4,4.9,10.8,7.6,15.9
		c1.3,2.7,2.7,5.4,4,7.8c0.8,1.3,1.3,2.7,2.2,3.8c0.3,0.3,0.3,0.8,0.5,1.1l0.3,0.5l0.5,0.5l1.6,1.6c2.4,1.9,4.6,3.8,6.7,5.7
		c1.1,1.1,1.9,2.2,2.7,3.2c0.8,1.1,1.1,2.4,1.1,3.8v13c-0.3-0.5-0.8-1.1-1.3-1.6c-0.5-0.5-0.8-1.1-1.3-1.3c-0.5-0.3-1.1-0.8-1.6-1.1
		c-0.5-0.3-1.1-0.8-1.9-1.1c-0.5-0.3-1.1-0.5-1.9-0.8c-2.4-0.8-4.9-1.6-7.3-2.4c-2.4-0.5-4.9-1.1-7.3-1.9c-1.1-0.3-2.2-0.8-3.2-1.3
		c-0.5-0.3-0.8-0.5-1.1-0.8c0-0.3-0.3-0.3-0.3-0.5l0,0v-0.3c0-1.3-0.3-2.7-0.3-3.8c0-1.3-0.5-2.4-0.8-3.8c-0.5-2.4-1.3-4.9-2.2-7.3
		l0,0c0.3,2.4,0.8,5.1,1.1,7.6c0.3,2.4,0.5,4.9,0.5,7.3v0.5c0,0,0,0.3,0,0.5s0.3,0.8,0.5,1.1c0.5,0.5,1.1,1.1,1.6,1.6
		c1.1,0.8,2.4,1.1,3.8,1.6c2.4,0.8,4.9,1.6,7.3,2.2c2.4,0.8,4.9,1.6,7,2.4l1.6,0.8c0.5,0.3,1.1,0.5,1.3,0.8c0.5,0.3,1.1,0.5,1.3,1.1
		c0.5,0.3,0.8,0.8,1.3,1.1c2.2,2.2,3.5,5.1,4.6,8.1l1.1,4.9c0,0,0,0.3,0,0.5c1.1,1.9,1.9,3.8,3,5.7c0.5,0.8,0.8,1.9,1.3,3l0.5,1.3
		v7.6l0,0l-4-4.3c-1.9-2.2-4-4-6.2-5.9c-2.2-1.9-4-3.8-6.5-5.7c-0.5-0.5-1.3-0.8-1.9-1.3h-1.1l-1.1-0.3l-3.8-1.1
		c-2.4-2.7-4.9-5.1-7.6-7.6c-2.7-2.7-5.7-4.9-8.6-7c-3.8-1.6-7.6-3.8-11.1-5.9c-1.6-1.3-3.2-3-4.6-4.6c1.1-1.9,2.2-4,3.2-6.2
		c1.1-2.2,1.9-4.6,3-7c0.8-2.4,1.6-4.9,1.6-7.6c0.3-2.7,0-5.1-0.3-7.8c-0.3-2.4-0.5-4.9-0.8-7.6c-0.3-2.4-0.5-4.9-1.1-7.6
		c-0.8-4.9-1.6-10-2.7-14.8l0,0v7.6c0,2.4,0,5.1,0.3,7.6c0.5,5.1,1.6,10,2.4,15.1c0.5,2.4,0.8,4.9,0.8,7.3c0,2.4-0.5,4.9-1.1,7.3
		c-1.3,4.6-3,9.2-4.9,13.2c-0.8-0.8-1.3-1.9-1.9-3c-0.3-0.8-0.8-1.6-1.1-2.4c-0.3-0.8-0.5-1.6-0.8-2.7c-0.5-1.9-1.1-3.5-1.9-5.1
		c-1.3-3.5-3-6.7-4.6-10c-3.5-6.5-7-13-10.8-19.2l0,0c3.5,6.5,6.7,13,10,19.4C1350.5,526.7,1351.8,530,1352.9,533.5L1352.9,533.5z
		 M1447.4,575c0.3-0.5,0.5-1.1,1.1-1.6l0,0l0.8-0.5l-1.1,1.3c-0.3,0.5-0.8,0.8-1.1,1.3L1447.4,575z M1426,555.6L1426,555.6z"/>
	<path class="st9" d="M1422.1,624.8l7.8,1.3c2.7,0.3,5.1,0.8,7.8,1.1l7.6,0.5l14.6,8.4c4.9,2.7,10,5.7,14.8,8.4l0,0
		c2.2,0.5,4,0.8,6.5,0.8c1.1,0,2.2,0,3,0l3-0.5l6.2-1.1l4.3-0.8l15.6,18.6l2.4,3l0.5,0.8l0.5,0.8c0.3,0.3,0.5,0.5,0.8,0.8l0.8,0.8
		l0,0c3.8,5.7,8.1,11.1,12.7,16.2c0.8,6.5,1.3,13.2,1.1,19.7v37.2l-0.5,13.2c5.7,2.7,11.9,5.4,17.8,8.1c0-12.1,0.3-19.7,0.5-20.2
		c1.1-3.2-1.1-27-0.8-35.6c0.8-5.4,0.8-11.1,0-16.5c0-0.3-0.3-9.7-0.3-10.3l7.6-15.9c2.7-2.2,4.6-5.7,7.3-7.6s0.8-3.2,3.5-5.1
		c0.5-0.5,1.3-0.8,1.9-1.1h1.9l4.9-1.3l0.5-0.3l0,0c3-3,6.2-5.7,9.4-8.9l4.6-4.3l2.4-1.9c1.1-0.8,1.9-1.6,3-2.2
		c3.8-2.4,7.3-4.9,10.5-7.8c3.5-3,6.5-6.5,8.4-10.3c0.5-1.1,0.8-2.2,1.3-3.2c0.3-1.1,0.5-2.2,0.8-3.2c0.5-1.9,1.1-3.8,1.9-5.7
		c1.6-4,3.2-8.1,5.1-11.9c3.8-7.8,7.6-15.4,11.9-22.9l0,0c-4.6,7.3-8.6,14.8-12.7,22.9c-1.9,3.8-3.8,7.8-5.7,11.3
		c-0.8,2.2-1.6,4-2.2,6.2c-0.3,1.1-0.5,2.2-0.8,3c-0.3,1.1-0.8,1.9-1.3,2.7c-0.8,1.1-1.3,2.4-2.2,3.5c-2.4-5.1-4.3-10.3-5.7-15.6
		c-0.8-2.7-1.3-5.7-1.6-8.6c0-3,0.3-5.7,0.8-8.6c1.1-5.7,2.4-11.9,3-17.8c0.3-3,0.3-5.7,0.3-8.9c0-3.2,0-5.7,0-8.9l0,0
		c-1.6,5.7-2.2,11.9-3.2,17.5c-0.5,3-0.8,5.7-1.3,8.9c-0.3,3.2-0.5,5.7-1.1,8.9c-0.5,3-0.5,6.2-0.3,9.2c0.3,3,1.1,6.2,2.2,8.9
		c1.1,3,2.2,5.7,3.5,8.4c1.1,2.4,2.4,4.9,3.8,7.3c-1.6,2.2-3.5,4-5.7,5.7c-3.5,2.7-7,5.1-10.5,7.3c-3.8,2.4-7.3,5.1-10.3,8.4
		c-3,3-5.7,5.7-8.9,8.9l-4.3,1.3l-1.1,0.3h-1.3c-0.8,0.5-1.6,1.1-2.2,1.6c-2.7,2.2-5.1,4.3-7.6,6.7c-2.4,2.4-4.9,4.6-7.3,7
		c-2.4,2.4-3.2,3.5-4.9,5.1l0,0l-0.3-7.6v-1.3c0,0,0-0.5,0-0.8c0-0.5,0.3-1.1,0.5-1.6c0.3-0.5,1.1-2.2,1.6-3.5
		c1.1-2.2,2.2-4.6,3.5-6.7c0-0.3,0-0.3,0-0.5l1.3-5.7c1.1-3.5,3-6.7,5.4-9.4c0.5-0.5,1.1-1.1,1.6-1.3c0.5-0.5,1.1-0.8,1.6-1.1
		c0.5-0.3,1.1-0.8,1.9-1.1l1.9-0.8c2.7-1.1,5.7-1.9,8.4-3c2.7-0.8,5.7-1.6,8.6-2.7c1.6-0.5,3-1.1,4.3-1.9c0.8-0.5,1.6-1.1,1.9-1.9
		c0.3-0.5,0.5-0.8,0.8-1.3v-1.3c0-3,0.3-5.9,0.8-8.6c0.3-3,0.8-5.7,1.3-8.9l0,0c-0.8,2.7-1.6,5.7-2.4,8.6c-0.3,1.6-0.5,3-0.8,4.6
		c-0.3,1.6-0.5,3-0.5,4.6v0.8l-0.3,0.5c-0.3,0.5-0.8,0.8-1.3,1.1c-1.3,0.5-2.4,1.1-3.8,1.6c-2.7,0.8-5.7,1.6-8.6,2.2
		c-3,0.8-5.9,1.6-8.6,2.7l-2.2,0.8c-0.8,0.3-1.6,0.8-2.2,1.3c-0.8,0.3-1.3,0.8-1.9,1.3s-1.1,1.1-1.9,1.6c-0.5,0.5-1.1,1.3-1.6,1.9
		v-15.1c0-1.6,0.5-3,1.6-4.3c0.8-1.3,1.9-2.7,3.2-3.8c2.4-2.4,5.1-4.6,7.8-6.7c0.8-0.5,1.3-1.1,1.9-1.9l0.5-0.5l0.3-0.5
		c0.3-0.3,0.5-0.8,0.8-1.1c0.8-1.6,1.9-3,2.7-4.6c1.6-3,3.2-6.2,4.9-9.4c3-6.2,5.7-12.7,8.9-18.9l0,0c-3,6.2-6.2,12.4-9.4,18.6
		c-1.6,3-3.2,6.2-4.9,9.2c-0.8,1.6-1.9,3-2.7,4.3c-0.3,0.3-0.5,0.8-0.8,1.1l0,0l-4.9-12.4c-0.8-2.2-1.9-4.6-2.7-6.7
		c-0.3-0.5-0.5-1.1-0.5-1.6c0-0.5-0.3-1.1-0.5-1.6l-0.8-3.5c-0.5-2.2-1.3-4.6-1.6-7c0-1.1-0.5-2.4-0.8-3.5c-0.3-1.1-0.3-2.2-0.5-3.2
		c0-0.3,0-0.3,0-0.5v-6.5c0-2.4-0.3-4.9-0.8-7.3l0,0c-0.5,2.4-1.1,4.9-1.3,7.3l-0.5,3.5l-0.3,1.6v0.8c0,0.3,0,0.8,0,1.1
		c0,1.3,0,2.7,0.3,3.8c0,1.3,0.5,2.4,0.8,3.5c0.8,2.4,1.6,4.6,2.4,7l1.1,3.5c0,0.5,0.5,1.1,0.8,1.6c0.3,0.5,0.5,1.1,0.8,1.6
		c1.1,2.2,2.2,4.3,3,6.5c2.2,4,4,8.1,6.2,12.1l0,0c0,0-0.3,0.3-0.5,0.5l-1.9,1.6c-3,2.2-5.7,4.3-8.1,6.7c-1.3,1.1-2.4,2.7-3.5,4
		c-1.1,1.6-1.9,3.5-1.9,5.4v10.5c0,3.2-0.3,6.7-0.8,10c0,0-0.3,0.5-0.5,1.1c-0.5,1.3-1.1,2.7-1.3,4l-0.5,0.8l-3.5-5.1
		c-1.9-3-4-5.7-6.2-8.4c-1.1-1.3-2.2-2.7-3.5-4l-0.8-0.5h-0.8l-1.3-0.3l-2.7-0.5l-10-1.9c1.1-3.5,1.9-7,3.2-10.5
		c0.3-1.1,0.5-1.9,1.1-3c0-0.3,0.3-0.5,0.3-0.8s0.3-0.3,0.3-0.5c0-0.3,0.3-0.5,0.3-0.5l0.3-0.8c1.1-1.9,2.2-3.5,3-5.7
		c1.1-1.9,1.9-3.8,2.7-5.7c0.8-1.6,0.8-3.5,0.3-5.4V587c-0.8-3.8-1.3-8.1-2.4-12.1l0,0c-0.3,2.2-0.5,4-0.5,6.2c0,2.2,0,4,0,6.2v1.6
		c0,0.5,0.3,1.3,0,1.3c0,0.8,0,1.6-0.3,2.4c-0.5,1.9-1.1,3.8-1.9,5.7c-0.8,1.9-1.6,3.8-2.4,5.7l-0.3,0.8l-0.3,0.8
		c0,0-0.3,0.5-0.3,0.8l-0.3,0.8l-0.8,3c-0.8,3.5-1.3,7-1.9,10.5l-16.2-9.7c-1.6-1.9-3-3.8-4-5.7c-0.5-1.1-1.1-2.2-1.3-3.2l-1.3-3.5
		c-1.6-4.6-3.5-9.4-5.4-14c-0.8-2.2-1.9-4.6-3-6.7c-0.5-1.1-1.1-2.2-1.6-3.5c-0.5-1.3-0.5-1.1-1.1-1.6l-0.5-0.8l-0.5-0.8
		c-1.6-1.9-3-3.8-4.3-5.7c-1.3-2.2-2.4-4.3-3.5-6.5l0,0c1.1,2.2,2.2,4.6,3.2,6.7c1.1,2.2,2.7,4.3,4,6.2l0.3,0.3v0.3
		c0,0,0.3,0.3,0.5,0.8c0.3,0.5,0.5,1.1,0.8,1.6c0.5,1.1,1.1,2.2,1.6,3.5c1.1,2.2,1.9,4.6,2.7,6.7c1.6,4.6,3.2,9.4,4.9,14l1.1,3.5
		c0.3,1.1,0.8,2.4,1.3,3.5c0.5,1.1,1.3,2.2,1.9,3.2l-10.5-7.3l-14-9.4h-0.3c-2.2-0.3-4.3-1.1-6.2-2.2c-0.8-0.5-1.6-1.1-2.2-2.2
		l-0.3-0.5l-0.3-0.8l-0.5-1.6l-2.2-6.7c-0.8-2.2-1.6-4.6-2.4-6.7l0,0c0-0.3-0.3-0.5-0.5-0.8l-7.6-5.1l-7.6-4.9l0,0
		c-2.4-1.3-4.9-2.4-7.3-3.5l0,0c2.2,1.6,4.3,3.2,6.5,4.9l0,0c2.2,1.9,4.6,3.8,7,5.7l6.7,5.1c0.8,2.2,1.6,4,2.4,6.2l2.7,6.7l0.8,1.6
		v0.3l-5.7,0.8l-6.7,0.8l-13,1.9c-1.1-1.6-2.2-3-3.2-4.6c0-0.3-0.3-0.3-0.5-0.5l0,0l-3.8-1.6l-3.8-1.3l-4-1.3
		c-1.3-0.3-2.7-0.8-4-1.1l0,0c1.1,0.8,2.2,1.6,3.5,2.4l3.5,2.2l3.8,1.9l3.5,1.6c1.3,1.6,2.7,3,3.8,4.6l0,0c0.3,0.3,0.8,0.5,1.3,0.5
		l13.5-3l6.7-1.6l5.7-1.3l0,0l0.5,1.1c0.8,1.1,1.9,2.2,3.2,2.7c2.2,1.1,4.6,1.9,7,2.2c4.6,3,9.4,5.7,14,8.6l12.1,7.3
		c0.5,0.8,1.1,1.3,1.6,1.9c0.5,0.5,0,0,0,0l0,0l16.7,10.5h0.3c3.5,0.8,6.7,1.6,10.3,2.4l2.4,0.5l1.1,0.3l0,0
		c1.1,1.1,2.2,2.4,3.2,3.8c2.2,2.7,4,5.7,6.2,8.4l4.6,6.2l-6.2,9.4l-2.4,5.7l-2.2,9.2l-3,4.3l-12.1-6.7l-0.8-0.8l-0.5-0.5l-0.5-0.5
		l-0.5-0.8l-0.5-0.8c-0.8-1.1-1.6-2.2-2.2-3c-0.8-1.1-2.7-3.8-4.3-5.7c-0.5-2.2-1.1-4.3-1.9-6.5c-0.8-2.2-1.6-4.6-2.7-6.7
		c-1.1-2.2-2.2-4.3-3.2-6.5l-3.2-6.5l0,0l-2.2-3.2c-0.8-1.1-1.3-2.2-2.2-3.2c-1.6-2.2-3-4-4.6-6.2l0,0l3.5,6.7l1.9,3.5l1.9,3.2
		l2.7,6.7c0.8,2.2,1.9,4.6,3,6.7c1.1,2.2,1.3,2.7,2.2,4l-1.9-1.3c-2.4-3-4.9-6.2-7.6-9.2l0,0l-11.1-10.5h-0.3l-21.3-10.3l-5.4-2.4
		c-0.5-0.3-0.8-0.5-1.3-0.5l-1.6-0.3l-3-0.5c-4-0.5-7.8-0.8-11.9-1.1c3.8,0.8,7.8,1.6,11.3,2.4l2.7,0.8c0.8,0.3,1.9,0.5,2.7,1.1
		l5.1,3l10.3,5.7l10.3,5.4l10.5,10.5l3,3.8h-13.2c-1.1,0-2.2,0.3-3.2,0.3c-2.2,0.3-4,1.1-5.9,2.2c-4.6-3.2-9.4-6.5-14-9.4l-14.3-9.4
		c0,0-0.3,0-0.5,0l0,0l-7.8-1.3c-2.7-0.3-5.4-0.8-7.8-0.8l-7.8-0.5h-8.1C1417,623.7,1419.4,624.2,1422.1,624.8L1422.1,624.8z
		 M1532.7,625.8L1532.7,625.8z M1506,647.1L1506,647.1c0.3,0.5,0.8,1.3,1.1,1.9l0.3,0.5l-1.3-1.6l-1.1-1.3
		C1504.7,646.3,1506,647.1,1506,647.1z"/>
	<text transform="matrix(1 0 0 1 118.4808 669.7466)" class="st7"><tspan x="0" y="0" class="st5" style="font-family:'CopperplateGothic-Bold'; font-size:72px;">Utslpp av </tspan><tspan x="0" y="86.4" class="st5" style="font-family:'CopperplateGothic-Bold'; font-size:72px;">vxthusgas i Ume</tspan></text>
</g>
</svg>
