<?xml version="1.0" encoding="UTF-8"?>
<svg id="Lager_1" data-name="Lager 1" xmlns="http://www.w3.org/2000/svg" viewBox="0 0 1920 469">
  <defs>
    <style>
      .cls-1 {
        stroke: #fff;
        stroke-dasharray: 0 0 58.83 58.83;
        stroke-width: 20px;
      }

      .cls-1, .cls-2, .cls-3 {
        fill: none;
        stroke-miterlimit: 10;
      }

      .cls-2 {
        stroke: #4f78af;
        stroke-width: 275px;
      }

      .cls-3 {
        stroke: #383e49;
        stroke-width: 258px;
      }
    </style>
  </defs>
  <path class="cls-2" d="M-276.5,369.5C-40.12,179.85,121.5,104.5,424.5,181.5c214.26,54.45,250,131,577,137,408.89,7.5,414-142,658-126,116.83,7.66,337.55,40.88,596,467"/>
  <path class="cls-3" d="M-276.5,369.5C-40.12,179.85,121.5,104.5,424.5,181.5c214.26,54.45,250,131,577,137,408.89,7.5,414-142,658-126,116.83,7.66,337.55,40.88,596,467"/>
  <path class="cls-1" d="M-206.29,315.09C-5.68,166.07,152.4,112.35,424.5,181.5c214.26,54.45,250,131,577,137,408.89,7.5,414-142,658-126,112.05,7.35,319.66,38.21,564.47,416.64"/>
</svg>