<?xml version="1.0" encoding="UTF-8"?>
<svg id="Lager_1" data-name="Lager 1" xmlns="http://www.w3.org/2000/svg" viewBox="0 0 1920 469">
  <defs>
    <style>
      .cls-1 {
        stroke: #383e49;
        stroke-width: 165.73px;
      }

      .cls-1, .cls-2, .cls-3 {
        fill: none;
        stroke-miterlimit: 10;
      }

      .cls-2 {
        stroke: #ff7373;
        stroke-width: 176.65px;
      }

      .cls-3 {
        stroke: #fff;
        stroke-dasharray: 0 0 37.79 37.79;
        stroke-width: 12.85px;
      }
    </style>
  </defs>
  <path class="cls-2" d="M-257.5,254.88C-21.12,176.63,140.5,145.54,443.5,177.31c214.26,22.47,250,54.05,577,56.53,408.89,3.1,414-58.59,658-51.99,116.83,3.16,337.55,16.87,596,192.69"/>
  <path class="cls-1" d="M-257.5,254.88C-21.12,176.63,140.5,145.54,443.5,177.31c214.26,22.47,250,54.05,577,56.53,408.89,3.1,414-58.59,658-51.99,116.83,3.16,337.55,16.87,596,192.69"/>
  <path class="cls-3" d="M-187.29,232.43C13.32,170.94,171.4,148.78,443.5,177.31c214.26,22.47,250,54.05,577,56.53,408.89,3.1,414-58.59,658-51.99,112.05,3.03,319.66,15.76,564.47,171.91"/>
</svg>