<?xml version="1.0" encoding="UTF-8"?>
<svg id="Lager_1" data-name="Lager 1" xmlns="http://www.w3.org/2000/svg" viewBox="0 0 1080 1080">
  <defs>
    <style>
      .cls-1 {
        opacity: .45;
      }

      .cls-1, .cls-2, .cls-3, .cls-4, .cls-5, .cls-6, .cls-7, .cls-8, .cls-9, .cls-10, .cls-11, .cls-12, .cls-13, .cls-14, .cls-15, .cls-16, .cls-17, .cls-18, .cls-19, .cls-20, .cls-21, .cls-22, .cls-23, .cls-24 {
        stroke-width: 0px;
      }

      .cls-1, .cls-2, .cls-4, .cls-9, .cls-10, .cls-12, .cls-14, .cls-16, .cls-18, .cls-20, .cls-21, .cls-24 {
        isolation: isolate;
      }

      .cls-2, .cls-10 {
        opacity: .3;
      }

      .cls-3 {
        fill: #263438;
      }

      .cls-4 {
        opacity: .05;
      }

      .cls-6 {
        fill: #455e64;
      }

      .cls-7 {
        fill: #37474f;
      }

      .cls-8 {
        fill: #e0e0e0;
      }

      .cls-9, .cls-14 {
        opacity: .2;
      }

      .cls-10, .cls-13, .cls-14, .cls-20, .cls-21 {
        fill: #fff;
      }

      .cls-11 {
        fill: #f5f5f5;
      }

      .cls-12, .cls-18 {
        opacity: .4;
      }

      .cls-12, .cls-22 {
        fill: #009dff;
      }

      .cls-15 {
        fill: #fafafa;
      }

      .cls-16 {
        opacity: .65;
      }

      .cls-25, .cls-20, .cls-24 {
        opacity: .1;
      }

      .cls-17 {
        fill: #ebebeb;
      }

      .cls-19 {
        fill: #455a64;
      }

      .cls-21 {
        opacity: .15;
      }

      .cls-23 {
        fill: #374a4f;
      }
    </style>
  </defs>
  <g id="freepik--Truck--inject-84">
    <g id="freepik--Back--inject-84">
      <polygon class="cls-23" points="1000.72 487.03 1000.72 455.5 906.38 401.09 906.25 432.58 1000.72 487.03"/>
      <polygon class="cls-6" points="1012.47 448.75 1000.72 455.5 1000.72 487.03 1012.47 480.28 1012.47 448.75"/>
      <polygon class="cls-3" points="1012.47 448.75 918.09 394.34 906.38 401.09 1000.72 455.5 1012.47 448.75"/>
      <polygon class="cls-22" points="981.77 453.15 994.34 460.4 994.34 474.89 981.77 467.64 981.77 453.15"/>
      <polygon class="cls-22" points="956.6 438.63 969.2 445.88 969.2 460.4 956.6 453.15 956.6 438.63"/>
      <polygon class="cls-15" points="969.2 445.88 981.77 453.15 981.77 467.64 969.2 460.4 969.2 445.88"/>
      <polygon class="cls-22" points="937.81 427.75 950.38 434.99 950.38 449.52 937.81 442.27 937.81 427.75"/>
      <polygon class="cls-22" points="912.63 413.26 925.24 420.5 925.24 434.99 912.63 427.75 912.63 413.26"/>
      <polygon class="cls-15" points="925.24 420.5 937.81 427.75 937.81 442.27 925.24 434.99 925.24 420.5"/>
      <path class="cls-23" d="M891.29,540.29c1.02-.9,1.66-2.15,1.79-3.51.26-1.85.63-3.7,1.03-5.59.29-.84.28-1.75-.03-2.58l-.56-.3c-.53-.33-.6-1.55,0-2.94l3.54-10.19c.53-1.52,1.52-2.65,2.22-2.51s1.79-.96,2.51-2.41,1.79-3.51,2.75-5.19c.76-1.09,1.02-2.45.73-3.74-.28-1.24.07-2.54.93-3.47l6.15-8.27c.79-1.03,1.65-1.49,2.15-1.19l1.09.6c.66-.14,1.25-.48,1.69-.99,1.22-1.22,2.48-2.38,3.74-3.47,1.05-.87,1.73-2.12,1.89-3.47.12-1.26.83-2.39,1.92-3.04l7.15-4.07c.41-.31.95-.39,1.42-.2l3.51,2.02c.86-.23,1.73-.39,2.61-.5,1.17-.29,2.11-1.15,2.51-2.28.29-1.07,1.27-1.81,2.38-1.79l5.92,1.19h.4c.63.4,30.47,17.5,30.57,17.57.59.42.85,1.16.66,1.85l7.58,4.33c.21.13.38.32.5.53l3.57,6.12c.5,1.08.39,2.34-.3,3.31-.68,1.1-.88,2.42-.56,3.67.4,1.42.73,2.88,1.03,4.43l2.51,1.42c.5.45.75,1.12.66,1.79v9.43c.07,1.26-.46,2.49-1.42,3.31-.98.92-1.6,2.17-1.72,3.51-.26,1.85-.6,3.74-1.03,5.62-.27.91-.2,1.88.2,2.75l.53.3c.53.3.56,1.55,0,2.91l-3.47,10.22c-.53,1.52-1.49,2.65-2.15,2.55s-1.72.96-2.41,2.41-1.82,3.57-2.81,5.33c-.76,1.06-1.04,2.4-.76,3.67.36.63,0,2.15-.99,3.31l-6.15,8.27c-.79,1.03-1.65,1.52-2.12,1.26l-.93-.53c-.69.15-1.32.52-1.79,1.06-1.26,1.26-2.51,2.45-3.84,3.57-1.01.83-1.68,2.01-1.89,3.31-.15,1.21-.86,2.27-1.92,2.88l-7.11,4.07c-.42.33-.99.41-1.49.2l-3.31-1.79c-.99.26-2.02.43-2.98.6-1.14.22-2.08,1.02-2.48,2.12-.32,1.02-1.29,1.68-2.35,1.62l-6.15-1.19c-.15-.02-.3-.08-.43-.17l-30.57-17.53c-.59-.41-.86-1.16-.66-1.85l-7.54-4.3c-.22-.15-.4-.34-.53-.56l-3.54-6.12c-.52-1.06-.43-2.33.23-3.31.68-1.08.89-2.4.56-3.64-.42-1.47-.76-2.96-1.03-4.47h0l-2.45-1.42c-.51-.45-.75-1.12-.66-1.79v-9.43c0-1.26.56-2.46,1.52-3.27Z"/>
      <path class="cls-6" d="M920.54,570.66v-9.43c-.05-1.26.48-2.47,1.42-3.31,1.03-.89,1.66-2.15,1.75-3.51.3-1.85.63-3.7,1.03-5.59s0-2.84-.56-2.98-.83-1.49-.3-3.01l3.57-10.19c.53-1.52,1.52-2.65,2.22-2.51s1.79-.96,2.48-2.41,1.79-3.51,2.75-5.19c.76-1.09,1.04-2.44.76-3.74-.43-.69,0-2.25.93-3.47l6.15-8.27c.93-1.22,1.98-1.65,2.38-.96s1.52.4,2.55-.63,2.45-2.38,3.74-3.47c1.04-.88,1.71-2.12,1.89-3.47.12-1.26.83-2.39,1.92-3.04l7.11-4.07c1.06-.63,1.92-.23,1.92.83-.05.73.5,1.36,1.23,1.41.23.02.45-.03.66-.12,1.22-.36,2.47-.62,3.74-.79,1.18-.28,2.14-1.14,2.55-2.28.28-1.08,1.27-1.82,2.38-1.79l6.15,1.19c.93.17,1.36,1.26.93,2.41-.41,1.02-.1,2.19.76,2.88.98.59,1.9,1.28,2.75,2.05.71.58,1.75.47,2.33-.24.06-.07.11-.15.15-.22.69-.93,1.69-.93,2.22,0l3.57,6.12c.5,1.08.39,2.34-.3,3.31-.68,1.1-.88,2.42-.56,3.67.4,1.42.73,2.88,1.03,4.43s.96,1.92,1.75,1.49,1.42.33,1.42,1.72v9.43c.07,1.26-.46,2.49-1.42,3.31-.98.92-1.6,2.17-1.72,3.51-.26,1.85-.6,3.74-1.03,5.62s0,2.88.56,3.01.79,1.46.26,2.94l-3.64,10.16c-.53,1.52-1.49,2.65-2.15,2.55s-1.72.96-2.41,2.41-1.82,3.57-2.81,5.33c-.76,1.06-1.04,2.4-.76,3.67.36.63,0,2.15-.99,3.31l-6.15,8.27c-.93,1.22-1.95,1.69-2.35,1.06s-1.46-.3-2.48.73-2.51,2.45-3.84,3.57c-1.01.83-1.68,2.01-1.89,3.31-.15,1.21-.86,2.27-1.92,2.88l-7.11,4.07c-1.06.63-1.92.3-1.92-.66s-.86-1.49-1.89-1.19c-1.26.37-2.54.66-3.84.86-1.14.22-2.08,1.02-2.48,2.12-.32,1.02-1.29,1.68-2.35,1.62l-6.15-1.19c-.93-.17-1.36-1.19-.99-2.28.39-.99.08-2.12-.76-2.78-1.01-.61-1.95-1.32-2.81-2.12-.68-.58-1.71-.5-2.28.19-.05.06-.09.11-.13.18-.28.59-.99.85-1.59.56-.25-.12-.45-.32-.56-.56l-3.54-6.05c-.51-1.07-.41-2.33.26-3.31.67-1.09.87-2.41.53-3.64-.41-1.47-.74-2.96-.99-4.47-.23-1.26-.96-1.95-1.72-1.49s-1.39-.33-1.39-1.72Z"/>
      <path class="cls-3" d="M936.61,475.68l26.99,15.51h0c.33.21.51.6.46.99-.04.75.53,1.39,1.28,1.43.21.01.42-.02.61-.11l1.19-.33c.84-.23,1.69-.39,2.55-.5.59-.12,1.13-.41,1.55-.83l-30.57-17.57c-.43.41-.97.7-1.55.83l-2.51.56Z"/>
      <path class="cls-5" d="M921.89,483.03l30.57,17.57c.44-.64.7-1.38.76-2.15.03-.6.22-1.19.56-1.69l-30.6-17.53c-.33.49-.53,1.06-.56,1.65-.06.77-.31,1.5-.73,2.15Z"/>
      <path class="cls-3" d="M915.31,488.91l29.34,16.9h0c.1.05.18.13.23.23.16.31.53.45.86.33.66-.11,1.25-.45,1.69-.96,1.22-1.22,2.48-2.38,3.74-3.47.44-.38.82-.82,1.12-1.32l-30.57-17.57c-.32.49-.71.94-1.16,1.32-1.26,1.06-2.51,2.25-3.74,3.47-.38.5-.92.87-1.52,1.06Z"/>
      <path class="cls-3" d="M898.18,512.8l30.6,17.57c.2-.22.5-.33.79-.3.69,0,1.79-.96,2.51-2.41s1.79-3.51,2.75-5.23c.77-1.07,1.04-2.42.73-3.7-.09-.3-.09-.62,0-.93l-30.57-17.53c-.1.29-.1.6,0,.89.29,1.29.03,2.65-.73,3.74-.99,1.69-1.89,3.31-2.75,5.19s-1.82,2.55-2.51,2.41c-.31-.03-.61.08-.83.3Z"/>
      <path class="cls-5" d="M928.77,530.36l-30.6-17.57c.22-.22.52-.33.83-.3.12.03.24.03.36,0l30.6,17.53c-.13.03-.27.03-.4,0-.3-.03-.6.1-.79.33Z"/>
      <path class="cls-5" d="M904.99,501.15c-.1-.29-.1-.6,0-.89l30.57,17.53c-.09.3-.09.62,0,.93.14.42.14.87,0,1.29l-30.6-17.57c.14-.42.15-.87.03-1.29Z"/>
      <path class="cls-3" d="M890.37,541.45l30.63,17.57c.18-.47.49-.87.89-1.16,1.01-.9,1.64-2.16,1.75-3.51.3-1.85.63-3.7,1.03-5.59.34-.92.25-1.93-.23-2.78h0l-.3-.17-.3-.17-29.77-17.04c.4.85.47,1.81.2,2.71-.4,1.89-.76,3.74-1.03,5.59-.13,1.36-.77,2.63-1.79,3.54-.45.22-.83.57-1.09.99Z"/>
      <path class="cls-5" d="M891.29,540.32c.47-.33.84-.79,1.06-1.32l30.6,17.57c-.23.52-.59.97-1.06,1.29-.41.29-.72.69-.89,1.16l-30.63-17.57c.2-.45.52-.84.93-1.12Z"/>
      <path class="cls-3" d="M892.95,565.69l30.6,17.57c.07-.46.25-.89.53-1.26.33-.52.54-1.11.63-1.72.13-.63.13-1.29,0-1.92-.44-1.46-.78-2.96-1.03-4.47h0c-.23-1.22-.96-1.92-1.72-1.49-.25.16-.58.16-.83,0l-28.05-16.08h0c.3,1.55.63,3.08,1.03,4.47.32,1.24.12,2.56-.56,3.64-.29.37-.49.8-.6,1.26Z"/>
      <path class="cls-5" d="M924.08,582c-.28.37-.46.8-.53,1.26l-30.6-17.57c.09-.45.27-.88.53-1.26.31-.47.53-1,.63-1.55l30.57,17.53c-.08.57-.28,1.11-.6,1.59Z"/>
      <path class="cls-3" d="M982.56,495.07c.98.59,1.9,1.28,2.75,2.05.73.58,1.79.47,2.37-.26.05-.07.1-.13.14-.21.31-.58,1.01-.84,1.62-.6h0l-7.41-4.23v.43c-.45.95-.23,2.09.53,2.81Z"/>
      <path class="cls-5" d="M905.52,580.51h0l.46.26,29.77,17.07h.2c-.61-.51-.81-1.36-.5-2.08.41-.99.1-2.14-.76-2.78-1.01-.61-1.95-1.32-2.81-2.12-.68-.58-1.71-.5-2.28.19-.05.06-.09.11-.13.18-.29.5-.86.75-1.42.63l-.26-.17-22.99-13.23c-.34.77-.02,1.67.73,2.05Z"/>
      <path class="cls-3" d="M950.51,595.1l3.14,1.79c-.3-.18-.47-.51-.43-.86,0-.99-.86-1.49-1.89-1.19l-.83.26Z"/>
      <path class="cls-3" d="M971.68,581.77l.76.43h0c-.11-.31-.44-.5-.76-.43Z"/>
      <path class="cls-3" d="M993.74,514.15c.2,1.26.96,1.92,1.75,1.49.2-.1.43-.1.63,0h-.2l-.36-.2-1.82-1.29Z"/>
      <path class="cls-5" d="M940.78,474.26l30.57,17.57c.46-.39.8-.89.99-1.46.2-.6.59-1.11,1.12-1.46l-30.6-17.53c-.5.33-.87.82-1.06,1.39-.22.57-.57,1.08-1.03,1.49Z"/>
      <path class="cls-23" d="M902.21,555.5c0,15.32,5.13,26.13,13.23,30.76l5.49,3.11c-8.01-4.7-13.03-15.45-13.03-30.63,0-28.02,17.1-60.54,38.24-72.78,9.13-5.23,17.5-5.79,24.05-2.51l-4.7-2.71c-6.62-3.87-15.45-3.51-25.04,1.98-21.14,12.24-38.24,44.79-38.24,72.78Z"/>
      <path class="cls-5" d="M907.9,558.75c0,15.18,5.03,25.94,13,30.67l3.7,2.08c-7.97-4.7-13.03-15.45-13.03-30.63,0-27.99,17.14-60.54,38.27-72.78,9.43-5.43,18.1-5.86,24.78-2.15l-4.43-2.51c-6.62-3.31-14.92-2.71-24.05,2.51-21.14,12.27-38.24,44.82-38.24,72.81Z"/>
      <path class="cls-23" d="M923.18,479.22l30.6,17.53c.34-.55.8-1.02,1.36-1.36l7.11-4.07c.39-.29.89-.37,1.36-.23l-26.99-15.42-2.28-1.29-.79-.46-.43-.26c-.49-.16-1.02-.1-1.46.17l-7.11,4.1c-.54.32-1.01.76-1.36,1.29Z"/>
      <path class="cls-23" d="M904.86,500.26l30.57,17.53c.15-.92.53-1.8,1.09-2.55l6.15-8.27c.69-.93,1.49-1.39,1.98-1.26l-29.34-16.8-1.06-.6c-.53-.3-1.39,0-2.15,1.19l-6.19,8.27c-.57.72-.93,1.58-1.06,2.48Z"/>
      <path class="cls-23" d="M893.28,528.08h.17l.46.26,29.77,17.14c-.43-.9-.43-1.94,0-2.84l3.57-10.22c.26-.84.74-1.59,1.39-2.18l-30.6-17.57c-.63.62-1.11,1.38-1.39,2.22l-3.44,10.42c-.43,1.22-.4,2.45.07,2.78Z"/>
      <path class="cls-23" d="M889.91,543.66v9.43c-.09.67.16,1.34.66,1.79l2.45,1.42,28.05,16.08c-.45-.45-.67-1.09-.6-1.72v-9.43c0-.77.18-1.53.53-2.22h0l-30.63-17.57c-.31.7-.47,1.45-.46,2.22Z"/>
      <path class="cls-23" d="M893.21,567.68l3.57,6.15c.12.23.31.43.53.56l1.69.96.63.33,5.23,3.04,22.99,13.23c-.19-.12-.35-.29-.46-.5l-3.54-6.19c-.32-.62-.42-1.34-.26-2.02l-30.6-17.57c-.15.67-.06,1.37.23,1.98Z"/>
      <path class="cls-22" d="M937.81,556c0,15.28,9.36,22.33,20.87,15.71,11.51-6.62,20.91-24.41,20.91-39.7s-9.36-22.33-20.91-15.71c-11.55,6.62-20.87,24.41-20.87,39.7ZM941.41,553.92c0-12.64,7.74-27.32,17.27-32.82,9.53-5.49,17.3.33,17.3,13s-7.74,27.32-17.3,32.82c-9.56,5.49-17.27-.33-17.27-13Z"/>
      <path class="cls-22" d="M941.41,553.92c-.2,3.98.86,7.92,3.04,11.25,3.11,4.2,8.3,5.13,14.22,1.75,9.56-5.49,17.3-20.18,17.3-32.82,0-8.87-3.77-14.36-9.33-14.99-2.8-.22-5.6.47-7.97,1.98-9.53,5.46-17.27,20.18-17.27,32.82Z"/>
      <path class="cls-18" d="M941.41,553.92c-.2,3.98.86,7.92,3.04,11.25,3.11,4.2,8.3,5.13,14.22,1.75,9.56-5.49,17.3-20.18,17.3-32.82,0-8.87-3.77-14.36-9.33-14.99-2.8-.22-5.6.47-7.97,1.98-9.53,5.46-17.27,20.18-17.27,32.82Z"/>
      <path class="cls-3" d="M941.41,553.92c-.2,3.98.86,7.92,3.04,11.25,2.81.22,5.62-.47,8.01-1.98,9.53-5.46,17.27-20.18,17.27-32.82.21-3.98-.87-7.93-3.08-11.25-2.8-.22-5.6.47-7.97,1.98-9.53,5.46-17.27,20.18-17.27,32.82Z"/>
      <path class="cls-22" d="M961.03,536.09l2.48,8.63,6.22-20.51c.01-1.47-.4-2.92-1.19-4.17l-7.51,16.04Z"/>
      <path class="cls-9" d="M961.03,536.09l2.48,8.63,6.22-20.51c.01-1.47-.4-2.92-1.19-4.17l-7.51,16.04Z"/>
      <path class="cls-22" d="M964.14,541.84l-6.45,9.92,4.37,5.19c1.45-1.35,2.58-3.01,3.31-4.86l-1.22-10.25Z"/>
      <path class="cls-9" d="M964.14,541.84l-6.45,9.92,4.37,5.19c1.45-1.35,2.58-3.01,3.31-4.86l-1.22-10.25Z"/>
      <path class="cls-22" d="M942.47,561.23c.39,1.25.96,2.43,1.69,3.51l15.55-14.16-5.43-2.12-.4,1.79-1.55-.66h0l-9.86,11.64Z"/>
      <path class="cls-9" d="M942.47,561.23c.39,1.25.96,2.43,1.69,3.51l15.55-14.16-5.43-2.12-.4,1.79-1.55-.66h0l-9.86,11.64Z"/>
      <path class="cls-22" d="M942.07,547.3l10.25,2.28h0l.93-1.52,1.03.4,1.69-7.84-1.26.69v-2.02h-10.39c-1,2.59-1.75,5.27-2.25,8.01Z"/>
      <path class="cls-9" d="M942.07,547.3l10.25,2.28h0l.93-1.52,1.03.4,1.69-7.84-1.26.69v-2.02h-10.39c-1,2.59-1.75,5.27-2.25,8.01Z"/>
      <path class="cls-22" d="M954.81,539.3l1.55-.5-.4,1.82,6.62-3.87-5.66-14.42c-1.84,1.36-3.51,2.92-5,4.66l2.88,12.31Z"/>
      <path class="cls-9" d="M954.81,539.3l1.55-.5-.4,1.82,6.62-3.87-5.66-14.42c-1.84,1.36-3.51,2.92-5,4.66l2.88,12.31Z"/>
      <path class="cls-22" d="M952.16,547.76c0,4.8,2.91,6.98,6.62,4.9,4.07-2.83,6.53-7.45,6.62-12.41,0-4.8-2.91-6.98-6.62-4.9-4.07,2.83-6.53,7.45-6.62,12.41Z"/>
      <path class="cls-23" d="M803.53,590.7c1.02-.91,1.65-2.18,1.75-3.54.3-1.85.63-3.7,1.03-5.59.3-.89.23-1.87-.2-2.71l-.56-.33c-.53-.33-.56-1.55,0-2.94l3.57-10.19c.53-1.52,1.52-2.65,2.22-2.51s1.79-.96,2.48-2.41,1.79-3.51,2.75-5.19c.77-1.08,1.04-2.45.73-3.74-.27-1.24.09-2.54.96-3.47l6.15-8.27c.76-1.03,1.65-1.49,2.15-1.19l1.06.6c.66-.15,1.26-.49,1.72-.99,1.22-1.22,2.45-2.38,3.74-3.31,1.04-.88,1.71-2.12,1.89-3.47.13-1.26.84-2.39,1.92-3.04l7.11-4.07c.44-.25.98-.25,1.42,0l3.51,1.98c.86-.21,1.73-.38,2.61-.5,1.19-.27,2.15-1.13,2.55-2.28.28-1.08,1.27-1.82,2.38-1.79l6.15,1.19c.13-.02.27-.02.4,0,.63.4,30.47,17.5,30.6,17.57.58.42.83,1.16.63,1.85l7.61,4.33c.19.15.36.33.5.53l3.54,6.15c.51,1.07.41,2.33-.26,3.31-.71,1.09-.92,2.42-.6,3.67.42,1.46.76,2.94,1.03,4.43l2.51,1.46c.4.2.66.86.66,1.75v9.43c.06,1.26-.45,2.47-1.39,3.31-.99.91-1.6,2.16-1.72,3.51-.3,1.85-.63,3.74-1.03,5.62-.29.91-.21,1.89.2,2.75.17.11.35.21.53.3.5.3.56,1.55,0,2.94l-3.54,10.19c-.53,1.52-1.49,2.65-2.15,2.55s-1.72.96-2.45,2.41-1.82,3.57-2.78,5.33c-.75,1.07-1.04,2.39-.79,3.67.4.63,0,2.15-.96,3.31l-6.19,8.27c-.76,1.03-1.65,1.52-2.12,1.26l-.93-.53c-.68.16-1.3.53-1.75,1.06-1.26,1.26-2.55,2.45-3.87,3.57-1.01.83-1.68,2.01-1.89,3.31-.14,1.2-.84,2.27-1.89,2.88l-7.15,4.07c-.42.32-.96.4-1.46.23l-3.31-1.82c-.99.26-2,.46-3.01.6-1.14.22-2.08,1.02-2.48,2.12-.31,1.02-1.28,1.7-2.35,1.62l-6.15-1.19c-.14.03-.29.03-.43,0l-30.57-17.53c-.6-.4-.85-1.14-.63-1.82l-7.54-4.33c-.22-.14-.41-.33-.53-.56l-3.57-6.12c-.52-1.06-.43-2.33.23-3.31.7-1.08.9-2.4.56-3.64-.41-1.47-.74-2.96-.99-4.47h0s-2.25-1.32-2.48-1.42c-.51-.45-.75-1.12-.66-1.79v-9.43c-.14-1.38.43-2.74,1.52-3.61Z"/>
      <path class="cls-6" d="M832.71,621.04v-9.43c-.07-1.26.46-2.49,1.42-3.31,1-.93,1.62-2.19,1.75-3.54.26-1.85.63-3.7,1.03-5.59s0-2.84-.6-2.98-.79-1.49-.26-3.01l3.54-10.19c.53-1.52,1.52-2.65,2.22-2.51s1.79-.96,2.51-2.41,1.79-3.51,2.75-5.19c.76-1.09,1.02-2.45.73-3.74-.28-1.24.07-2.54.93-3.47l6.19-8.27c.89-1.22,1.98-1.65,2.38-.96s1.52.4,2.51-.63,2.48-2.38,3.77-3.31c1.03-.89,1.69-2.12,1.85-3.47.13-1.26.84-2.39,1.92-3.04l7.15-4.07c1.06-.63,1.92-.23,1.92.83-.06.73.48,1.37,1.21,1.43.22.02.44-.02.65-.11,1.23-.38,2.49-.66,3.77-.83,1.17-.28,2.12-1.14,2.51-2.28.29-1.07,1.27-1.81,2.38-1.79l6.19,1.19c.93.17,1.32,1.26.93,2.41-.42,1.01-.13,2.19.73,2.88.98.59,1.9,1.28,2.75,2.05.73.58,1.79.47,2.37-.26.05-.07.1-.13.14-.21.69-.93,1.69-.93,2.22,0l3.54,6.15c.51,1.07.41,2.33-.26,3.31-.71,1.09-.92,2.42-.6,3.67.42,1.46.76,2.94,1.03,4.43.23,1.22.99,1.92,1.75,1.49s1.42.33,1.42,1.72v9.43c.06,1.26-.45,2.47-1.39,3.31-.99.91-1.6,2.16-1.72,3.51-.3,1.85-.63,3.74-1.03,5.62s0,2.88.56,3.01.76,1.46.23,2.98l-3.54,10.19c-.53,1.52-1.49,2.65-2.15,2.55s-1.72.96-2.45,2.41-1.82,3.57-2.78,5.33c-.75,1.07-1.04,2.39-.79,3.67.4.63,0,2.15-.96,3.31l-6.19,8.27c-.89,1.22-1.95,1.69-2.32,1.06s-1.49-.3-2.48.73-2.55,2.45-3.87,3.57c-1.01.83-1.68,2.01-1.89,3.31-.14,1.2-.84,2.27-1.89,2.88l-7.15,4.07c-1.06.63-1.92.3-1.92-.66s-.83-1.49-1.89-1.19c-1.26.38-2.54.66-3.84.86-1.14.22-2.08,1.02-2.48,2.12-.3,1.01-1.26,1.68-2.32,1.62l-6.19-1.19c-.93,0-1.36-1.19-.96-2.28.38-1,.06-2.13-.79-2.78-1-.6-1.94-1.31-2.78-2.12-.7-.59-1.74-.5-2.33.2-.04.05-.08.1-.12.16-.28.59-.99.85-1.59.56-.25-.12-.45-.32-.56-.56l-3.54-6.12c-.52-1.06-.43-2.33.23-3.31.68-1.08.89-2.4.56-3.64-.4-1.42-.73-2.91-1.03-4.47s-.96-1.95-1.72-1.49-1.39-.46-1.39-1.89Z"/>
      <path class="cls-3" d="M848.85,525.96l26.96,15.51h0c.31.23.47.61.43.99-.04.75.53,1.39,1.28,1.43.21.01.42-.02.61-.11l1.19-.33c.84-.23,1.69-.39,2.55-.5.59-.1,1.14-.39,1.55-.83l-30.57-17.57c-.43.41-.97.7-1.55.83-.77.18-1.59.36-2.45.56Z"/>
      <path class="cls-5" d="M834.1,533.41l30.6,17.57c.44-.64.7-1.38.76-2.15.02-.6.2-1.18.53-1.69l-30.6-17.53c-.32.49-.5,1.07-.53,1.65-.06.77-.32,1.51-.76,2.15Z"/>
      <path class="cls-3" d="M827.52,539.2l29.38,16.9h0c.11.05.2.13.26.23.16.3.5.45.83.36.66-.14,1.25-.48,1.69-.99,1.24-1.23,2.49-2.34,3.77-3.31.43-.39.81-.83,1.12-1.32l-30.6-17.57c-.32.48-.7.93-1.12,1.32-1.29,1.09-2.51,2.25-3.74,3.31-.41.5-.97.87-1.59,1.06Z"/>
      <path class="cls-3" d="M810.41,563.18l30.57,17.57c.21-.22.52-.33.83-.3.69,0,1.79-.96,2.51-2.41s1.79-3.51,2.75-5.23c.76-1.08,1.02-2.42.73-3.7-.09-.3-.09-.62,0-.93l-30.57-17.53c-.1.29-.1.6,0,.89.28,1.3,0,2.65-.76,3.74-.96,1.69-1.89,3.31-2.75,5.19s-1.79,2.55-2.48,2.41c-.31-.04-.62.07-.83.3Z"/>
      <path class="cls-5" d="M841.14,580.75l-30.57-17.57c.21-.23.52-.34.83-.3.12.03.24.03.36,0l30.6,17.53c-.13.03-.27.03-.4,0-.31-.03-.62.1-.83.33Z"/>
      <path class="cls-5" d="M817.23,551.54c-.1-.29-.1-.6,0-.89l30.53,17.66c-.09.3-.09.62,0,.93.13.42.13.87,0,1.29l-30.57-17.57c.17-.46.18-.96.03-1.42Z"/>
      <path class="cls-3" d="M802.61,591.83l30.6,17.57c.19-.47.51-.87.93-1.16,1-.9,1.62-2.14,1.75-3.47.26-1.89.6-3.74,1.03-5.62.33-.92.23-1.94-.26-2.78h0l-.33-.2-.26-.17-29.77-17.14c.43.84.51,1.81.23,2.71-.43,1.89-.76,3.74-1.06,5.59-.11,1.36-.73,2.63-1.75,3.54-.48.25-.86.64-1.09,1.12Z"/>
      <path class="cls-5" d="M803.53,590.7c.45-.34.81-.78,1.06-1.29l30.57,17.53c-.22.52-.57.96-1.03,1.29-.42.29-.74.69-.93,1.16l-30.6-17.57c.19-.46.51-.85.93-1.12Z"/>
      <path class="cls-3" d="M805.19,616.08l30.57,17.57c.09-.45.27-.88.53-1.26.37-.5.59-1.1.63-1.72.15-.63.15-1.29,0-1.92-.42-1.47-.76-2.96-1.03-4.47h0c-.2-1.22-.96-1.92-1.72-1.49-.25.16-.58.16-.83,0l-28.02-16.08h0c.25,1.51.58,3,.99,4.47.36,1.24.15,2.57-.56,3.64-.29.37-.48.8-.56,1.26Z"/>
      <path class="cls-5" d="M836.28,632.38c-.26.38-.44.81-.53,1.26l-30.57-17.57c.06-.45.23-.89.5-1.26.34-.46.56-.99.63-1.55l30.57,17.53c-.08.57-.28,1.11-.6,1.59Z"/>
      <path class="cls-3" d="M894.77,545.45c.98.59,1.9,1.28,2.75,2.05.73.58,1.79.47,2.37-.26.05-.07.1-.13.14-.21.32-.57,1.01-.83,1.62-.6h0l-7.58-4.3c-.02.14-.02.29,0,.43-.43,1.01-.15,2.18.69,2.88Z"/>
      <path class="cls-5" d="M817.76,630.9h0l.46.26,29.77,17.1h.2c-.61-.51-.8-1.36-.46-2.08.38-1,.06-2.13-.79-2.78-1-.61-1.93-1.32-2.78-2.12-.7-.59-1.74-.5-2.33.2-.04.05-.08.1-.12.16-.28.49-.84.74-1.39.63l-.3-.17-22.96-13.23c-.37.73-.08,1.63.66,2,.01,0,.02.01.04.02Z"/>
      <path class="cls-3" d="M862.71,645.48l3.31,1.79c-.31-.17-.49-.51-.43-.86,0-.99-.89-1.49-1.92-1.19l-.96.26Z"/>
      <path class="cls-3" d="M883.92,632.15l.73.43h0c-.1-.31-.41-.5-.73-.43Z"/>
      <path class="cls-3" d="M905.95,564.54c.23,1.26.99,1.92,1.75,1.49.21-.09.45-.09.66,0h-.23l-.33-.2-1.85-1.29Z"/>
      <path class="cls-5" d="M852.99,524.64l30.57,17.57c.46-.39.8-.89.99-1.46.22-.56.58-1.05,1.06-1.42l-30.6-17.53c-.48.34-.84.83-1.03,1.39-.21.56-.55,1.06-.99,1.46Z"/>
      <path class="cls-23" d="M814.42,605.89c0,15.32,5.13,26.13,13.23,30.76l5.49,3.11c-7.97-4.7-13.03-15.45-13.03-30.63,0-28.02,17.14-60.54,38.27-72.78,9.1-5.23,17.47-5.79,24.05-2.51l-4.7-2.71c-6.62-3.87-15.48-3.51-25.04,1.98-21.14,12.24-38.27,44.79-38.27,72.78Z"/>
      <path class="cls-5" d="M820.11,609.13c0,15.18,5.06,25.94,13.03,30.67l3.67,2.08c-7.97-4.7-13-15.45-13-30.63,0-27.99,17.14-60.54,38.24-72.78,9.46-5.43,18.1-5.86,24.78-2.15l-4.4-2.51c-6.62-3.31-14.95-2.71-24.05,2.51-21.14,12.14-38.27,44.82-38.27,72.81Z"/>
      <path class="cls-23" d="M835.39,529.6l30.6,17.53c.34-.55.8-1.02,1.36-1.36l7.15-4.07c.38-.28.87-.37,1.32-.23l-26.96-15.51-2.28-1.29-.83-.46-.43-.26c-.48-.17-1.01-.1-1.42.2l-7.11,4.07c-.56.35-1.04.83-1.39,1.39Z"/>
      <path class="cls-23" d="M817.1,550.64l30.67,17.66c.13-.92.5-1.8,1.06-2.55l6.15-8.27c.69-.89,1.49-1.39,2.02-1.26l-29.38-16.9-1.06-.6c-.5-.3-1.39.17-2.15,1.19l-6.19,8.27c-.59.7-.98,1.55-1.12,2.45Z"/>
      <path class="cls-23" d="M805.52,578.46h0l.43.26,29.77,17.14c-.43-.9-.43-1.94,0-2.84l3.54-10.19c.27-.84.75-1.6,1.39-2.22l-30.57-17.57c-.65.6-1.13,1.37-1.39,2.22l-3.57,10.22c-.13,1.42-.1,2.75.4,2.98Z"/>
      <path class="cls-23" d="M802.11,594.04v9.43c-.09.67.16,1.34.66,1.79l2.48,1.42,28.02,16.08c-.42-.47-.63-1.09-.56-1.72v-9.43c0-.77.18-1.52.5-2.22h0l-30.6-17.57c-.32.7-.49,1.45-.5,2.22Z"/>
      <path class="cls-23" d="M805.45,617.93l3.54,6.15c.13.23.33.43.56.56l1.69.96.6.36,5.26,3.01,22.96,13.23c-.19-.12-.35-.29-.46-.5l-3.54-6.12c-.31-.62-.41-1.33-.3-2.02l-30.57-17.57c-.14.65-.04,1.33.26,1.92Z"/>
      <path class="cls-22" d="M850.01,606.38c0,15.28,9.36,22.33,20.91,15.71,11.55-6.62,20.91-24.41,20.91-39.7s-9.36-22.33-20.91-15.71c-11.55,6.62-20.91,24.41-20.91,39.7ZM853.62,604.3c0-12.64,7.74-27.32,17.3-32.82,9.56-5.49,17.3.33,17.3,13s-7.74,27.36-17.3,32.82-17.3-.33-17.3-13Z"/>
      <path class="cls-22" d="M853.62,604.33c-.2,3.97.87,7.89,3.04,11.21,3.11,4.2,8.34,5.16,14.26,1.75,9.56-5.49,17.3-20.18,17.3-32.82,0-8.87-3.8-14.36-9.33-14.99-2.8-.22-5.6.47-7.97,1.98-9.56,5.46-17.3,20.18-17.3,32.85Z"/>
      <path class="cls-18" d="M853.62,604.33c-.2,3.97.87,7.89,3.04,11.21,3.11,4.2,8.34,5.16,14.26,1.75,9.56-5.49,17.3-20.18,17.3-32.82,0-8.87-3.8-14.36-9.33-14.99-2.8-.22-5.6.47-7.97,1.98-9.56,5.46-17.3,20.18-17.3,32.85Z"/>
      <path class="cls-3" d="M853.62,604.33c-.2,3.97.87,7.89,3.04,11.21,2.81.23,5.62-.47,8.01-1.98,9.56-5.46,17.3-20.18,17.3-32.82.21-3.98-.87-7.93-3.08-11.25-2.8-.22-5.6.47-7.97,1.98-9.56,5.46-17.3,20.18-17.3,32.85Z"/>
      <path class="cls-22" d="M873.27,586.47l2.45,8.67,6.25-20.54c0-1.47-.42-2.91-1.19-4.17l-7.51,16.04Z"/>
      <path class="cls-9" d="M873.27,586.47l2.45,8.67,6.25-20.54c0-1.47-.42-2.91-1.19-4.17l-7.51,16.04Z"/>
      <path class="cls-22" d="M876.34,592.19l-6.45,9.92,4.4,5.19c1.44-1.36,2.57-3.02,3.31-4.86l-1.26-10.25Z"/>
      <path class="cls-9" d="M876.34,592.19l-6.45,9.92,4.4,5.19c1.44-1.36,2.57-3.02,3.31-4.86l-1.26-10.25Z"/>
      <path class="cls-22" d="M854.71,611.61c.38,1.26.95,2.45,1.69,3.54l15.51-14.19-5.39-2.12-.4,1.79-1.59-.66h0l-9.82,11.64Z"/>
      <path class="cls-9" d="M854.71,611.61c.38,1.26.95,2.45,1.69,3.54l15.51-14.19-5.39-2.12-.4,1.79-1.59-.66h0l-9.82,11.64Z"/>
      <path class="cls-22" d="M854.38,597.68l10.25,2.28h0l.96-1.52,1.03.4,1.65-7.84-1.22.69v-2.02h-10.35c-1.02,2.59-1.79,5.27-2.32,8.01Z"/>
      <path class="cls-9" d="M854.38,597.68l10.25,2.28h0l.96-1.52,1.03.4,1.65-7.84-1.22.69v-2.02h-10.35c-1.02,2.59-1.79,5.27-2.32,8.01Z"/>
      <path class="cls-22" d="M867.01,589.68l1.55-.5-.4,1.82,6.62-3.87-5.89-14.42c-1.84,1.37-3.53,2.93-5.03,4.66l3.14,12.31Z"/>
      <path class="cls-9" d="M867.01,589.68l1.55-.5-.4,1.82,6.62-3.87-5.89-14.42c-1.84,1.37-3.53,2.93-5.03,4.66l3.14,12.31Z"/>
      <path class="cls-22" d="M864.3,598.08c0,4.8,2.94,6.98,6.62,4.93,4.06-2.86,6.51-7.48,6.62-12.44,0-4.8-2.94-6.98-6.62-4.9-4.06,2.84-6.52,7.45-6.62,12.41Z"/>
      <polygon class="cls-23" points="801.08 573.17 801.08 624.08 759.77 647.87 759.77 596.95 801.08 573.17"/>
      <polygon class="cls-3" points="759.77 647.87 801.08 624.08 805.95 626.96 759.8 653.49 759.77 647.87"/>
      <polygon class="cls-6" points="805.91 632.62 805.91 626.99 759.8 653.49 759.77 659.18 805.91 632.62"/>
      <polygon class="cls-3" points="676.34 548.86 676.34 599.77 759.77 647.87 759.77 596.95 676.34 548.86"/>
      <polygon class="cls-5" points="759.77 647.87 676.34 599.77 671.51 602.64 759.77 653.49 759.77 647.87"/>
      <polygon class="cls-3" points="671.51 608.3 671.51 602.64 759.77 653.49 759.8 659.18 671.51 608.3"/>
      <polygon class="cls-23" points="757.32 598.44 757.32 671.95 688.64 711.55 688.64 638.04 757.32 598.44"/>
      <polygon class="cls-3" points="688.64 711.55 669.03 700.23 669.03 638.04 678.82 643.7 688.64 638.04 688.64 711.55"/>
      <polygon class="cls-3" points="759.8 670.53 759.77 597.02 754.87 599.87 754.87 673.37 759.8 670.53"/>
      <polygon class="cls-8" points="725.43 639.43 725.43 628.12 720.53 630.96 720.53 642.27 725.43 639.43"/>
      <polygon class="cls-6" points="682.36 638.37 682.36 725.37 606.93 768.87 606.93 681.87 682.36 638.37"/>
      <polygon class="cls-23" points="682.36 638.37 455.92 507.8 380.43 551.3 606.93 681.87 682.36 638.37"/>
      <polygon class="cls-3" points="380.43 551.3 380.43 638.34 606.93 768.87 606.93 681.87 380.43 551.3"/>
      <polygon class="cls-22" points="977.4 463.28 606.93 676.91 585.63 505.22 977.37 278.56 977.4 463.28"/>
      <polygon class="cls-9" points="977.4 463.28 606.93 676.91 585.63 505.22 977.37 278.56 977.4 463.28"/>
      <polygon class="cls-9" points="954.91 450.28 954.91 317.52 609.78 517.23 625.06 640.52 954.91 450.28"/>
      <polygon class="cls-9" points="609.78 517.23 946.27 322.52 946.27 445.51 623.91 631.42 609.78 517.23"/>
      <path class="cls-22" d="M346.62,367.28l239.04,137.95,391.71-226.67-239.04-137.95-391.71,226.67ZM585.63,479.29l-194.12-112.01,346.85-200.7,194.12,112.01-346.85,200.7Z"/>
      <g class="cls-25">
        <path class="cls-13" d="M346.62,367.28l239.04,137.95,391.71-226.67-239.04-137.95-391.71,226.67ZM585.63,479.29l-194.12-112.01,346.85-200.7,194.12,112.01-346.85,200.7Z"/>
      </g>
      <polygon class="cls-22" points="606.93 676.91 369.52 552.23 346.62 367.31 585.63 505.22 606.93 676.91"/>
      <polygon class="cls-18" points="606.93 676.91 369.52 552.23 346.62 367.31 585.63 505.22 606.93 676.91"/>
      <polygon class="cls-23" points="977.37 463.28 977.37 474.59 606.93 688.26 606.9 676.94 977.37 463.28"/>
      <polygon class="cls-3" points="367.9 539.33 367.9 550.64 606.93 688.26 606.9 676.94 367.9 539.33"/>
      <path class="cls-23" d="M976.25,453.98l14.56-9.26v25.41c-.02,4.67-2.55,8.96-6.62,11.25l-8.04,4.63.1-32.02Z"/>
      <path class="cls-6" d="M976.25,455.83h0l11.84-6.62h.26c2.35-1.34,3.16-4.33,1.82-6.68-.43-.76-1.06-1.39-1.82-1.82l-10.95-6.35h0v10.12h0l-10.55,6.12h0l9.39,5.23Z"/>
      <polygon class="cls-3" points="966.88 450.61 966.88 480.61 976.25 486 976.25 455.97 966.88 450.61"/>
      <polygon class="cls-22" points="598.4 429.01 627.68 664.97 606.9 676.94 580.64 465.03 598.4 429.01"/>
      <polygon class="cls-9" points="598.4 429.01 627.68 664.97 606.9 676.94 580.64 465.03 598.4 429.01"/>
      <polygon class="cls-22" points="367.9 539 352.08 411.64 512.75 504.36 580.64 465.03 606.9 676.94 367.9 539"/>
      <polygon class="cls-1" points="367.9 539 352.08 411.64 512.75 504.36 580.64 465.03 606.9 676.94 367.9 539"/>
      <polygon class="cls-22" points="704.29 462.45 719.57 585.94 697.84 598.48 682.56 475.05 704.29 462.45"/>
      <polygon class="cls-9" points="704.29 462.45 719.57 585.94 697.84 598.48 682.56 475.05 704.29 462.45"/>
      <polygon class="cls-22" points="697.84 598.48 688.74 593.98 674.68 479.65 682.56 475.05 697.84 598.48"/>
      <polygon class="cls-16" points="697.84 598.48 688.74 593.98 674.68 479.65 682.56 475.05 697.84 598.48"/>
      <polygon class="cls-22" points="799.03 407.57 814.35 531.06 792.62 543.6 777.3 420.14 799.03 407.57"/>
      <polygon class="cls-9" points="799.03 407.57 814.35 531.06 792.62 543.6 777.3 420.14 799.03 407.57"/>
      <polygon class="cls-22" points="792.62 543.6 783.49 539.1 769.43 424.8 777.3 420.14 792.62 543.6"/>
      <polygon class="cls-16" points="792.62 543.6 783.49 539.1 769.43 424.8 777.3 420.14 792.62 543.6"/>
      <polygon class="cls-22" points="888.35 355.9 903.67 479.35 881.9 491.89 866.62 368.47 888.35 355.9"/>
      <polygon class="cls-9" points="888.35 355.9 903.67 479.35 881.9 491.89 866.62 368.47 888.35 355.9"/>
      <polygon class="cls-22" points="881.9 491.89 872.8 487.39 858.74 373.1 866.62 368.47 881.9 491.89"/>
      <polygon class="cls-16" points="881.9 491.89 872.8 487.39 858.74 373.1 866.62 368.47 881.9 491.89"/>
    </g>
    <g id="freepik--truck--inject-84">
      <polygon class="cls-22" points="571.27 717.04 571.27 484.28 441.33 559.34 415.63 674.1 415.63 806.92 571.27 717.04"/>
      <polygon class="cls-21" points="558.8 710.19 558.74 502.84 465.58 556.7 446.59 643.86 446.59 675.39 446.59 775.03 558.8 710.19"/>
      <polygon class="cls-23" points="455.56 644.72 455.56 665.99 549.77 611.54 549.77 518.42 473.62 562.45 455.56 644.72"/>
      <path class="cls-3" d="M521.12,639.73c-.76.43-1.24,1.24-1.26,2.12v4.37c0,3.31,4.76,3.01,10.65-.4l8.63-5c5.89-3.31,10.65-8.73,10.62-11.91v-3.64c0-.68-.54-1.23-1.22-1.23-.22,0-.44.06-.64.17l-26.8,15.51Z"/>
      <path class="cls-22" d="M72.95,702.45v74.27c.03,10.93,5.88,21.01,15.35,26.46l13.23,7.71,28.78,16.54h0l86.27-83v-100.6c0-6.05-3.23-11.65-8.47-14.69l-12.54-7.21c-4.84-2.81-10.76-3.05-15.81-.63l-80.22,38.6c-16.29,7.91-26.62,24.43-26.6,42.54Z"/>
      <path class="cls-20" d="M214.63,635.76l.4.79-.4-.79c-1.47-2.76-3.68-5.05-6.38-6.62l-12.57-7.21c-4.84-2.82-10.77-3.04-15.81-.6l-80.19,38.57c-7.89,3.8-14.57,9.72-19.29,17.1l54.35,31.39c2.94-6.39,7.27-12.04,12.67-16.54l67.22-56.07v-.03Z"/>
      <path class="cls-22" d="M216.68,643.83c0-2.82-.7-5.59-2.05-8.07l-67.22,56.07c-10.79,9-17.02,22.34-16.97,36.39v99.64l86.24-83v-101.03Z"/>
      <path class="cls-9" d="M216.68,643.83c0-2.82-.7-5.59-2.05-8.07l-67.22,56.07c-10.79,9-17.02,22.34-16.97,36.39v99.64l86.24-83v-101.03Z"/>
      <path class="cls-17" d="M88.37,700.2c-3,2.15-4.62,5.75-4.23,9.43.55,10.24,5.96,19.61,14.56,25.21,2.99,2.18,6.93,2.57,10.29,1.03l4-2.32c3.03-2.14,4.66-5.74,4.27-9.43-.56-10.24-5.96-19.6-14.56-25.21-2.99-2.18-6.93-2.57-10.29-1.03l-4.04,2.32Z"/>
      <path class="cls-8" d="M98.69,734.83c3.67,3.24,9.27,2.89,12.51-.78,1.84-2.08,2.59-4.9,2.04-7.62-.56-10.24-5.96-19.6-14.56-25.21-3.67-3.24-9.27-2.89-12.51.78-1.84,2.08-2.59,4.9-2.04,7.62.55,10.24,5.96,19.61,14.56,25.21Z"/>
      <path class="cls-15" d="M99.12,732.12c2.67,2.71,7.02,2.74,9.73.07,1.76-1.74,2.46-4.29,1.81-6.69-.77-8.66-5.32-16.54-12.44-21.54-2.67-2.71-7.02-2.74-9.73-.07-1.76,1.74-2.46,4.29-1.81,6.69.76,8.66,5.31,16.55,12.44,21.54Z"/>
      <path class="cls-22" d="M414.64,699.9l-6.09-11.11c-2.89-5.25-7.17-9.61-12.37-12.6l-87.93-50.75-79.39-45.88c-4.2-2.45-9.39-2.45-13.6,0l-6.62,3.87-57.82,74.2c-13.23,17.03-20.4,37.98-20.38,59.54,0,22.13,8.34,38.01,28.12,49.42,19.78,11.41,48.56,16.74,77.21,11.31,0-9.79,6.58-18.36,16.04-20.87l141.42-37.65c1.63-.41,3.2-1.05,4.66-1.89l13.96-8.07c3.37-1.89,4.61-6.13,2.78-9.53Z"/>
      <path class="cls-14" d="M414.64,699.9l-6.09-11.11c-2.89-5.25-7.17-9.61-12.37-12.6l-87.93-50.75-79.39-45.88c-4.2-2.45-9.39-2.45-13.6,0l-6.62,3.87-57.82,74.2c-13.23,17.03-20.4,37.98-20.38,59.54,0,22.13,8.34,38.01,28.12,49.42,19.78,11.41,48.56,16.74,77.21,11.31,0-9.79,6.58-18.36,16.04-20.87l141.42-37.65c1.63-.41,3.2-1.05,4.66-1.89l13.96-8.07c3.37-1.89,4.61-6.13,2.78-9.53Z"/>
      <path class="cls-22" d="M208.48,583.42l6.62-3.84c4.2-2.46,9.4-2.46,13.6,0l79.39,45.88,87.93,50.75c5.19,3.01,9.47,7.38,12.37,12.64l6.09,11.05c1.83,3.4.65,7.64-2.68,9.59l-13.93,8.01c-1.46.84-3.03,1.49-4.66,1.92l-141.42,37.61c-9.46,2.52-16.04,11.08-16.04,20.87v110.65l19.85,11.51,8.87,5.09,172.45-99.61v-76.71c-.25-7.75-1.83-15.41-4.66-22.63l-8.9-20.54c-2.01-4.25-4.68-8.16-7.91-11.58-2.87-3.26-6.21-6.07-9.92-8.34l-83.4-48.33h0l-80.72-46.58c-3.1-1.76-6.62-2.66-10.19-2.61h-2.32c-.37-.03-.75-.03-1.12,0-.76,0-1.52.26-2.28.43s-1.49.43-2.18.69c-.62.21-1.23.47-1.82.76h-.33c-.6.3-1.16.63-1.72.96-1.18.76-2.29,1.64-3.31,2.61-.15.12-.28.25-.4.4-.29.25-.56.53-.79.83l-.73.89-5.72,7.61Z"/>
      <path class="cls-4" d="M208.48,583.42l6.62-3.84c4.2-2.46,9.4-2.46,13.6,0l79.39,45.88,87.93,50.75c5.19,3.01,9.47,7.38,12.37,12.64l6.09,11.05c1.83,3.4.65,7.64-2.68,9.59l-13.93,8.01c-1.46.84-3.03,1.49-4.66,1.92l-141.42,37.61c-9.46,2.52-16.04,11.08-16.04,20.87v110.65l19.85,11.51,8.87,5.09,172.45-99.61v-76.71c-.25-7.75-1.83-15.41-4.66-22.63l-8.9-20.54c-2.01-4.25-4.68-8.16-7.91-11.58-2.87-3.26-6.21-6.07-9.92-8.34l-83.4-48.33h0l-80.72-46.58c-3.1-1.76-6.62-2.66-10.19-2.61h-2.32c-.37-.03-.75-.03-1.12,0-.76,0-1.52.26-2.28.43s-1.49.43-2.18.69c-.62.21-1.23.47-1.82.76h-.33c-.6.3-1.16.63-1.72.96-1.18.76-2.29,1.64-3.31,2.61-.15.12-.28.25-.4.4-.29.25-.56.53-.79.83l-.73.89-5.72,7.61Z"/>
      <g class="cls-25">
        <path class="cls-5" d="M437.1,805.56c-.99-25.54-1.19-51.18-1.12-76.71.26-13.23-6.62-28.02-11.78-40.19-1.93-5.34-4.84-10.28-8.57-14.56,4.11,4.01,7.38,8.8,9.63,14.09l7.08,15.51c3.65,7.89,5.66,16.45,5.89,25.14,0,25.54,0,51.18-1.12,76.71h0Z"/>
      </g>
      <path class="cls-22" d="M130.44,717.17v110.69l105.33,60.7v-110.65c-28.75,5.52-57.53,0-77.31-11.45-19.78-11.45-28.02-27.29-28.02-49.29Z"/>
      <path class="cls-14" d="M130.44,717.17v110.69l105.33,60.7v-110.65c-28.75,5.52-57.53,0-77.31-11.45-19.78-11.45-28.02-27.29-28.02-49.29Z"/>
      <path class="cls-14" d="M178.01,747.4c-.4-27.09,6.05-38.41,34.7-58.82,29.34-20.71,68.68-47.83,95.54-63.15-16.24,10.69-28.18,19.32-43,29.41-25.37,17.33-38.47,25.21-56.83,40.49-19.85,16.54-29.04,25.31-30.47,52.07h.07Z"/>
      <path class="cls-22" d="M396.38,719.52c4-1.82,8.57-5,12.47-7.01l3.08-1.79c3.83-1.86,5.63-6.32,4.17-10.32-.89-2.08-2.45-4.5-3.31-6.42l-3.31-6.25c-3.76-6.31-9.31-11.36-15.94-14.52l-36.92-21.24c-35.46-20.34-87.83-50.35-123.32-70.26-10.95-7.08-15.08-4.1-24.55,1.65h0l1.36-.76c.93-.56,1.82-1.09,2.68-1.55l2.68-1.55c4.2-2.45,9.39-2.45,13.6,0l79.39,45.88,87.93,50.75c5.2,2.99,9.48,7.35,12.37,12.6l6.09,11.11c1.84,3.38.65,7.61-2.68,9.53l-14.29,8.14c-1.46.84-3.03,1.47-4.66,1.89l-141.42,37.65c-9.38,2.5-15.94,10.94-16.04,20.64v.23c.13-9.74,6.77-18.19,16.21-20.61l27.49-7.01c30.96-8.2,86.34-22.06,116.94-30.76Z"/>
      <path class="cls-9" d="M396.38,719.52c4-1.82,8.57-5,12.47-7.01l3.08-1.79c3.83-1.86,5.63-6.32,4.17-10.32-.89-2.08-2.45-4.5-3.31-6.42l-3.31-6.25c-3.76-6.31-9.31-11.36-15.94-14.52l-36.92-21.24c-35.46-20.34-87.83-50.35-123.32-70.26-10.95-7.08-15.08-4.1-24.55,1.65h0l1.36-.76c.93-.56,1.82-1.09,2.68-1.55l2.68-1.55c4.2-2.45,9.39-2.45,13.6,0l79.39,45.88,87.93,50.75c5.2,2.99,9.48,7.35,12.37,12.6l6.09,11.11c1.84,3.38.65,7.61-2.68,9.53l-14.29,8.14c-1.46.84-3.03,1.47-4.66,1.89l-141.42,37.65c-9.38,2.5-15.94,10.94-16.04,20.64v.23c.13-9.74,6.77-18.19,16.21-20.61l27.49-7.01c30.96-8.2,86.34-22.06,116.94-30.76Z"/>
      <polygon class="cls-23" points="600.02 744.73 398.79 860.9 398.79 849.82 600.02 733.64 600.02 744.73"/>
      <polygon class="cls-6" points="571.27 717.04 600.02 733.64 398.79 849.82 370.05 833.22 571.27 717.04"/>
      <polygon class="cls-5" points="397.01 861.93 343.35 831 343.35 797.82 397.01 828.72 397.01 861.93"/>
      <path class="cls-23" d="M289.33,887.8c1.01-.9,1.64-2.16,1.75-3.51.3-1.85.63-3.74,1.03-5.59.32-.89.28-1.88-.1-2.75-.18-.11-.37-.21-.56-.3-.53-.33-.56-1.55,0-2.94l3.54-10.19c.53-1.52,1.52-2.65,2.22-2.51s1.79-.96,2.51-2.38,1.79-3.51,2.75-5.23c.76-1.08,1.02-2.42.73-3.7-.28-1.24.07-2.54.93-3.47l6.15-8.24c.76-1.06,1.65-1.52,2.15-1.22l1.06.6c.67-.13,1.27-.48,1.72-.99,1.22-1.22,2.45-2.38,3.74-3.47,1.01-.83,1.69-2.01,1.89-3.31.11-1.26.81-2.39,1.89-3.04l7.11-4.07c.42-.31.97-.37,1.46-.17l3.47,1.98c.86-.23,1.73-.39,2.61-.5,1.17-.3,2.12-1.15,2.55-2.28.28-1.08,1.27-1.82,2.38-1.79l5.95.99h.4c.63.4,30.4,17.5,30.53,17.57.57.41.84,1.13.66,1.82l7.54,4.33c.21.14.39.32.53.53l3.54,6.12c.51,1.07.41,2.33-.26,3.31-.71,1.09-.92,2.42-.6,3.67.42,1.45.76,2.92,1.03,4.4l2.51,1.46c.5.44.75,1.09.66,1.75v9.43c.05,1.25-.46,2.47-1.39,3.31-1.01.89-1.63,2.13-1.75,3.47-.26,1.87-.6,3.76-.99,5.66-.29.89-.23,1.86.17,2.71l.53.33c.53.3.6,1.52,0,2.91l-3.41,10.42c-.53,1.52-1.52,2.65-2.15,2.51s-1.72.96-2.45,2.41-1.79,3.61-2.78,5.33c-.75,1.07-1.04,2.39-.79,3.67.4.63,0,2.15-.96,3.31l-6.15,8.24c-.79,1.06-1.65,1.55-2.12,1.29l-.93-.53c-.69.13-1.31.49-1.75,1.03-1.22,1.26-2.52,2.45-3.87,3.57-1.01.83-1.68,2.01-1.89,3.31-.13,1.21-.83,2.28-1.89,2.88l-7.11,4.07c-.42.33-.99.41-1.49.2l-3.31-1.79c-.98.26-1.97.46-2.98.6-1.14.22-2.08,1.02-2.48,2.12-.31,1.02-1.28,1.7-2.35,1.62l-6.15-1.19c-.14-.02-.28-.08-.4-.17l-30.53-17.53c-.6-.39-.87-1.13-.66-1.82l-7.51-4.3c-.23-.14-.42-.34-.56-.56l-3.54-6.12c-.52-1.06-.43-2.33.23-3.31.68-1.07.89-2.38.56-3.61-.41-1.47-.74-2.96-.99-4.47h0l-2.25-1.26c-.4-.2-.66-.86-.66-1.75v-9.43c-.13-1.29.35-2.56,1.29-3.44Z"/>
      <path class="cls-6" d="M318.47,918.1v-9.43c-.03-1.26.49-2.47,1.42-3.31,1.02-.89,1.65-2.15,1.75-3.51.3-1.85.63-3.7,1.03-5.59s0-2.84-.56-2.98-.83-1.49-.3-2.98l3.57-10.22c.53-1.52,1.52-2.61,2.22-2.48s1.75-.96,2.48-2.41,1.79-3.51,2.75-5.19c.76-1.09,1.02-2.45.73-3.74-.26-1.24.08-2.53.93-3.47l6.15-8.24c.93-1.22,1.98-1.65,2.41-.96s1.52.36,2.51-.63,2.48-2.41,3.74-3.47c1.04-.88,1.71-2.12,1.89-3.47.13-1.26.84-2.39,1.92-3.04l7.11-4.07c1.06-.6,1.89-.23,1.89.83-.04.75.53,1.39,1.28,1.43.21.01.42-.02.61-.11,1.22-.38,2.47-.65,3.74-.83,1.19-.27,2.15-1.13,2.55-2.28.27-1.08,1.27-1.82,2.38-1.75l6.15,1.16c.93.2,1.32,1.26.93,2.41-.42,1.01-.13,2.19.73,2.88.98.59,1.9,1.27,2.75,2.05.73.58,1.79.47,2.37-.26.05-.07.1-.13.14-.21.69-.93,1.69-.93,2.22,0l3.54,6.12c.51,1.07.41,2.33-.26,3.31-.71,1.09-.92,2.42-.6,3.67.42,1.45.76,2.92,1.03,4.4.23,1.26.99,1.95,1.75,1.49s1.42.33,1.42,1.72v9.43c.05,1.25-.46,2.47-1.39,3.31-1.01.89-1.63,2.13-1.75,3.47-.26,1.87-.6,3.76-.99,5.66-.33,1.49,0,2.84.56,2.98s.76,1.46.23,2.98l-3.54,10.16c-.53,1.52-1.52,2.65-2.15,2.51s-1.72.96-2.45,2.41-1.79,3.61-2.78,5.33c-.75,1.07-1.04,2.39-.79,3.67.4.63,0,2.15-.96,3.31l-6.15,8.24c-.93,1.26-1.95,1.72-2.35,1.06s-1.46-.3-2.45.73c-1.22,1.26-2.52,2.45-3.87,3.57-1.01.83-1.68,2.01-1.89,3.31-.13,1.21-.83,2.28-1.89,2.88l-7.11,4.07c-1.06.63-1.92.3-1.92-.66s-.86-1.49-1.89-1.19c-1.26.37-2.54.66-3.84.86-1.14.22-2.08,1.02-2.48,2.12-.31,1.02-1.28,1.7-2.35,1.62l-6.15-1.19c-.84-.24-1.33-1.12-1.09-1.96.03-.11.08-.22.13-.32.39-.99.06-2.12-.79-2.75-.98-.64-1.91-1.34-2.78-2.12-.65-.58-1.66-.53-2.24.13-.06.07-.12.15-.17.23-.28.59-.99.85-1.59.56-.25-.12-.45-.32-.56-.56l-3.61-6.09c-.51-1.07-.41-2.33.26-3.31.68-1.08.89-2.4.56-3.64-.43-1.47-.78-2.96-1.03-4.47-.2-1.26-.96-1.95-1.72-1.49s-1.39-.3-1.39-1.69Z"/>
      <path class="cls-3" d="M334.58,823.03l26.93,15.48h0c.29.24.45.61.43.99-.04.75.53,1.39,1.28,1.43.21.01.42-.02.61-.11l1.19-.33c.84-.21,1.69-.38,2.55-.5.59-.1,1.14-.39,1.55-.83l-30.53-17.53c-.43.41-.97.7-1.55.83l-2.45.56Z"/>
      <path class="cls-5" d="M319.86,830.6l30.53,17.53c.44-.64.7-1.38.76-2.15.03-.6.22-1.19.56-1.69l-30.57-17.5c-.32.49-.5,1.07-.53,1.65-.07.77-.33,1.51-.76,2.15Z"/>
      <path class="cls-3" d="M313.28,836.26l29.31,16.87h0c.11.04.19.12.23.23.17.3.53.44.86.33.65-.13,1.24-.47,1.69-.96,1.22-1.22,2.48-2.41,3.74-3.47.44-.38.82-.82,1.12-1.32l-30.53-17.53c-.32.47-.7.91-1.12,1.29-1.29,1.09-2.51,2.25-3.74,3.47-.39.52-.93.9-1.55,1.09Z"/>
      <path class="cls-3" d="M296.18,860.34l30.57,17.5c.21-.21.5-.31.79-.3.69,0,1.79-.93,2.51-2.38s1.79-3.51,2.75-5.23c.76-1.08,1.02-2.42.73-3.7-.09-.3-.09-.62,0-.93l-30.53-17.53c-.11.3-.11.63,0,.93.29,1.29.03,2.65-.73,3.74-.99,1.65-1.89,3.31-2.75,5.19s-1.82,2.51-2.51,2.41c-.31-.03-.61.08-.83.3Z"/>
      <path class="cls-5" d="M326.74,877.84l-30.57-17.5c.22-.22.52-.33.83-.3.13.03.27.03.4,0l30.53,17.53c-.13.03-.27.03-.4,0-.29-.02-.58.07-.79.26Z"/>
      <path class="cls-5" d="M302.99,848.7c-.11-.3-.11-.63,0-.93l30.53,17.53c-.09.3-.09.62,0,.93.14.42.14.87,0,1.29l-30.53-17.53c.13-.42.13-.87,0-1.29Z"/>
      <path class="cls-3" d="M288.4,888.92l30.57,17.53c.19-.45.5-.84.89-1.12,1.01-.9,1.64-2.16,1.75-3.51.3-1.85.63-3.7,1.03-5.59.34-.92.25-1.93-.23-2.78h0l-.3-.2-.3-.17-29.81-17.14c.43.85.5,1.84.2,2.75-.4,1.85-.73,3.74-1.03,5.59-.13,1.35-.75,2.6-1.75,3.51-.44.27-.8.66-1.03,1.12Z"/>
      <path class="cls-5" d="M289.33,887.8c.45-.34.81-.78,1.06-1.29l30.53,17.53c-.23.52-.59.97-1.06,1.29-.4.29-.7.67-.89,1.12l-30.57-17.53c.2-.45.52-.84.93-1.12Z"/>
      <path class="cls-3" d="M290.98,913.14l30.53,17.57c.07-.45.26-.89.53-1.26.33-.52.54-1.11.63-1.72.13-.63.13-1.29,0-1.92-.43-1.47-.78-2.96-1.03-4.47h0c-.23-1.22-.96-1.92-1.72-1.49-.25.16-.58.16-.83,0l-27.99-16.08h0c.25,1.5.58,3,.99,4.47.34,1.23.14,2.54-.56,3.61-.3.37-.49.82-.56,1.29Z"/>
      <path class="cls-5" d="M322.05,929.45c-.27.37-.45.8-.53,1.26l-30.53-17.57c.06-.45.23-.89.5-1.26.34-.46.56-.99.63-1.55l30.53,17.53c-.08.57-.28,1.11-.6,1.59Z"/>
      <path class="cls-3" d="M380.47,842.61c.97.61,1.89,1.3,2.75,2.05.71.58,1.75.47,2.33-.24.06-.07.11-.15.15-.22.33-.56,1.01-.81,1.62-.6h0l-7.38-4.23v.43c-.44.95-.22,2.08.53,2.81Z"/>
      <path class="cls-5" d="M303.52,927.96h0l.43.26,29.77,17.04h.23c-.61-.51-.81-1.36-.5-2.08.38-.99.07-2.12-.76-2.78-1-.61-1.94-1.3-2.81-2.08-.65-.59-1.65-.54-2.24.1-.06.07-.12.15-.17.23-.29.5-.86.75-1.42.63h-.26l-22.96-13.23c-.25.72.04,1.52.69,1.92Z"/>
      <path class="cls-3" d="M348.44,942.51l3.14,1.79c-.3-.18-.47-.51-.43-.86,0-.99-.86-1.49-1.89-1.19l-.83.26Z"/>
      <path class="cls-3" d="M369.62,929.21l.73.4h0c-.11-.3-.42-.47-.73-.4Z"/>
      <path class="cls-3" d="M391.61,861.66c.2,1.26.99,1.92,1.75,1.49.2-.09.43-.09.63,0h-.2l-.36-.23-1.82-1.26Z"/>
      <path class="cls-5" d="M338.72,821.84l30.53,17.53c.46-.39.8-.89.99-1.46.19-.57.56-1.06,1.06-1.39l-30.57-17.53c-.48.35-.85.83-1.06,1.39-.18.56-.52,1.06-.96,1.46Z"/>
      <path class="cls-23" d="M300.21,902.98c0,15.28,5.13,26.07,13.23,30.7l5.49,3.14c-7.97-4.73-13.03-15.45-13.03-30.63,0-27.95,17.1-60.44,38.21-72.55,9.13-5.26,17.47-5.82,24.05-2.55l-4.7-2.68c-6.62-3.87-15.45-3.51-25.04,1.98-21.11,12.11-38.21,44.59-38.21,72.58Z"/>
      <path class="cls-5" d="M305.87,906.19c0,15.18,5.06,25.9,13.03,30.63l3.67,2.08c-7.97-4.7-13-15.42-13-30.57,0-27.95,17.1-60.47,38.21-72.58,9.43-5.43,18.06-5.82,24.74-2.12l-4.4-2.51c-6.62-3.31-14.95-2.71-24.05,2.51-21.11,12.11-38.21,44.59-38.21,72.55Z"/>
      <path class="cls-23" d="M321.15,826.8l30.57,17.5c.34-.54.79-1.01,1.32-1.36l7.15-4.07c.39-.27.87-.35,1.32-.23l-26.93-15.61-2.28-1.29-.79-.46-.43-.26c-.49-.17-1.02-.11-1.46.17l-7.08,4.1c-.58.39-1.06.91-1.39,1.52Z"/>
      <path class="cls-23" d="M302.86,847.77l30.53,17.53c.13-.92.5-1.8,1.06-2.55l6.15-8.24c.69-.93,1.49-1.39,1.98-1.29l-29.31-16.87-1.06-.6c-.5-.3-1.36,0-2.15,1.19l-6.15,8.27c-.58.74-.94,1.62-1.06,2.55Z"/>
      <path class="cls-23" d="M291.28,875.59h.2l.43.26,29.77,17.14c-.42-.89-.42-1.92,0-2.81l3.57-10.22c.26-.85.74-1.62,1.39-2.22l-30.57-17.5c-.63.6-1.09,1.35-1.36,2.18l-3.47,10.22c-.46,1.39-.43,2.58.03,2.94Z"/>
      <path class="cls-23" d="M287.91,891.14v9.43c-.09.67.16,1.34.66,1.79l2.48,1.39,27.99,16.08c-.42-.47-.63-1.09-.56-1.72v-9.43c0-.76.16-1.5.5-2.18h0l-30.57-17.53c-.31.69-.48,1.43-.5,2.18Z"/>
      <path class="cls-23" d="M291.25,915.12l3.54,6.15c.13.23.33.43.56.56l1.65.96.63.33,5.23,3.01,22.96,13.23c-.19-.15-.34-.32-.46-.53l-3.57-6.15c-.31-.61-.4-1.31-.26-1.98l-30.53-17.57c-.16.67-.06,1.38.26,1.98Z"/>
      <path class="cls-22" d="M335.74,903.48c0,15.25,9.36,22.3,20.87,15.68s20.87-24.38,20.87-39.7-9.33-22.3-20.87-15.68c-11.55,6.62-20.87,24.41-20.87,39.7ZM339.35,901.39c0-12.64,7.74-27.32,17.27-32.78s17.27.33,17.27,12.97-7.74,27.32-17.27,32.78c-9.53,5.46-17.27-.33-17.27-12.97Z"/>
      <path class="cls-12" d="M339.35,901.39c-.2,3.97.87,7.89,3.04,11.21,3.11,4.2,8.3,5.16,14.22,1.75,9.56-5.46,17.27-20.15,17.27-32.78,0-8.83-3.77-14.32-9.3-14.95-2.8-.22-5.6.47-7.97,1.98-9.53,5.46-17.27,20.15-17.27,32.78Z"/>
      <path class="cls-3" d="M339.35,901.39c-.2,3.97.87,7.89,3.04,11.21,2.81.22,5.62-.47,8.01-1.98,9.53-5.46,17.27-20.15,17.27-32.78.19-3.97-.89-7.9-3.08-11.21-2.8-.22-5.6.47-7.97,1.98-9.53,5.46-17.27,20.15-17.27,32.78Z"/>
      <path class="cls-22" d="M358.96,883.6l2.45,8.63,6.25-20.51c-.03-1.47-.44-2.91-1.19-4.17l-7.51,16.04Z"/>
      <path class="cls-9" d="M358.96,883.6l2.45,8.63,6.25-20.51c-.03-1.47-.44-2.91-1.19-4.17l-7.51,16.04Z"/>
      <path class="cls-22" d="M362.04,889.19l-6.45,9.92,4.4,5.16c1.45-1.34,2.58-2.99,3.31-4.83l-1.26-10.25Z"/>
      <path class="cls-9" d="M362.04,889.19l-6.45,9.92,4.4,5.16c1.45-1.34,2.58-2.99,3.31-4.83l-1.26-10.25Z"/>
      <path class="cls-22" d="M340.44,908.67c.37,1.26.94,2.46,1.69,3.54l15.51-14.16-5.43-2.25-.4,1.79-1.55-.66h0l-9.82,11.74Z"/>
      <path class="cls-9" d="M340.44,908.67c.37,1.26.94,2.46,1.69,3.54l15.51-14.16-5.43-2.25-.4,1.79-1.55-.66h0l-9.82,11.74Z"/>
      <path class="cls-22" d="M340.01,894.78l10.25,2.28h0l.93-1.52,1.03.4,1.65-7.84-1.22.69v-2.02h-10.32c-1.03,2.59-1.81,5.27-2.32,8.01Z"/>
      <path class="cls-9" d="M340.01,894.78l10.25,2.28h0l.93-1.52,1.03.4,1.65-7.84-1.22.69v-2.02h-10.32c-1.03,2.59-1.81,5.27-2.32,8.01Z"/>
      <path class="cls-22" d="M352.71,886.77l1.55-.5-.4,1.82,6.62-3.87-5.62-14.39c-1.85,1.35-3.52,2.92-5,4.66l2.84,12.27Z"/>
      <path class="cls-9" d="M352.71,886.77l1.55-.5-.4,1.82,6.62-3.87-5.62-14.39c-1.85,1.35-3.52,2.92-5,4.66l2.84,12.27Z"/>
      <path class="cls-22" d="M350.1,895.24c0,4.76,2.91,6.98,6.62,4.9,4.06-2.84,6.52-7.45,6.62-12.41,0-4.76-2.94-6.98-6.62-4.9-4.06,2.84-6.52,7.45-6.62,12.41Z"/>
      <path class="cls-22" d="M235.77,777.9v110.65l19.85,11.51,14.29,8.24,7.01,4.07c4.95,2.85,10.56,4.35,16.28,4.37h1.92c.89,0,1.82-.17,2.71-.3l.99-.17h.46c.96-.2,1.92-.43,2.91-.73v-3.01c0-22.33,10.49-48.3,26.8-66.16v-.2h0c4.89-5.4,10.55-10.04,16.8-13.76,6.11-3.76,13.11-5.84,20.28-6.02,17.3,0,29.24,14.19,30.53,35.76l3.8-2.22c1.15-.66,2.2-1.48,3.14-2.41.25-.23.48-.47.69-.73.86-1,1.58-2.12,2.15-3.31,0-.23.23-.5.36-.73s0-.3.17-.43.3-.76.4-1.19c.01-.21.01-.42,0-.63.32-1.21.47-2.45.46-3.7v-45.65c.01-3.08-.38-6.15-1.16-9.13-.17-.6-.3-1.16-.5-1.72s-.36-1.12-.6-1.69-.43-1.09-.66-1.62c-1.66-3.81-3.99-7.3-6.88-10.29-.36-.43-.76-.83-1.19-1.19h0c-5.13-4.83-23.88-22.36-28.85-27.06-8.87-8.4-21.47-11.61-33.28-8.47l-88.89,23.42c-6.02,2.29-10.01,8.05-10.02,14.49Z"/>
      <path class="cls-20" d="M397.34,775.32c-10.64-10.15-26.46-12.62-39.7-6.22l-37.55,18.06c-7.9,3.81-14.59,9.74-19.32,17.14l-61.7-35.69c1.85-2.5,4.41-4.38,7.34-5.39l88.89-23.42c11.81-3.13,24.4.07,33.28,8.47,4.86,4.7,23.62,22.23,28.75,27.06Z"/>
      <path class="cls-22" d="M408.39,801v45.65c0,1.25-.17,2.5-.5,3.7.01.22.01.44,0,.66-.11.4-.26.78-.43,1.16.01.13.01.27,0,.4-.11.26-.23.51-.36.76-.57,1.19-1.29,2.31-2.15,3.31l-.69.73c-.94.93-2,1.74-3.14,2.41l-3.8,2.22c-1.29-21.57-13.23-35.76-30.5-35.76-7.18.18-14.19,2.25-20.31,6.02-6.27,3.71-11.93,8.35-16.8,13.76h0v.2c-16.31,17.9-26.83,43.86-26.83,66.16v3.01c-.96.3-1.92.53-2.88.73s-.96,0-1.46.2c-1.53.23-3.08.36-4.63.36v-87.03c0-18.14,10.39-34.67,26.73-42.54l37.55-18.06c13.23-6.41,29.05-3.93,39.7,6.22h0l1.19,1.19c2.89,2.99,5.22,6.48,6.88,10.29.23.53.46,1.09.66,1.62s.4,1.12.6,1.69c.2.56.37,1.14.5,1.72.63,3.03.87,6.14.69,9.23Z"/>
      <path class="cls-9" d="M408.39,801v45.65c0,1.25-.17,2.5-.5,3.7.01.22.01.44,0,.66-.11.4-.26.78-.43,1.16.01.13.01.27,0,.4-.11.26-.23.51-.36.76-.57,1.19-1.29,2.31-2.15,3.31l-.69.73c-.94.93-2,1.74-3.14,2.41l-3.8,2.22c-1.29-21.57-13.23-35.76-30.5-35.76-7.18.18-14.19,2.25-20.31,6.02-6.27,3.71-11.93,8.35-16.8,13.76h0v.2c-16.31,17.9-26.83,43.86-26.83,66.16v3.01c-.96.3-1.92.53-2.88.73s-.96,0-1.46.2c-1.53.23-3.08.36-4.63.36v-87.03c0-18.14,10.39-34.67,26.73-42.54l37.55-18.06c12.37-7.05,28.81-3.31,39.7,6.22h0l1.19,1.19c2.89,2.99,5.22,6.48,6.88,10.29.23.53.46,1.09.66,1.62s.4,1.12.6,1.69c.2.56.37,1.14.5,1.72.63,3.03.87,6.14.69,9.23Z"/>
      <path class="cls-17" d="M253.87,795.8c-3.01,2.15-4.64,5.75-4.27,9.43.55,10.24,5.96,19.61,14.56,25.21,2.99,2.18,6.93,2.57,10.29,1.03l4.04-2.32c3.01-2.15,4.64-5.75,4.27-9.43-.55-10.24-5.96-19.61-14.56-25.21-2.99-2.18-6.93-2.57-10.29-1.03l-4.04,2.32Z"/>
      <path class="cls-8" d="M264.16,830.44c3.67,3.24,9.27,2.89,12.51-.78,1.84-2.08,2.59-4.9,2.04-7.62-.55-10.24-5.96-19.61-14.56-25.21-3.67-3.24-9.27-2.89-12.51.78-1.84,2.08-2.59,4.9-2.04,7.62.55,10.24,5.96,19.61,14.56,25.21Z"/>
      <path class="cls-15" d="M264.62,827.72c2.67,2.71,7.02,2.74,9.73.07,1.76-1.74,2.46-4.29,1.81-6.69-.77-8.66-5.32-16.54-12.44-21.54-2.67-2.71-7.02-2.74-9.73-.07-1.76,1.74-2.46,4.29-1.81,6.69.77,8.66,5.32,16.54,12.44,21.54Z"/>
      <path class="cls-22" d="M289.59,841.92c.02,15.44,1.28,30.85,3.77,46.08,1.29-13.23,1.72-25.34,4.17-37.78,4.23-23.51,16.62-44.78,35-60.04,13.78-10.88,30.44-17.5,47.93-19.05,5.13-.3,10.78,0,5.79-3.7-4.1-3.14-8.94-5.16-14.06-5.86-5.24-.49-10.53-.17-15.68.93-8,1.73-15.69,4.69-22.79,8.77-12.67,6.62-23.78,15.87-32.58,27.13-9.13,12.31-11.38,28.45-11.55,43.53Z"/>
      <path class="cls-24" d="M289.59,841.92c.02,15.44,1.28,30.85,3.77,46.08,1.29-13.23,1.72-25.34,4.17-37.78,4.23-23.51,16.62-44.78,35-60.04,13.78-10.88,30.44-17.5,47.93-19.05,5.13-.3,10.78,0,5.79-3.7-4.1-3.14-8.94-5.16-14.06-5.86-5.24-.49-10.53-.17-15.68.93-8,1.73-15.69,4.69-22.79,8.77-12.67,6.62-23.78,15.87-32.58,27.13-9.13,12.31-11.38,28.45-11.55,43.53Z"/>
      <path class="cls-8" d="M267.1,895.01l-194.22-112.14c-5.84-3.37-9.44-9.6-9.43-16.34v33.08h0c0,6.75,3.58,12.99,9.43,16.37l194.22,112.14c10.87,6.28,23.2,9.59,35.76,9.59v-33.08c-12.56-.01-24.89-3.33-35.76-9.63Z"/>
      <path class="cls-24" d="M267.1,895.01l-194.22-112.14c-5.84-3.37-9.44-9.6-9.43-16.34v33.08h0c0,6.75,3.58,12.99,9.43,16.37l194.22,112.14c10.87,6.28,23.2,9.59,35.76,9.59v-33.08c-12.56-.01-24.89-3.33-35.76-9.63Z"/>
      <path class="cls-11" d="M302.86,898.71v5.89c-12.56,0-24.89-3.31-35.76-9.59l-194.22-112.14c-5.84-3.37-9.44-9.6-9.43-16.34h5.89c.03,4.66,2.55,8.96,6.62,11.25l194.22,112.14c9.94,5.74,21.21,8.77,32.68,8.8Z"/>
      <path class="cls-23" d="M224.99,775.79c-14.64-4.61-28.69-10.9-41.88-18.76-2.08-1.22-3.77-.26-3.77,2.15v3.08c.14,2.68,1.54,5.13,3.77,6.62,13.19,7.84,27.25,14.14,41.88,18.76,1.75.51,3.59-.49,4.1-2.25.1-.34.14-.7.13-1.06v-3.08c-.18-2.51-1.85-4.66-4.23-5.46Z"/>
      <path class="cls-23" d="M133.78,726.03v3.04c.12,2.74,1.31,5.33,3.31,7.21,10.03,8.41,20.51,16.26,31.39,23.52,2.02,1.32,3.67.43,3.67-1.98v-3.08c-.15-2.69-1.5-5.18-3.67-6.78-10.89-7.26-21.37-15.11-31.39-23.52-1.79-1.52-3.31-.86-3.31,1.59Z"/>
      <path class="cls-23" d="M224.99,817.77c-14.64-4.62-28.7-10.92-41.88-18.79-2.08-1.19-3.77-.26-3.77,2.15v3.08c.14,2.68,1.54,5.13,3.77,6.62,13.18,7.88,27.24,14.19,41.88,18.82,1.59.64,3.4-.14,4.04-1.73.2-.5.27-1.04.19-1.57v-3.08c-.16-2.52-1.83-4.7-4.23-5.49Z"/>
      <path class="cls-23" d="M133.78,767.98v3.08c.13,2.74,1.31,5.33,3.31,7.21,10.03,8.4,20.51,16.24,31.39,23.49,2.02,1.36,3.67.43,3.67-1.98v-3.21c-.16-2.69-1.51-5.17-3.67-6.78-10.89-7.25-21.37-15.09-31.39-23.49-1.79-1.42-3.31-.73-3.31,1.69Z"/>
      <path class="cls-23" d="M224.99,797.29c-14.64-4.61-28.69-10.9-41.88-18.76-2.08-1.22-3.77-.26-3.77,2.15v3.04c.14,2.68,1.54,5.13,3.77,6.62,13.19,7.84,27.25,14.14,41.88,18.76,1.75.51,3.59-.49,4.1-2.25.1-.34.14-.7.13-1.06v-3.08c-.19-2.5-1.86-4.63-4.23-5.43Z"/>
      <path class="cls-23" d="M133.78,747.5v3.08c.13,2.74,1.31,5.33,3.31,7.21,10.03,8.41,20.51,16.26,31.39,23.52,2.02,1.32,3.67.43,3.67-2.02v-3.04c-.15-2.7-1.5-5.18-3.67-6.78-10.89-7.26-21.37-15.11-31.39-23.52-1.79-1.55-3.31-.86-3.31,1.55Z"/>
      <path class="cls-8" d="M416.46,684.85l-2.15,1.22c-1.16.62-1.59,2.07-.97,3.22.02.03.03.06.05.08l2.35,4.27c.57,1.14,1.96,1.61,3.11,1.04.07-.03.14-.07.2-.11l2.15-1.22c1.17-.65,1.59-2.12.94-3.28,0,0,0-.02-.01-.02l-2.35-4.27c-.54-1.14-1.91-1.62-3.04-1.07-.09.04-.18.09-.26.15Z"/>
      <path class="cls-15" d="M416.82,684.52l-2.12,1.19c-1.17.65-1.59,2.12-.94,3.28,0,0,0,.02.01.02l2.35,4.27c.56,1.13,1.93,1.6,3.06,1.04.09-.04.17-.09.25-.14l2.15-1.19c1.16-.66,1.57-2.14.93-3.31l-2.35-4.27c-.58-1.14-1.97-1.6-3.11-1.03-.08.04-.16.08-.23.13Z"/>
      <path class="cls-22" d="M232.46,568.31l25.67-114.76,183.37,105.86-25.87,114.76c-2.87-3.27-6.21-6.08-9.92-8.34l-164.31-94.97c-2.74-1.52-5.8-2.39-8.93-2.55Z"/>
      <path class="cls-21" d="M232.46,568.31l25.67-114.76,183.37,105.86-25.87,114.76c-2.87-3.27-6.21-6.08-9.92-8.34l-164.31-94.97c-2.74-1.52-5.8-2.39-8.93-2.55Z"/>
      <polygon class="cls-6" points="243.25 563.25 407.96 658.12 430.35 564.54 265.71 469.46 243.25 563.25"/>
      <polygon class="cls-22" points="351.36 512.33 343.61 507.87 319.37 612.9 327.11 617.53 351.36 512.33"/>
      <polygon class="cls-21" points="351.36 512.33 343.61 507.87 319.37 612.9 327.11 617.53 351.36 512.33"/>
      <polygon class="cls-22" points="257.97 453.48 441.33 559.34 571.27 484.28 387.94 378.43 257.97 453.48"/>
      <polygon class="cls-10" points="257.97 453.48 441.33 559.34 571.27 484.28 387.94 378.43 257.97 453.48"/>
    </g>
    <polygon class="cls-22" points="598.4 429.01 580.64 465.03 512.75 504.36 512.75 479.02 598.4 429.01"/>
    <polygon class="cls-9" points="598.4 429.01 580.64 465.03 512.75 504.36 512.75 479.02 598.4 429.01"/>
    <polygon class="cls-22" points="359.39 291.06 598.4 429.01 512.75 479.02 273.75 341.08 359.39 291.06"/>
    <polygon class="cls-22" points="273.75 341.08 273.75 366.45 512.75 504.36 512.75 479.02 273.75 341.08"/>
    <polygon class="cls-2" points="273.75 341.08 273.75 366.45 512.75 504.36 512.75 479.02 273.75 341.08"/>
    <path class="cls-6" d="M441.4,338.4s-2.58-28.95,29.51-33.08c-9.13-26.7,17.9-50.88,40.26-41.45.99-13.23,13.23-17.8,18.46-8.9,1.98-31.43,22.3-45.06,45.39-39.17-1.72-18.62,14.52-25.7,23.65-20.44,2.81-25.9,28.85-42.57,48.46-27.99,9.46-12.34,28.25-17.86,39.13-8.9,9.92-26.46,48.36-30.9,71.26-18.92,24.84,13,24.02,25.94,24.02,25.94,10.53-4.59,22.71-3.24,31.99,3.54,16.34,11.51,13.5,22.69,13.5,22.69,0,0,10.98-15.22,34.07-4.8,21.2,9.59,20.48,24.25,20.48,24.25,0,0,18.26-2.81,27.39,10.55,5.37,7.92,6.73,17.89,3.67,26.96,0,0,27.46,3.04,19.85,29.77l-329.08,190.61-5-39.99-157-90.67Z"/>
    <path class="cls-23" d="M860.99,319.97l-257.6,149.09-5-39.99-89.32-51.61c12.56-7.49,27.64-9.54,41.75-5.66,8.5,2.58,16.74,7.94,20.05,16.18,8.63-15.87,28.5-21.74,44.37-13.1,9.25,5.03,15.51,14.2,16.83,24.65,3.48-15.77,16.17-27.85,32.09-30.57-5.49-10.69,4.3-25.64,16.31-24.91,1.86-21.97,21.19-38.27,43.16-36.41,14.91,1.26,27.86,10.76,33.55,24.6,3.7-11.28,20.61-15.25,28.98-6.81,10.85-12.41,26.46-21.44,43-21.34,12.47.17,24.19,6.02,31.82,15.88Z"/>
    <path class="cls-23" d="M554.4,316.5c-2.68-18.06-29.54-26.46-42.01-13.23-.79-16.9-16.34-31.19-32.92-32.49,8.22-8.44,20.69-11.18,31.69-6.95.99-13.23,13.23-17.8,18.46-8.9.35-6.39,1.72-12.68,4.07-18.62,10.25,5.13,17.8,14.85,16.21,26.13,12.03-6.68,27.08-4.25,36.39,5.89,10.78-17.47,38.24-21.37,53.49-7.64,7.58-11.68,15.78-22.92,29.77-26.83,10.2-2.8,21.09-1.5,30.33,3.64.78.5,1.64.86,2.55,1.06,1.42-.01,2.81-.42,4-1.19,14.87-6.92,32.52-3.23,43.37,9.06-18.65-7.24-39.73.98-48.56,18.92-7.96-4.3-17.55-4.3-25.51,0-9.92,5.59-14.59,17.4-14.22,28.48-25.25-1.04-48.15,14.7-56.24,38.64-11.41-16.2-32.26-22.74-50.88-15.98Z"/>
    <path class="cls-23" d="M885.9,280.18c-6.64-5.71-15.78-7.55-24.12-4.86-.18-12.79-10.68-23.01-23.47-22.84-1.22.02-2.45.13-3.65.34.33-7.67.53-15.75-2.91-22.63s-11.81-11.98-18.96-9.06c13.24-8.67,30.99-4.96,39.66,8.27,1.87,2.86,3.22,6.03,3.97,9.36,6.95-5.97,17.16-6.15,24.31-.43,3.83-10.07,12.58-17.46,23.16-19.55.69,0,1.42-.17,2.12-.23,1.03,1.01,1.96,2.12,2.78,3.31,5.37,7.92,6.73,17.89,3.67,26.96,0,0,27.46,3.04,19.85,29.77l-38.24,22.16c.58-7.75-2.44-15.33-8.17-20.58Z"/>
    <path class="cls-23" d="M733.57,203.26c-8.8-14.15-27.11-18.98-41.75-11.02.5-9.96-7.16-18.45-17.13-18.95-4.32-.22-8.57,1.12-11.99,3.77-2.32-5.8-6.78-10.48-12.47-13.07,9.92-9.92,26.23-13.53,36.02-5.46,5.39-14.49,19.25-22.33,34.44-24.55-2.39,3.97-3.2,8.69-2.28,13.23,1.8,7.76,8.95,13.08,16.9,12.57-6.17,2.01-9.54,8.63-7.54,14.8.79,2.44,2.36,4.55,4.46,6.01,6.81,4.8,16.37,1.29,24.38,3.57s13.03,9.56,17.04,16.54c-12.33-8.57-28.94-7.51-40.09,2.55Z"/>
  </g>
  <g id="freepik--ground-2--inject-84">
    <g id="freepik--construction-debris--inject-84">
      <path class="cls-19" d="M697.58,766.43c-21.14,2.98-39.7,18.92-40.66,40.76.17-3.57-11.25-4.93-13.6-5.06-6.43-.27-12.79,1.46-18.19,4.96-8.76,6.04-14.63,15.42-16.24,25.94-8.93.33-17.1,4.96-24.78,9.56-4.96,2.98-10.65,7.54-9.46,13.23,1.02,3.11,3.22,5.7,6.12,7.21,11.86,7.42,26.43,9.14,39.7,4.7.4,0,12.44,8.24,14.39,8.93,5.82,1.81,11.94,2.39,18,1.72,9.49-.5,20.31-2.12,25.47-10.12,6.62,7.15,14.32,9.46,23.39,11.78,9.06,2.32,17.2,4.1,26,0,4.96-2.28,10.32-6.22,15.25-3.87,12.64,5.99,30.6,1.55,40.92-7.58.6-.5,16.54,11.02,19.62,11.55,14.72,2.61,30.14,2.12,43-6.45.72-.57,1.54-1,2.41-1.26,3.31-.73,9.26,1.29,13.23.99l16.04-1.16c2.44-.26,4.9-.26,7.34,0,2.74.54,5.44,1.28,8.07,2.22,9.02,2.58,18.62,2.28,27.46-.86,2.87-1.3,5.91-2.19,9.03-2.65,2.88-.01,5.75.41,8.5,1.26,9.32,2.68,19.23,2.46,28.42-.63,2.71-1.33,5.56-2.35,8.5-3.04,3.52-.26,7.07.18,10.42,1.29,6.07,2.07,12.57,2.58,18.89,1.49,6.22-1.52,11.94-6.91,11.71-13.23s-6.62-11.61-12.93-13.83c-4.56-1.63-9.38-2.41-14.22-2.28-1.45.21-2.93-.07-4.2-.79-.82-.8-1.44-1.79-1.79-2.88-6.05-12.77-20.92-18.71-34.11-13.63-.38-10.84-6.25-20.74-15.58-26.27-9.63-5.17-20.9-6.36-31.39-3.31,1.94-16.76-7.01-32.9-22.26-40.13-7.13-3.49-15.02-5.15-22.96-4.83-2.02,0-22.56,3.77-21.54,6.62-22.33-63.61-109.66-60.34-128.85,8.47-.1-.2-4.8.5-9.13,1.19Z"/>
      <path class="cls-7" d="M782.56,849.85c7.12-5.02,16.49-5.5,24.08-1.22,3.63-13.61,14.91-23.82,28.81-26.07,14.02-1.65,27.55,5.77,33.68,18.49,4.92-1.75,10.41-.69,14.32,2.78,3.78,3.5,6.46,8.03,7.71,13.03,4.49-.86,9.1.65,12.21,4,3.05,3.33,5.12,7.44,5.99,11.88,5.77-.74,11.12,3.1,12.27,8.8,2.69-.25,5.4.14,7.91,1.16,2.58,1.09,3.98,3.9,3.31,6.62-.65,1.42-1.76,2.58-3.14,3.31-2.27,1.63-5.28,1.78-7.71.4-5.37,9.24-17.22,12.37-26.46,7-1.44-.84-2.77-1.86-3.94-3.03-6.42,4.55-15.21,3.68-20.61-2.05-8.11,12.62-24.92,16.27-37.53,8.15-2.31-1.48-4.37-3.31-6.13-5.41-5.97,4.67-14.57,3.78-19.45-2.02-9.19,12.27-26.58,14.77-38.85,5.59-2.04-1.53-3.86-3.33-5.41-5.35-5.26,5.88-12.86,9.1-20.74,8.8-3.73-.17-7.4-.94-10.88-2.28-.83-.3-8.4-4.6-7.31-5.03-5.13,2.06-10.77,2.53-16.18,1.36-5-1.12-10.29-4.73-10.09-9.92.17-4.53,4.6-7.67,8.9-9.16,6.75-2.28,14.06-2.28,20.81,0,.06-7.31,6.03-13.19,13.34-13.13,2.73.02,5.39.89,7.6,2.48,1.62-5.47,5.56-9.95,10.78-12.24,5.49-1.74,11.4-1.56,16.77.5,1.31-2.94,3.37-5.49,5.95-7.41Z"/>
    </g>
  </g>
</svg>